<svg width="39" height="29" viewBox="0 0 39 29" fill="none" xmlns="http://www.w3.org/2000/svg">
<path d="M36.3245 8.33007C33.1103 3.98165 28.2312 2.29727 23.6267 3.75649C23.1399 3.35476 22.6334 2.97803 22.1092 2.62772C21.4588 2.17445 19.7159 1.39659 17.8573 1.05153C16.2203 0.723244 14.5465 0.624842 12.8829 0.759101C9.38836 1.01351 6.27245 2.32067 3.84159 4.62499C1.41072 6.92933 -0.106767 10.5818 0.000179396 14.9214C0.129296 18.5619 1.61041 22.0193 4.14798 24.6037C6.69157 27.1799 10.718 28.6011 15.1605 27.9871C16.9308 27.7111 18.6048 26.9924 20.031 25.8962C20.2477 25.7295 20.4502 25.5599 20.6351 25.3873C24.647 28.2794 29.8122 28.3117 34.148 25.0453C39.6513 20.8722 40.4434 13.8979 36.3245 8.33007ZM19.0164 25.0131C17.0193 25.7611 14.8527 25.9177 12.7707 25.4645C10.6886 25.0112 8.77743 23.9671 7.26099 22.4543C5.09604 20.302 3.88205 17.4977 3.61614 14.0003C3.39721 11.629 3.70839 9.23838 4.52662 7.00536C5.32439 4.93204 6.54993 3.43481 8.1339 2.47273C10.7555 0.937482 13.5275 0.858526 16.5278 2.24171C18.0431 2.96456 19.3913 4.00173 20.4848 5.28588C20.2737 5.42333 20.0656 5.57831 19.8604 5.72745C14.3686 9.89455 13.5622 16.8748 17.681 22.4427C18.2869 23.2681 18.9819 24.0223 19.7536 24.6914C19.5223 24.8055 19.2766 24.9137 19.0164 25.0131ZM29.7718 23.7585C26.4911 26.2412 23.2885 26.6214 20.9472 25.1008C20.6634 24.9213 20.3972 24.7146 20.1524 24.4838C19.8325 24.1972 19.542 23.8788 19.2853 23.5334C15.756 18.761 18.9327 11.038 24.28 6.98782C28.3815 3.88223 32.3876 4.09863 34.7145 7.24223C38.2495 12.0147 35.0757 19.7348 29.7718 23.7585Z" fill="#04459D"/>
</svg>
