<svg width="331" height="330" viewBox="0 0 331 330" fill="none" xmlns="http://www.w3.org/2000/svg">
<path d="M65.2637 283.828H77.3569" stroke="#342C2A" stroke-width="0.558833" stroke-miterlimit="10"/>
<path d="M284.317 287.832H40.1178C40.1178 287.832 32.4424 248.766 62.7772 211.084C93.1118 173.402 90.7721 95.05 149.415 83.2129C202.368 72.5249 230.521 92.7426 237.435 120.699C248.892 167.024 319.957 237.201 284.317 287.832Z" fill="#D5E6FF"/>
<path d="M39.3479 287.502H76.6574C76.6574 287.502 79.2419 281.779 76.1036 271.996C71.8579 270.519 55.7979 269.042 55.7979 269.042C55.7979 269.042 53.0288 273.592 50.629 275.992C45.8296 275.992 40.2554 280.584 39.3479 287.502Z" fill="#212529"/>
<path d="M58.6069 277.926L58.0913 277.514C60.9345 273.954 62.1142 270.847 62.1258 270.816L62.7438 271.047C62.6955 271.177 61.5202 274.278 58.6069 277.926Z" fill="#32504D"/>
<path d="M50.6289 275.992C50.6289 275.992 50.9538 275.964 51.5246 275.971C52.0936 275.987 52.9126 276.012 53.8838 276.159C54.8519 276.311 55.9847 276.529 57.1562 276.926C57.737 277.134 58.3414 277.35 58.9243 277.641C59.5132 277.92 60.0911 278.248 60.6475 278.612C61.1954 278.987 61.7273 279.39 62.2024 279.844C62.6909 280.282 63.105 280.782 63.4904 281.272C63.6701 281.528 63.8465 281.779 64.0081 282.032C64.1528 282.294 64.2943 282.551 64.4319 282.801C64.5488 283.061 64.6627 283.313 64.7728 283.558C64.8726 283.806 64.9517 284.052 65.0365 284.284C65.1979 284.751 65.2948 285.196 65.3732 285.587C65.4307 285.983 65.5031 286.322 65.5227 286.608C65.5602 287.177 65.5815 287.502 65.5815 287.502C65.5815 287.502 65.514 287.184 65.3961 286.629C65.3446 286.351 65.2342 286.023 65.1347 285.646C65.0123 285.274 64.8684 284.856 64.6882 284.414C64.59 284.195 64.4977 283.964 64.3856 283.732C64.2638 283.505 64.1383 283.271 64.0089 283.031C63.8612 282.802 63.7093 282.568 63.5543 282.327C63.3834 282.099 63.2089 281.866 63.0315 281.629C62.652 281.174 62.2343 280.728 61.7713 280.313C61.3173 279.889 60.8063 279.513 60.2817 279.161C59.2347 278.447 58.0732 277.909 56.9603 277.472C55.8398 277.049 54.7593 276.73 53.816 276.523C52.8729 276.32 52.0773 276.168 51.5148 276.098C50.9535 276.022 50.6289 275.992 50.6289 275.992Z" fill="#32504D"/>
<path d="M63.7425 277.476C63.6579 277.476 63.5736 277.443 63.5091 277.379C60.6311 274.501 55.2516 274.677 55.2014 274.685C55.0209 274.684 54.8657 274.55 54.8582 274.369C54.8507 274.186 54.9923 274.032 55.1743 274.025C55.4051 274.019 60.8918 273.828 63.9758 276.912C64.1047 277.042 64.1047 277.25 63.9758 277.379C63.9113 277.443 63.8267 277.476 63.7425 277.476Z" fill="white"/>
<path d="M139.55 184.772C139.55 184.772 138.201 201.94 139.55 215.508C140.898 229.076 142.616 259.535 142.616 268.673C138.434 272.854 128.161 270.335 128.161 270.335C128.161 270.335 120.131 221.6 117.085 183.388C127.33 181.449 139.55 184.772 139.55 184.772Z" fill="#F46B4A"/>
<path d="M127.238 287.502H153.451C153.451 287.502 152.343 283.624 148.098 281.594C143.852 279.564 143.801 273.752 142.616 268.673C136.837 266.273 128.161 270.335 128.161 270.335L127.238 287.502Z" fill="#DDDDDD"/>
<path d="M65.8586 128.839C65.8586 128.839 67.5785 89.1297 100.379 103.456C106.194 103.456 112.377 113.61 112.377 126.07C112.377 138.531 127.607 132.992 120.685 149.052C103.517 159.851 55.3365 186.987 55.3365 186.987C55.3365 186.987 55.6196 181.23 48.6979 177.353C41.7753 173.477 39.1201 162.343 48.258 153.206C57.3954 144.068 64.197 146.56 65.8586 128.839Z" fill="#151515"/>
<path d="M76.5286 129.299C76.5286 129.299 77.9575 128.681 80.0054 127.59C81.035 127.057 82.2006 126.37 83.4249 125.603C84.0387 125.222 84.6532 124.799 85.2762 124.37C85.8933 123.931 86.5144 123.478 87.1064 122.99C87.7109 122.517 88.2871 122.009 88.8395 121.497C89.1095 121.234 89.3781 120.973 89.6421 120.715C89.8942 120.445 90.1437 120.179 90.3886 119.917C90.8578 119.375 91.302 118.842 91.6894 118.31C92.0775 117.779 92.4068 117.25 92.6939 116.752C92.9665 116.246 93.2107 115.778 93.3962 115.347C93.6008 114.924 93.713 114.528 93.8404 114.214C94.0364 113.565 94.1479 113.194 94.1479 113.194C94.1479 113.194 94.0945 113.577 93.9638 114.249C93.8674 114.575 93.7909 114.988 93.6252 115.435C93.5453 115.661 93.4602 115.901 93.3704 116.153C93.2602 116.398 93.1441 116.656 93.0233 116.924C92.5025 117.981 91.7779 119.166 90.8288 120.297C90.3509 120.858 89.8394 121.425 89.2791 121.958C88.7174 122.49 88.1333 123.016 87.5195 123.504C86.2919 124.481 84.9944 125.364 83.7259 126.099C82.462 126.841 81.2311 127.438 80.1678 127.923C79.1045 128.41 78.1858 128.739 77.5469 128.971C76.9041 129.197 76.5286 129.299 76.5286 129.299Z" fill="#645550"/>
<path d="M98.8096 116.19C98.8096 116.19 98.8366 115.609 98.9007 114.758C98.929 114.333 98.9627 113.838 98.9983 113.308C99.0326 112.78 99.065 112.217 99.0802 111.656C99.1079 111.094 99.1013 110.536 99.1 110.01C99.0894 109.748 99.0802 109.493 99.0709 109.253C99.0472 109.016 99.0326 108.787 99.0201 108.576C98.9937 108.366 98.9699 108.173 98.9482 108.004C98.9336 107.83 98.894 107.686 98.8749 107.562C98.8333 107.312 98.8096 107.17 98.8096 107.17C98.8096 107.17 98.8782 107.296 98.999 107.519C99.0531 107.634 99.1389 107.77 99.1924 107.938C99.2537 108.104 99.3237 108.293 99.3923 108.502C99.5111 108.924 99.6181 109.427 99.6794 109.971C99.7382 110.514 99.7547 111.098 99.7395 111.679C99.7091 112.258 99.6649 112.836 99.5738 113.371C99.4946 113.908 99.3825 114.402 99.2729 114.82C99.0518 115.659 98.8096 116.19 98.8096 116.19Z" fill="#645550"/>
<path d="M55.2366 179.399L82.0669 220.769C82.0669 220.769 101.058 244.325 129.269 236.275C131.954 235.509 122.489 226.861 122.489 211.077C122.489 195.294 122.489 194.464 122.489 186.987C128.161 186.987 132.109 188.095 139.55 184.772C139.55 176.188 138.683 152.098 125.668 147.944C112.655 143.791 108.501 139.637 102.409 139.637C94.3792 141.299 76.7011 144.561 76.7011 144.561C76.7011 144.561 68.2122 147.714 62.9975 152.929C57.7825 158.144 55.8481 167.837 55.2366 179.399Z" fill="#F9D572"/>
<path d="M82.9919 154.872C82.9919 154.872 89.1504 177.789 102.344 174.891C114.073 172.315 110.725 147.243 106.613 140.299C103.777 143.136 82.9919 154.872 82.9919 154.872Z" fill="#FEEEB3"/>
<path d="M76.1036 184.772C76.1036 184.772 78.1839 175.081 80.051 169.82C80.051 180.619 81.8073 186.374 86.1547 197.203C90.5021 208.032 104.624 226.585 117.085 217.446C114.316 223.538 101.855 230.461 84.6875 199.171C77.4883 195.017 68.9043 188.738 68.9043 188.738L76.1036 184.772Z" fill="#E0BB56"/>
<path d="M122.489 187.317C122.486 187.317 122.483 187.317 122.48 187.317C122.298 187.313 122.154 187.162 122.159 186.979C122.163 186.818 122.59 170.805 124.24 163.928C124.283 163.751 124.463 163.641 124.638 163.684C124.815 163.726 124.925 163.905 124.882 164.082C123.248 170.892 122.823 186.835 122.819 186.996C122.814 187.175 122.667 187.317 122.489 187.317Z" fill="#E0BB56"/>
<path d="M129.268 236.276C129.268 236.276 148.467 265.719 141.082 277.534C133.698 289.349 127.238 287.502 113.921 287.502C102.317 283.441 89.0257 276.795 76.1035 268.673C76.1035 271.996 76.1035 271.996 76.1035 271.996C76.1035 271.996 63.3662 275.503 52.8443 269.227C53.6747 256.905 53.0869 253.317 52.8443 245.599C48.8748 241.629 39.2759 234.061 44.8142 219.108C50.352 204.155 53.9521 185.046 75.5498 186.987C95.0251 188.738 86.1547 211.908 85.8643 221.877C103.037 242.91 129.268 236.276 129.268 236.276Z" fill="#151515"/>
<path d="M52.5152 245.299C52.5028 245.133 51.2881 228.466 52.5152 212.714L53.1734 212.765C51.9501 228.468 53.1611 245.084 53.1734 245.25L52.5152 245.299Z" fill="#4A3F3C"/>
<path d="M113.921 273.842C113.921 273.842 101.026 267.313 80.2872 249.567C79.356 254.622 79.356 254.622 79.356 254.622C79.356 254.622 101.343 270.704 113.921 273.842Z" fill="#27211F"/>
<path d="M85.8645 221.877C85.8645 221.877 80.5343 244.859 76.1038 268.673C79.8578 260.092 84.1313 240.661 89.9301 226.213C88.5329 224.917 87.172 223.479 85.8645 221.877Z" fill="#27211F"/>
<path d="M113.755 274.127C113.578 274.024 95.8746 263.626 80.0676 249.832L80.5013 249.334C96.2627 263.089 113.911 273.454 114.088 273.557L113.755 274.127Z" fill="#4A3F3C"/>
<path d="M85.8643 155.906C85.8643 155.906 90.5423 175.384 101.925 172.52C112.101 169.958 107.477 145.447 105.677 141.709C103.324 144.063 85.8643 155.906 85.8643 155.906Z" fill="#F46B4A"/>
<path d="M98.8096 116.19C98.8096 116.19 97.2962 129.299 76.5286 129.299C74.2206 131.607 72.7462 132.392 72.7462 132.392C72.7462 132.392 72.3753 130.102 70.0679 127.794C68.2747 126.001 65.8655 127.408 65.2684 131.238C64.7213 134.746 66.4904 140.417 72.098 139.453C73.7599 144.622 78.1338 156.805 89.3947 156.805C98.6241 156.805 107.246 142.479 107.246 138.075C110.015 138.075 113.128 136.467 113.128 129.821C113.128 123.175 107.615 125.799 106.139 129.675C105.018 123.229 100.84 122.835 98.8096 116.19Z" fill="#F46B4A"/>
<path d="M89.1196 133.915C89.1196 133.915 88.847 134.822 88.4385 136.182C88.2405 136.862 88.0141 137.654 87.7969 138.505C87.5857 139.357 87.3712 140.268 87.2478 141.184C87.1185 142.088 87.0624 143.034 87.298 143.79C87.4214 144.159 87.6181 144.477 87.9243 144.63C88.0794 144.694 88.2325 144.776 88.4074 144.785C88.4932 144.798 88.5777 144.81 88.6602 144.823C88.7473 144.819 88.8318 144.816 88.915 144.813C89.082 144.816 89.243 144.79 89.3974 144.76C89.5519 144.731 89.7024 144.721 89.8377 144.676C90.1089 144.595 90.3564 144.547 90.5465 144.467C90.9339 144.326 91.1629 144.252 91.1629 144.252C91.1629 144.252 90.9616 144.378 90.598 144.584C90.4191 144.696 90.1795 144.784 89.9136 144.91C89.7822 144.978 89.6278 145.015 89.4694 145.069C89.3116 145.126 89.14 145.169 88.9513 145.189C88.5876 145.271 88.1434 145.244 87.7052 145.071C87.2524 144.889 86.9185 144.444 86.7515 143.989C86.4037 143.056 86.4783 142.048 86.5944 141.093C86.8789 139.174 87.531 137.37 88.0834 136.056C88.6464 134.742 89.1196 133.915 89.1196 133.915Z" fill="#9E4935"/>
<path d="M88.5181 149.458C88.5181 149.458 88.9966 149.349 89.6533 149.101C89.9839 148.983 90.3516 148.813 90.7337 148.621C91.104 148.407 91.5039 148.189 91.8471 147.895C92.0359 147.769 92.1916 147.605 92.3593 147.458C92.5243 147.309 92.6642 147.139 92.814 146.987C92.9579 146.83 93.074 146.657 93.2021 146.506C93.3328 146.355 93.4205 146.188 93.5228 146.045C93.6139 145.897 93.7228 145.77 93.7842 145.64C93.8568 145.514 93.9195 145.404 93.971 145.314C94.0838 145.131 94.1479 145.028 94.1479 145.028C94.1479 145.028 94.1327 145.148 94.0951 145.358C94.0733 145.463 94.0469 145.591 94.0172 145.738C93.9934 145.888 93.9241 146.042 93.8608 146.216C93.7908 146.388 93.736 146.587 93.6199 146.767C93.511 146.95 93.4166 147.161 93.2714 147.346C93.1209 147.526 92.9935 147.74 92.81 147.909C92.6292 148.078 92.4596 148.268 92.253 148.414C92.0537 148.57 91.8445 148.711 91.6273 148.831C91.4201 148.969 91.1864 149.047 90.9746 149.148C90.5357 149.314 90.1133 149.427 89.743 149.468C89.0058 149.573 88.5181 149.458 88.5181 149.458Z" fill="#9E4935"/>
<path d="M92.6252 127.916C92.6252 127.916 92.818 127.304 93.4476 126.591C93.6152 126.426 93.7809 126.221 94.006 126.058C94.2172 125.879 94.464 125.714 94.7399 125.568C94.8699 125.483 95.0224 125.428 95.1748 125.37C95.3299 125.316 95.4784 125.238 95.648 125.213C95.982 125.139 96.3265 125.079 96.6836 125.108C97.0406 125.096 97.3819 125.21 97.7152 125.299C98.0372 125.413 98.325 125.593 98.6009 125.748C98.8438 125.947 99.0688 126.147 99.2734 126.338C99.4562 126.548 99.6001 126.768 99.7374 126.961C99.8041 127.059 99.8714 127.148 99.9275 127.24C99.9717 127.338 100.014 127.432 100.054 127.519C100.135 127.692 100.193 127.848 100.242 127.974C100.337 128.229 100.378 128.377 100.378 128.377C100.378 128.377 100.242 128.288 100.029 128.128C99.9235 128.047 99.7942 127.952 99.6595 127.835C99.5282 127.715 99.3665 127.597 99.1863 127.481C99.0154 127.363 98.8299 127.234 98.6339 127.098C98.426 126.993 98.2154 126.881 98.0082 126.758C97.7812 126.686 97.5614 126.585 97.333 126.521C97.0974 126.494 96.8723 126.403 96.6314 126.426C96.3952 126.395 96.1569 126.439 95.916 126.462C95.6791 126.511 95.4368 126.557 95.2058 126.638C94.9735 126.714 94.7452 126.795 94.5313 126.898C94.3102 126.981 94.1142 127.097 93.9169 127.183C93.7367 127.293 93.5492 127.374 93.3974 127.467C93.2404 127.558 93.1031 127.637 92.9902 127.701C92.7579 127.837 92.6252 127.916 92.6252 127.916Z" fill="#342C2A"/>
<path d="M107.152 131.44C107.152 131.44 110.725 127.101 110.725 129.87C110.725 132.64 109.393 135.132 107.152 135.132C107.956 133.562 107.152 131.44 107.152 131.44Z" fill="#9E4935"/>
<path d="M71.2142 132.992C71.2142 132.992 68.8923 129.317 68.0159 130.194C67.1387 131.071 67.2912 136.784 71.2142 136.315C70.7067 135.346 70.5681 133.638 71.2142 132.992Z" fill="#9E4935"/>
<path d="M97.7945 133.2C97.7945 134.054 97.2164 134.746 96.5022 134.746C95.7881 134.746 95.21 134.054 95.21 133.2C95.21 132.346 95.7881 131.654 96.5022 131.654C97.2164 131.654 97.7945 132.346 97.7945 133.2Z" fill="#342C2A"/>
<path d="M83.359 133.2C83.359 134.054 82.7802 134.746 82.0667 134.746C81.3526 134.746 80.7744 134.054 80.7744 133.2C80.7744 132.346 81.3526 131.654 82.0667 131.654C82.7802 131.654 83.359 132.346 83.359 133.2Z" fill="#342C2A"/>
<path d="M105.963 142.413C105.963 142.413 105.812 142.792 105.496 143.432C105.175 144.068 104.715 144.982 104.068 146.022C103.421 147.063 102.637 148.265 101.673 149.464C101.196 150.066 100.679 150.672 100.124 151.261C99.5687 151.848 98.9793 152.424 98.3589 152.968C97.7332 153.504 97.0871 154.02 96.4093 154.471C95.7427 154.94 95.0331 155.321 94.3415 155.672C93.9857 155.827 93.6399 155.992 93.2894 156.123C92.933 156.239 92.5925 156.374 92.2473 156.462C91.5602 156.654 90.8969 156.775 90.2818 156.847C89.9723 156.87 89.6766 156.891 89.3948 156.911C89.113 156.901 88.8457 156.892 88.5949 156.883C88.0939 156.865 87.6636 156.773 87.3092 156.736C86.6096 156.575 86.2175 156.47 86.2175 156.47C86.2175 156.47 86.6208 156.52 87.3257 156.608C87.6808 156.612 88.1084 156.664 88.5988 156.637C88.843 156.624 89.103 156.609 89.3769 156.594C89.6482 156.557 89.934 156.519 90.2316 156.479C90.8223 156.376 91.4546 156.224 92.1034 156.003C92.4308 155.9 92.7515 155.75 93.0861 155.621C93.4115 155.468 93.7442 155.311 94.0821 155.152C94.7414 154.798 95.4041 154.399 96.0482 153.946C96.699 153.504 97.3214 152.997 97.9259 152.471C98.5338 151.948 99.1146 151.392 99.6637 150.821C100.208 150.246 100.743 149.678 101.226 149.095C102.205 147.943 103.069 146.82 103.758 145.82C104.449 144.821 105.018 143.978 105.385 143.37C105.759 142.766 105.963 142.413 105.963 142.413Z" fill="#9E4935"/>
<path d="M55.2365 179.399C55.2365 179.399 64.197 179.512 76.1037 184.772C74.7197 193.08 71.3108 213.478 71.3108 229.169C68.0768 232.403 57.4057 235.998 57.4057 235.998C57.4057 235.998 53.2983 200.721 55.2365 179.399Z" fill="#F46B4A"/>
<path d="M72.1087 228.371C71.0276 227.289 57.26 229.169 55.8479 235.998C55.8479 240.429 58.1054 238.793 58.1054 241.562C56.9055 247.839 58.5792 268.489 71.3107 267.196C75.3658 265.535 77.6579 258.47 77.6579 258.47C77.6579 258.47 81.2219 252.234 80.0511 247.843C77.6579 238.864 72.8828 234.802 71.3107 233.23C72.706 230.938 73.1897 229.451 72.1087 228.371Z" fill="#DDDDDD"/>
<path d="M65.088 250.767C65.088 250.767 65.245 251.825 65.4807 253.412C65.59 254.204 65.7565 255.123 65.9225 256.106C66.1025 257.086 66.2799 258.134 66.5178 259.167C66.7271 260.208 66.9963 261.232 67.2669 262.185C67.393 262.666 67.56 263.113 67.6913 263.549C67.8194 263.987 68.0068 264.372 68.1447 264.745C68.2807 265.12 68.4668 265.43 68.5955 265.729C68.6655 265.874 68.7315 266.012 68.7922 266.138C68.8661 266.256 68.9348 266.364 68.9961 266.462C69.239 266.863 69.3776 267.093 69.3776 267.093C69.3776 267.093 69.1981 266.897 68.8919 266.536C68.8153 266.446 68.7308 266.346 68.6384 266.236C68.5599 266.118 68.4747 265.99 68.3837 265.853C68.2114 265.574 67.9725 265.276 67.8095 264.905C67.6372 264.539 67.4102 264.156 67.2425 263.723C67.0716 263.292 66.8544 262.847 66.7132 262.361C66.5588 261.879 66.3776 261.386 66.2559 260.869C66.1162 260.356 65.9831 259.834 65.8733 259.307C65.7565 258.781 65.6642 258.25 65.5735 257.729C65.4724 257.209 65.4226 256.689 65.3492 256.191C65.2226 255.191 65.1643 254.252 65.1127 253.45C65.0622 252.647 65.0713 251.973 65.0676 251.505C65.0702 251.035 65.088 250.767 65.088 250.767Z" fill="#449080"/>
<path d="M61.1278 251.627C61.1278 251.627 61.2833 252.447 61.5171 253.677C61.7391 254.902 62.0356 256.534 62.3318 258.166C62.4125 258.571 62.4935 258.978 62.5734 259.377C62.6618 259.775 62.7064 260.176 62.8065 260.549C62.89 260.929 62.9707 261.295 63.0475 261.642C63.1287 261.988 63.1772 262.325 63.2582 262.624C63.4213 263.222 63.5299 263.733 63.6193 264.087C63.7029 264.443 63.7423 264.651 63.7423 264.651C63.7423 264.651 63.6485 264.465 63.4989 264.131C63.3556 263.795 63.1316 263.319 62.8954 262.733C62.7732 262.442 62.6819 262.115 62.5718 261.772C62.4667 261.427 62.3558 261.063 62.2416 260.686C62.1237 260.31 62.04 259.914 61.95 259.511C61.8621 259.107 61.7729 258.698 61.6837 258.289C61.5465 257.463 61.406 256.637 61.3181 255.857C61.2374 255.076 61.1619 254.349 61.1423 253.72C61.0796 252.465 61.1278 251.627 61.1278 251.627Z" fill="#449080"/>
<path d="M83.5761 267.516C81.4001 268.425 79.6901 268.815 77.4692 269.279L76.6428 265.142L74.1652 265.515L74.9354 269.745C71.1602 270.349 68.2773 270.427 68.2773 270.427C69.3122 278.933 73.5752 286.842 73.5752 286.842L85.3337 282.043C85.3337 282.043 84.6836 271.781 83.5761 267.516Z" fill="#E8CC74"/>
<path d="M72.0385 267.088C72.0385 267.088 66.977 252.416 72.9731 248.466C75.3148 248.584 77.3 255.893 78.5309 265.75C75.3181 267.253 72.0385 267.088 72.0385 267.088Z" fill="#6D4537"/>
<path d="M198.053 161.698L213.298 178.268C213.298 178.268 200.51 189.203 186.388 193.357C172.267 197.51 167.202 196.126 151.697 196.126C149.482 188.373 148.651 182.281 148.651 182.281C148.651 182.281 164.687 178.996 176.34 176.19C184.607 174.198 188.709 169.532 198.053 161.698Z" fill="#F46B4A"/>
<path d="M177.816 232.583C177.816 232.583 177.494 244.813 181.647 248.968C175.925 252.475 172.196 252.705 170.064 256.397C167.932 260.09 157.313 275.411 142.827 269.873C140.344 270.101 137.945 268.581 137.945 266.828C134.991 265.997 136.981 262.988 140.795 261.361C144.609 259.735 149.819 254.066 152.98 250.906C148.55 250.906 143.566 251.131 143.566 247.673C143.566 244.214 148.734 246.429 153.903 243.752C159.071 241.076 160.18 239.968 162.949 239.968C168.211 237.632 176.247 234.153 177.816 232.583Z" fill="#DDDDDD"/>
<path d="M137.945 266.827C137.945 266.827 138.172 266.783 138.556 266.674C138.749 266.621 138.983 266.572 139.244 266.475C139.507 266.385 139.802 266.284 140.125 266.186C140.441 266.061 140.782 265.927 141.143 265.784C141.324 265.714 141.509 265.641 141.698 265.568C141.882 265.481 142.07 265.392 142.261 265.301C142.643 265.121 143.037 264.935 143.438 264.746C143.836 264.554 144.215 264.306 144.608 264.087C144.998 263.863 145.4 263.657 145.777 263.424C146.137 263.166 146.503 262.927 146.852 262.688C147.206 262.454 147.547 262.227 147.871 262.012C148.194 261.794 148.464 261.543 148.736 261.339C149.266 260.912 149.73 260.577 150.046 260.332C150.367 260.091 150.558 259.959 150.558 259.959C150.558 259.959 150.409 260.132 150.135 260.425C149.857 260.712 149.471 261.139 148.982 261.627C148.733 261.866 148.487 262.154 148.176 262.399C147.863 262.641 147.532 262.896 147.19 263.161C146.843 263.419 146.491 263.696 146.121 263.96C145.738 264.206 145.33 264.426 144.932 264.661C144.525 264.88 144.133 265.127 143.719 265.317C143.299 265.494 142.885 265.667 142.485 265.835C142.284 265.916 142.091 266.006 141.893 266.074C141.693 266.132 141.497 266.191 141.306 266.246C140.924 266.359 140.565 266.466 140.229 266.548C139.546 266.678 138.98 266.776 138.575 266.8C138.174 266.841 137.945 266.827 137.945 266.827Z" fill="#449080"/>
<path d="M142.827 269.873C142.827 269.873 143.008 269.789 143.325 269.642C143.645 269.506 144.089 269.287 144.627 269.035C145.169 268.796 145.783 268.477 146.453 268.169C146.793 268.024 147.118 267.823 147.467 267.657C147.813 267.482 148.162 267.305 148.513 267.128C148.855 266.936 149.197 266.746 149.534 266.557C149.864 266.358 150.222 266.214 150.52 265.999C150.831 265.804 151.131 265.615 151.417 265.436C151.697 265.251 151.989 265.108 152.222 264.929C152.688 264.572 153.099 264.294 153.38 264.088C153.664 263.887 153.834 263.778 153.834 263.778C153.834 263.778 153.706 263.928 153.467 264.182C153.224 264.431 152.887 264.804 152.456 265.227C152.243 265.443 151.973 265.624 151.702 265.837C151.425 266.045 151.134 266.263 150.833 266.489C150.536 266.722 150.193 266.904 149.855 267.109C149.514 267.307 149.168 267.509 148.821 267.711C148.461 267.885 148.1 268.058 147.746 268.229C147.389 268.396 147.04 268.567 146.689 268.698C145.99 268.969 145.34 269.225 144.763 269.387C143.618 269.745 142.827 269.873 142.827 269.873Z" fill="#449080"/>
<path d="M149.415 271.062C149.415 271.062 149.9 270.755 150.633 270.337C151.002 270.13 151.427 269.884 151.888 269.634C152.346 269.381 152.835 269.111 153.324 268.842C153.813 268.576 154.286 268.284 154.751 268.043C155.189 267.764 155.608 267.516 155.976 267.311C156.654 266.835 157.158 266.542 157.158 266.542C157.158 266.542 156.814 266.99 156.206 267.612C155.883 267.891 155.493 268.206 155.065 268.532C154.62 268.827 154.137 269.134 153.644 269.419C153.135 269.674 152.639 269.955 152.144 270.154C151.656 270.366 151.194 270.55 150.787 270.68C149.981 270.961 149.415 271.062 149.415 271.062Z" fill="#449080"/>
<path d="M214.552 271.35L193.138 272.643C193.138 272.643 185.357 277.258 174.28 278.918C163.206 280.58 168.813 286.325 169.989 287.502C178.71 287.502 219.48 287.502 219.48 287.502C219.48 287.502 219.628 276.426 214.552 271.35Z" fill="#212529"/>
<path d="M192.073 277.937C191.917 277.937 191.778 277.826 191.749 277.668C191.391 275.781 190.002 274.935 189.989 274.927C189.831 274.834 189.78 274.631 189.874 274.474C189.967 274.316 190.17 274.266 190.326 274.36C190.394 274.4 191.985 275.369 192.398 277.545C192.432 277.725 192.314 277.897 192.134 277.931C192.114 277.935 192.093 277.937 192.073 277.937Z" fill="white"/>
<path d="M187.555 279.206C187.402 279.206 187.265 279.099 187.233 278.943C186.944 277.552 186.072 276.477 186.062 276.466C185.947 276.326 185.968 276.117 186.109 276.002C186.249 275.885 186.457 275.907 186.573 276.046C186.612 276.095 187.556 277.254 187.878 278.809C187.916 278.987 187.801 279.162 187.623 279.199C187.6 279.204 187.577 279.206 187.555 279.206Z" fill="white"/>
<path d="M182.357 280.278C182.192 280.278 182.049 280.155 182.029 279.986C181.899 278.844 181.452 277.959 181.447 277.951C181.365 277.789 181.429 277.59 181.591 277.507C181.754 277.425 181.952 277.489 182.035 277.65C182.055 277.689 182.54 278.645 182.686 279.91C182.706 280.091 182.576 280.255 182.396 280.276C182.383 280.277 182.37 280.278 182.357 280.278Z" fill="white"/>
<path d="M248.611 209.417C248.611 209.417 288.384 200.279 288.384 237.661C288.384 242.91 284.757 249.567 280.731 250.951C280.731 260.089 282.695 265.113 268.573 265.113C245.314 266.313 225.803 266.43 213.62 266.43C214.036 269.337 214.106 268.974 214.552 271.35C212.337 273.565 203.845 277.073 193.138 272.643C192.769 270.519 192.493 268.904 191.569 266.365C187.693 266.365 175.647 265.351 171.909 250.121C170.198 243.148 172.464 236.415 177.816 232.583C175.602 225.938 162.496 198.987 179.478 189.941C196.461 180.897 227.474 203.786 248.611 209.417Z" fill="#151515"/>
<path d="M223.821 220.704C223.821 220.704 224.022 220.622 224.378 220.494C224.736 220.372 225.242 220.18 225.857 219.983C226.472 219.779 227.193 219.557 227.968 219.332C228.746 219.116 229.589 218.925 230.427 218.724C232.11 218.342 233.805 218.011 235.083 217.805C235.721 217.697 236.258 217.636 236.631 217.58C237.006 217.53 237.221 217.511 237.221 217.511C237.221 217.511 237.016 217.587 236.656 217.705C236.295 217.816 235.783 217.996 235.162 218.175C233.922 218.545 232.258 218.98 230.584 219.365C229.745 219.552 228.905 219.732 228.114 219.893C227.327 220.072 226.589 220.227 225.953 220.348C225.318 220.474 224.782 220.551 224.41 220.618C224.037 220.678 223.821 220.704 223.821 220.704Z" fill="#385A4A"/>
<path d="M202.368 219.844C202.368 219.844 202.284 219.522 202.137 218.958C202.066 218.676 201.969 218.337 201.857 217.949C201.742 217.562 201.612 217.125 201.471 216.648C201.177 215.699 200.807 214.602 200.364 213.446C200.158 212.864 199.908 212.276 199.657 211.678C199.424 211.072 199.122 210.486 198.848 209.888C198.571 209.292 198.245 208.721 197.951 208.145C197.608 207.598 197.303 207.039 196.965 206.525C196.601 206.032 196.29 205.521 195.941 205.079C195.579 204.649 195.249 204.226 194.919 203.86C194.564 203.52 194.248 203.197 193.965 202.909C193.691 202.611 193.387 202.431 193.169 202.24C192.715 201.873 192.457 201.664 192.457 201.664C192.457 201.664 192.742 201.835 193.242 202.135C193.481 202.301 193.814 202.453 194.122 202.72C194.44 202.976 194.8 203.267 195.183 203.598C195.545 203.948 195.91 204.355 196.313 204.773C196.701 205.201 197.059 205.697 197.445 206.197C197.805 206.714 198.153 207.267 198.504 207.829C198.812 208.413 199.153 208.995 199.442 209.601C199.714 210.214 200.015 210.816 200.246 211.434C200.498 212.045 200.717 212.656 200.911 213.252C201.125 213.843 201.276 214.431 201.432 214.984C201.587 215.537 201.706 216.068 201.828 216.553C202.049 217.531 202.176 218.356 202.262 218.933C202.346 219.511 202.368 219.844 202.368 219.844Z" fill="#385A4A"/>
<path d="M228.877 242.91C228.877 242.91 275.713 246.078 284.808 247.67C283.63 249.399 281.697 250.514 280.731 250.951C273.483 248.78 238.169 243.856 228.877 242.91Z" fill="black"/>
<path d="M190.919 247.309C190.919 247.309 191.185 247.067 191.722 246.659C192.265 246.261 193.063 245.671 194.158 245.046C195.253 244.427 196.604 243.695 198.245 243.062C199.883 242.432 201.77 241.778 203.905 241.395C206.033 241.008 208.378 240.697 210.866 240.769C211.489 240.749 212.116 240.799 212.753 240.845C213.388 240.895 214.038 240.92 214.681 240.993C215.97 241.134 217.286 241.28 218.625 241.427C221.302 241.732 224.068 242.046 226.879 242.366C229.688 242.699 232.542 243.037 235.396 243.374C238.25 243.719 241.096 244.114 243.902 244.481C246.708 244.841 249.465 245.233 252.132 245.619C254.801 245.997 257.379 246.369 259.814 246.787C262.251 247.191 264.555 247.573 266.683 247.927C268.801 248.334 270.742 248.707 272.462 249.037C274.187 249.344 275.668 249.726 276.891 250.017C279.335 250.612 280.731 250.951 280.731 250.951C280.731 250.951 279.325 250.658 276.863 250.143C275.634 249.883 274.148 249.541 272.415 249.279C270.691 248.985 268.744 248.654 266.621 248.292C264.49 247.973 262.182 247.628 259.741 247.263C257.303 246.884 254.719 246.561 252.053 246.187C249.386 245.815 246.629 245.437 243.822 245.092C241.016 244.739 238.169 244.361 235.315 244.029C232.464 243.676 229.614 243.324 226.807 242.977C223.998 242.643 221.234 242.314 218.56 241.995C217.222 241.837 215.907 241.681 214.62 241.528C213.976 241.445 213.344 241.412 212.716 241.353C212.09 241.296 211.47 241.237 210.857 241.249C208.403 241.138 206.084 241.41 203.974 241.759C203.448 241.862 202.934 241.963 202.43 242.063C201.934 242.192 201.449 242.318 200.976 242.442C200.499 242.551 200.052 242.714 199.609 242.852C199.169 242.996 198.736 243.123 198.333 243.29C196.688 243.877 195.326 244.569 194.221 245.158C192.019 246.367 190.919 247.309 190.919 247.309Z" fill="#385A4A"/>
<path d="M203.245 267.049C196.405 267.049 191.97 266.889 191.907 266.887C191.725 266.879 191.583 266.727 191.589 266.544C191.596 266.363 191.726 266.231 191.932 266.227C192.023 266.231 201.14 266.56 213.442 266.27C213.633 266.261 213.776 266.41 213.78 266.593C213.784 266.775 213.64 266.926 213.457 266.93C209.703 267.017 206.242 267.049 203.245 267.049Z" fill="#385A4A"/>
<path d="M150.128 180.155C153.668 181.235 154.743 184.034 153.082 190.865C151.42 197.695 151.79 198.987 146.806 197.51C142.744 199.911 140.268 197.9 135.653 196.984C131.038 196.069 126.207 195.555 126.798 188.738C125.753 186.987 125.918 183.826 127.097 182.409C126.798 180.319 127.403 178.009 129.328 176.58C130.959 172.847 134.252 168.342 137.944 169.82C141.636 171.297 147.728 175.352 150.128 180.155Z" fill="#DDDDDD"/>
<path d="M144.959 178.405C143.581 176.806 142.122 175.274 140.545 173.897C139.749 173.23 138.908 172.574 137.983 172.197C137.526 172.012 137.032 171.93 136.667 172.098C136.599 172.133 136.445 172.222 136.354 172.282C136.278 172.358 136.186 172.403 136.119 172.496C135.956 172.649 135.871 172.855 135.794 173.061C135.676 173.493 135.723 173.986 135.851 174.463C135.979 174.943 136.183 175.413 136.416 175.87C136.88 176.786 137.479 177.642 138.092 178.485C139.333 180.165 140.737 181.735 142.207 183.233L142.302 183.33L142.288 183.473L142.15 184.87C142.131 185.104 142.084 185.337 142.096 185.57V186.271L142.095 186.973C142.102 187.206 142.143 187.437 142.166 187.67L142.247 188.366C142.261 188.602 142.338 188.824 142.387 189.052L142.554 189.734C142.597 189.965 142.703 190.176 142.777 190.397L143.022 191.057C143.111 191.274 143.233 191.475 143.338 191.686C143.452 191.891 143.544 192.111 143.676 192.306L144.075 192.89C144.327 193.292 144.666 193.628 144.959 194.003C144.639 193.656 144.261 193.35 143.981 192.962L143.539 192.397C143.391 192.208 143.284 191.991 143.154 191.789C143.034 191.582 142.896 191.384 142.79 191.167L142.496 190.508C142.403 190.286 142.28 190.073 142.228 189.836L142.029 189.14C141.968 188.908 141.879 188.679 141.855 188.439L141.743 187.723C141.71 187.484 141.658 187.246 141.642 187.006L141.614 186.283L141.586 185.559C141.564 185.317 141.601 185.078 141.612 184.838L141.723 183.396L141.804 183.635C140.298 182.141 138.86 180.575 137.569 178.874C136.928 178.021 136.34 177.121 135.855 176.151C135.616 175.664 135.403 175.158 135.264 174.615C135.13 174.077 135.065 173.482 135.234 172.891C135.338 172.606 135.475 172.315 135.7 172.103C135.793 171.983 135.938 171.895 136.059 171.795C136.189 171.716 136.264 171.669 136.431 171.586C137.057 171.316 137.684 171.501 138.181 171.719C139.2 172.185 140.017 172.89 140.806 173.604C141.59 174.326 142.312 175.105 142.998 175.912C143.684 176.718 144.347 177.543 144.959 178.405Z" fill="#449080"/>
<path d="M129.85 177.353C129.85 177.353 130.566 177.904 131.64 178.729C132.713 179.548 134.135 180.646 135.618 181.634C136.355 182.134 137.116 182.594 137.848 182.979C138.581 183.359 139.294 183.657 139.931 183.787C140.247 183.847 140.545 183.888 140.806 183.867C140.939 183.867 141.061 183.852 141.17 183.821C141.283 183.798 141.387 183.775 141.471 183.731C141.652 183.663 141.784 183.587 141.868 183.523C141.958 183.465 142.005 183.434 142.005 183.434C142.005 183.434 141.965 183.475 141.892 183.551C141.819 183.631 141.709 183.747 141.529 183.846C141.445 183.908 141.34 183.951 141.224 183.995C141.11 184.048 140.981 184.086 140.839 184.111C140.557 184.182 140.228 184.191 139.877 184.162C139.523 184.134 139.151 184.055 138.766 183.944C138.385 183.825 137.986 183.687 137.596 183.502C137.202 183.323 136.8 183.13 136.413 182.899C136.02 182.675 135.633 182.432 135.251 182.182C133.733 181.165 132.363 179.965 131.393 179.013C130.905 178.541 130.527 178.115 130.257 177.826C129.991 177.531 129.85 177.353 129.85 177.353Z" fill="#449080"/>
<path d="M128.438 184.02C128.438 184.02 128.652 184.127 129.029 184.316C129.401 184.508 129.947 184.759 130.593 185.063C131.244 185.363 132.003 185.706 132.829 186.035C133.654 186.36 134.542 186.686 135.448 186.927C135.9 187.051 136.356 187.155 136.807 187.224C137.258 187.289 137.703 187.344 138.132 187.338C138.561 187.336 138.973 187.295 139.349 187.203C139.535 187.15 139.72 187.106 139.883 187.027C140.057 186.965 140.213 186.885 140.355 186.793C140.509 186.715 140.63 186.606 140.753 186.51C140.884 186.42 140.984 186.309 141.08 186.206C141.289 186.012 141.407 185.788 141.533 185.623C141.736 185.257 141.852 185.049 141.852 185.049C141.852 185.049 141.835 185.106 141.802 185.214C141.765 185.32 141.73 185.486 141.647 185.682C141.546 185.869 141.458 186.121 141.271 186.36C141.108 186.614 140.874 186.879 140.571 187.105C140.277 187.35 139.899 187.534 139.487 187.676C139.073 187.814 138.619 187.9 138.15 187.919C137.68 187.944 137.197 187.923 136.715 187.855C136.232 187.789 135.751 187.688 135.277 187.563C133.384 187.042 131.648 186.15 130.416 185.396C129.182 184.636 128.438 184.02 128.438 184.02Z" fill="#449080"/>
<path d="M128.438 188.618C128.438 188.618 128.654 188.695 129.033 188.831C129.409 188.971 129.956 189.144 130.608 189.351C131.911 189.745 133.674 190.248 135.45 190.34C135.893 190.374 136.333 190.354 136.762 190.318C137.185 190.256 137.606 190.2 137.981 190.054C138.365 189.928 138.703 189.739 139.008 189.532C139.298 189.306 139.555 189.064 139.753 188.803C139.956 188.545 140.103 188.278 140.237 188.038C140.349 187.79 140.442 187.567 140.51 187.38C140.625 187 140.7 186.779 140.7 186.779C140.7 186.779 140.683 187.007 140.635 187.412C140.597 187.611 140.54 187.852 140.464 188.13C140.369 188.4 140.26 188.71 140.066 189.017C139.884 189.329 139.629 189.636 139.316 189.918C138.992 190.182 138.617 190.437 138.188 190.597C137.339 190.956 136.359 191.042 135.417 190.999C133.518 190.892 131.74 190.26 130.475 189.703C129.208 189.132 128.438 188.618 128.438 188.618Z" fill="#449080"/>
<path d="M129.85 194.003C129.85 194.003 130.045 194.004 130.386 194.007C130.726 194.016 131.211 194 131.789 193.986C132.941 193.942 134.484 193.861 135.928 193.461C136.291 193.369 136.639 193.243 136.973 193.101C137.297 192.944 137.624 192.797 137.893 192.59C138.174 192.397 138.412 192.172 138.619 191.941C138.813 191.698 138.978 191.452 139.099 191.203C139.219 190.954 139.302 190.712 139.37 190.49C139.428 190.267 139.461 190.066 139.491 189.9C139.522 189.567 139.549 189.369 139.549 189.369C139.549 189.369 139.581 189.56 139.619 189.904C139.622 190.077 139.627 190.289 139.612 190.533C139.588 190.776 139.551 191.053 139.451 191.345C139.358 191.637 139.211 191.942 139.011 192.239C138.803 192.527 138.554 192.818 138.244 193.053C137.64 193.547 136.877 193.882 136.103 194.097C134.542 194.521 132.941 194.485 131.774 194.363C130.603 194.228 129.85 194.003 129.85 194.003Z" fill="#449080"/>
<path d="M229.867 134.387C229.867 134.387 223.866 134.076 213.345 147.115C211.784 149.047 205.678 154.073 198.053 161.698C200.576 169.004 205.591 177.353 213.299 178.268C218.144 184.958 231.897 190.034 235.496 196.403C239.096 202.771 238.606 209.757 237.221 217.511C245.528 215.849 257.478 214.31 261.438 219.844C271.898 234.462 285.893 231.292 288.384 237.661C294.615 231.43 291.84 230.882 290.179 224.791C288.517 218.698 289.152 211.325 285.99 200.099C282.925 189.221 280.354 182.281 274.539 169.543C268.724 156.806 249.712 128.229 229.867 134.387Z" fill="#04459D"/>
<path d="M230.454 191.256C232.658 192.913 234.481 194.606 235.496 196.403C235.694 196.753 235.898 197.131 236.061 197.475C239.134 188.478 243.988 171.663 243.988 162.436C242.327 169.82 237.435 182.281 237.435 182.281L230.454 191.256Z" fill="#04306B"/>
<path d="M241.772 210.754C241.772 210.754 255.247 202.495 255.247 186.434C256.909 193.449 255.063 206.092 241.772 210.754Z" fill="#04306B"/>
<path d="M213.62 178.339L212.976 178.197C215.667 165.985 218.392 151.354 218.42 151.208L219.068 151.328C219.041 151.475 216.313 166.116 213.62 178.339Z" fill="#04306B"/>
<path d="M124.245 248.549C124.13 246.027 125.87 229.474 126.635 226.14C127.266 223.39 129.133 216.239 130.418 211.654C130.9 209.929 133.48 195.815 133.824 194.439C136.464 194.19 137.838 193.34 137.838 193.34C136.523 199.445 135.145 210.005 134.025 213.546C133.229 216.064 132.089 220.589 131.039 224.85C130.286 227.901 129.757 245.601 129.85 247.67L124.245 248.549Z" fill="#2D493C"/>
<path d="M186.375 83.5442C184.623 87.3986 180.601 90.8834 174.08 94.1972C170.384 96.0756 164.297 100.475 160.001 103.709C160.684 101.672 161.403 99.6587 162.113 97.6741C165.058 89.4525 168.103 80.9517 168.167 71.6081L164.208 71.581C164.148 80.2508 161.348 88.0658 158.385 96.3389C156.637 101.22 154.829 106.268 153.614 111.541C152.518 116.297 151.516 121.167 150.551 125.962C150.131 122.994 149.575 120.195 148.874 117.902C147.398 113.075 140.365 101.921 139.456 100.486C135.598 94.3946 132.657 80.2567 130.637 76.5535L127.16 78.4496C128.965 81.7569 132.766 96.8986 136.045 102.498C139.172 107.838 143.768 114.746 145.087 119.06C146.819 124.724 147.6 133.828 147.613 140.427C145.284 151.443 142.777 161.786 138.706 172.071C138.706 172.071 140.436 173.208 141.802 174.651C142.381 173.812 144.252 168.706 145.162 165.894C155.618 160.284 170.188 145.426 171.702 143.239L169.358 140.985C168.075 142.838 154.298 157.333 146.707 160.849C149.623 150.773 151.702 140.385 153.733 130.234C154.907 124.363 156.123 118.291 157.472 112.43C157.643 111.689 157.83 110.951 158.025 110.215C160.442 108.327 170.833 100.29 175.875 97.7269C183.227 93.9907 187.841 89.8874 189.981 85.183L186.375 83.5442Z" fill="#2D493C"/>
<path d="M132.826 80.0632C130.811 83.8371 122.847 89.8986 116.842 83.8939C106.692 89.8444 95.1055 80.7404 97.89 72.5247C93.0958 69.1739 93.2291 58.3756 100.213 56.8101C100.213 50.4497 108.379 36.9085 124.36 45.1156C132.031 37.4444 144.073 42.7818 142.908 53.8612C153.025 57.1447 151.32 72.5247 141.141 73.4302C143.035 78.5598 137.674 81.4327 132.826 80.0632Z" fill="#42BD7C"/>
<path d="M108.938 74.8294C108.938 74.8294 115.66 81.3469 123.167 73.8394C120.692 78.7894 113.519 81.2644 108.938 74.8294Z" fill="#359567"/>
<path d="M125.312 67.5695C125.312 67.5695 134.058 72.0245 139.173 65.2595C138.183 69.0545 131.005 73.262 125.312 67.5695Z" fill="#359567"/>
<path d="M101.057 63.9686C101.057 63.9686 100.046 58.6596 107.152 55.5246C102.377 55.5246 99.5724 60.5333 101.057 63.9686Z" fill="#359567"/>
<path d="M113.128 60.8044C113.128 60.8044 113.685 53.8744 122.139 55.5244C118.053 53.5444 113.128 54.3694 113.128 60.8044Z" fill="#359567"/>
<path d="M143.297 59.7465C143.297 59.7465 142.307 53.8744 134.387 53.8744C137.852 52.5544 143.297 53.7391 143.297 59.7465Z" fill="#359567"/>
<path d="M97.8901 72.5247C97.8901 72.5247 101.144 65.5418 108.939 70.3506C107.327 67.0744 99.3421 66.2606 97.8901 72.5247Z" fill="#359567"/>
<path d="M124.36 45.1156C124.36 45.1156 120.212 50.3276 128.612 52.2245C125.147 52.2245 119.188 50.2874 124.36 45.1156Z" fill="#359567"/>
<path d="M165.5 99.0185C168.378 93.5874 182.332 93.5874 183.672 102.157C197.083 99.2 206.676 113.477 200.629 121.598C204.748 127.044 196.497 139.09 188.178 138.317C186.993 145.148 167.718 154.579 163.318 142.343C152.04 148.102 141.1 138.941 146.378 127.057C135.913 121.15 141.852 103.429 152.925 105.038C152.666 98.6608 161.595 95.1133 165.5 99.0185Z" fill="#42BD7C"/>
<path d="M152.925 105.038C152.925 105.038 162.227 107.63 156.805 115.32C161.282 112.449 160.737 105.038 152.925 105.038Z" fill="#359567"/>
<path d="M146.378 127.057C146.378 127.057 150.608 121.889 156.275 125.749C156.275 122.515 147.732 121.53 146.378 127.057Z" fill="#359567"/>
<path d="M156.275 135.795C156.275 135.795 159.656 129.477 167.234 133.915C164.913 130.27 157.868 130.431 156.275 135.795Z" fill="#359567"/>
<path d="M163.097 107.169C163.097 107.169 168.378 100.239 175.308 107.169C173.163 102.219 165.241 100.404 163.097 107.169Z" fill="#359567"/>
<path d="M163.318 142.343C163.318 142.343 165.973 134.752 174.482 138.19C172.695 136.402 164.198 134.387 163.318 142.343Z" fill="#359567"/>
<path d="M186.378 139.259C186.378 139.259 180.093 136.65 177.123 141.709C177.123 139.179 180.617 135.708 186.378 139.259Z" fill="#359567"/>
<path d="M179.543 69.1898C185.668 67.1953 185.866 58.2371 179.588 58.2721C180.938 54.6163 177.261 48.5655 172.589 50.4392C172.169 46.2535 164.865 44.7183 162.171 50.9778C157.938 49.9455 153.118 54.9358 155.26 58.4602C151.406 57.5203 148.022 64.2101 152.113 67.4197C149.95 70.3752 152.789 76.9527 158.155 75.0777C160.11 78.2958 164.799 79.8765 166.902 75.7126C169.474 79.9432 181.247 80.5108 179.543 69.1898Z" fill="#42BD7C"/>
<path d="M155.26 58.4601C155.26 58.4601 161.448 54.2044 164.253 60.8044C164.253 56.0194 159.278 54.442 155.26 58.4601Z" fill="#359567"/>
<path d="M179.543 69.1898C179.543 69.1898 178.663 61.615 172.578 64.1467C175.055 62.275 179.543 62.3298 179.543 69.1898Z" fill="#359567"/>
<path d="M166.903 75.7125C166.903 75.7125 164.894 69.1092 172.578 68.0295C168.158 67.6559 164.528 71.507 166.903 75.7125Z" fill="#359567"/>
<path d="M152.113 67.4196C152.113 67.4196 157.472 62.9052 159.625 71.507C159.625 66.9094 156.43 63.1032 152.113 67.4196Z" fill="#359567"/>
<path d="M179.588 58.2721C179.588 58.2721 175.748 53.1993 170.523 57.6893C172.578 54.6302 178.663 53.4752 179.588 58.2721Z" fill="#359567"/>
<path d="M185.239 85.5697C180.974 89.8339 188.709 95.2829 191.25 92.7425C193.127 95.5383 199.227 96.0267 200.28 91.8067C203.424 93.6309 208.197 89.2927 205.177 84.2358C209.411 82.3093 208.232 75.8914 204.677 75.6076C207.337 71.5202 200.082 62.1601 193.021 69.2215C189.262 66.9187 183.606 71.445 185.457 75.0268C181.192 74.6863 176.447 81.0315 185.239 85.5697Z" fill="#42BD7C"/>
<path d="M185.457 75.0268C185.457 75.0268 192.963 74.6968 190.983 80.7853C192.805 78.9624 192.873 73.6546 185.457 75.0268Z" fill="#359567"/>
<path d="M204.678 75.6076C204.678 75.6076 200.504 79.0667 198.053 74.8031C198.903 78.7895 202.863 79.1907 204.678 75.6076Z" fill="#359567"/>
<path d="M200.28 91.8066C200.28 91.8066 194.777 89.0195 199.232 84.5645C195.602 85.8845 195.552 90.4682 200.28 91.8066Z" fill="#359567"/>
<path d="M191.25 92.7426C191.25 92.7426 195.643 88.2922 191.25 86.4283C193.788 86.4283 196.138 90.525 191.25 92.7426Z" fill="#359567"/>
<path d="M195.603 82.5844C195.603 82.5844 201.708 78.9544 203.358 85.5544C203.358 82.0894 199.955 78.7406 195.603 82.5844Z" fill="#359567"/>
<path d="M115.147 244.028C116.548 240.795 120.734 245.598 127.238 245.598C133.742 245.598 136.523 244.678 136.523 247.843C136.523 251.008 131.816 282.324 125.835 282.324C119.854 282.324 117.362 281.319 112.655 279.426C107.947 277.533 106.061 279.011 108.527 273.842C110.993 268.673 111.546 252.335 115.147 244.028Z" fill="#6D4537"/>
<path d="M117.085 250.767C117.085 250.767 116.238 256.66 120.528 256.66C124.818 256.66 122.783 263.625 126.936 262.617C124.566 264.987 121.982 261.862 121.982 258.929C121.982 255.998 119.868 258.139 118.218 258.139C116.568 258.139 115.952 253.29 117.085 250.767Z" fill="#4E3028"/>
<path d="M123.992 249.567C123.992 249.567 127.127 252.965 128.447 257.205C128.447 254.185 128.612 249.567 123.992 249.567Z" fill="#4E3028"/>
<path d="M114.478 269.873C114.478 269.873 119.452 271.202 121.982 268.673C121.982 270.96 116.576 271.971 114.478 269.873Z" fill="#4E3028"/>
<path d="M128.448 265.142C128.448 265.142 127.458 270.849 123.993 272.829C120.528 274.809 118.768 277.56 115.468 275.25C117.118 278.22 119.868 276.019 122.618 274.809C125.368 273.6 128.448 271.315 128.448 265.142Z" fill="#4E3028"/>
<path d="M131.611 249.379C132.141 248.329 133.151 251.029 132.61 252.102C132.069 253.174 130.758 251.07 131.611 249.379Z" fill="#4E3028"/>
<path d="M115.635 266.818C116.233 267.347 114.697 268.358 114.087 267.817C113.477 267.276 114.674 265.965 115.635 266.818Z" fill="#4E3028"/>
<path d="M120.303 254.536C119.929 255.06 118.989 253.915 119.371 253.379C119.753 252.845 120.906 253.692 120.303 254.536Z" fill="#4E3028"/>
<path d="M118.106 247.536C117.732 248.06 116.793 246.915 117.174 246.38C117.556 245.845 118.709 246.692 118.106 247.536Z" fill="#4E3028"/>
<path d="M131.235 266.527C130.604 266.653 130.702 265.174 131.346 265.045C131.991 264.917 132.252 266.324 131.235 266.527Z" fill="#4E3028"/>
<path d="M129.57 268.62C129.05 268.724 129.131 267.506 129.662 267.399C130.193 267.293 130.408 268.453 129.57 268.62Z" fill="#4E3028"/>
<path d="M127.133 279.5C126.613 279.605 126.693 278.386 127.225 278.28C127.756 278.173 127.971 279.333 127.133 279.5Z" fill="#4E3028"/>
<path d="M125.66 277.346C125.14 277.45 125.221 276.231 125.752 276.125C126.283 276.019 126.498 277.179 125.66 277.346Z" fill="#4E3028"/>
<path d="M173.194 127.27C173.194 127.27 190.626 143.772 216.932 127.759C216.637 119.148 218.652 107.379 214.452 103.179C210.253 98.9801 206.699 95.888 198.669 95.888C190.639 95.888 187.316 95.888 182.332 98.3809C177.348 100.873 168.54 109.574 165.718 112.395C162.896 115.217 156.913 115.716 162.672 121.476C164.333 125.516 166.825 130.131 173.194 127.27Z" fill="#151515"/>
<path d="M173.194 127.27C173.194 127.27 178.64 126.624 188.146 117.116C191.285 120.255 198.022 120.855 203.006 120.855C202.084 118.502 201.574 114.907 204.483 113.517C208.546 111.58 215.19 117.394 213.345 123.486C215.462 125.604 220.82 132.911 229.866 134.387C220.729 137.977 218.744 151.268 218.744 151.268C218.744 151.268 213.232 147.02 207.509 145.174C204.484 149.145 202.315 150.207 200.1 150.207C197.883 150.207 194.385 147.86 191.931 146.007C191.146 147.115 189.096 150.972 186.993 146.468C184.062 140.192 184.466 137.943 183.301 136.777C181.363 134.839 176.24 132.162 173.194 127.27Z" fill="#F46B4A"/>
<path d="M213.345 123.486C213.345 123.486 213.376 123.759 213.238 124.133C213.211 124.231 213.158 124.322 213.105 124.423C213.048 124.52 213.003 124.638 212.917 124.727C212.837 124.821 212.76 124.926 212.669 125.021C212.585 125.123 212.47 125.193 212.368 125.278C212.259 125.354 212.149 125.428 212.041 125.502C211.927 125.564 211.801 125.601 211.687 125.649C211.575 125.696 211.46 125.73 211.353 125.764C211.248 125.801 211.136 125.795 211.039 125.806C210.646 125.836 210.391 125.793 210.391 125.793C210.391 125.793 210.607 125.616 210.92 125.446C210.997 125.398 211.086 125.366 211.169 125.306C211.25 125.248 211.336 125.184 211.427 125.129C211.519 125.074 211.609 125.011 211.707 124.96L211.969 124.753C212.059 124.686 212.163 124.636 212.236 124.553C212.314 124.475 212.403 124.411 212.484 124.341C212.57 124.277 212.636 124.199 212.71 124.131C212.776 124.06 212.861 124.003 212.916 123.935C213.165 123.684 213.345 123.486 213.345 123.486Z" fill="#9E4935"/>
<path d="M206.238 120.993C206.238 120.993 204.577 116.378 206.976 116.378C209.376 116.378 211.96 120.255 209.376 121.917C208.453 120.163 207.391 119.84 206.238 120.993Z" fill="#9E4935"/>
<path d="M207.509 145.174C207.509 145.174 207.583 145.032 207.711 144.785C207.85 144.549 208.006 144.184 208.222 143.768C208.331 143.561 208.425 143.323 208.546 143.084C208.658 142.841 208.789 142.592 208.9 142.322C209.019 142.054 209.131 141.776 209.263 141.5C209.4 141.226 209.499 140.931 209.612 140.643C209.854 140.07 210.084 139.494 210.266 138.94C210.36 138.664 210.462 138.4 210.558 138.149C210.66 137.9 210.722 137.654 210.795 137.431C210.93 136.983 211.072 136.612 211.159 136.349C211.251 136.087 211.314 135.938 211.314 135.938C211.314 135.938 211.309 136.097 211.285 136.373C211.254 136.648 211.229 137.046 211.163 137.52C211.13 137.758 211.109 138.019 211.031 138.281C210.967 138.547 210.9 138.828 210.82 139.115C210.735 139.402 210.675 139.708 210.564 140.002C210.451 140.295 210.337 140.593 210.223 140.891C210.099 141.185 209.989 141.485 209.842 141.763C209.705 142.046 209.554 142.317 209.418 142.583C209.29 142.852 209.118 143.089 208.975 143.322C208.826 143.553 208.691 143.773 208.545 143.964C208.26 144.349 208.002 144.653 207.815 144.86C207.63 145.07 207.509 145.174 207.509 145.174Z" fill="#9E4935"/>
<path d="M196.73 147.115C196.73 147.115 196.972 146.809 197.233 146.341C197.299 146.226 197.361 146.096 197.423 145.961C197.491 145.829 197.529 145.677 197.588 145.531C197.672 145.229 197.734 144.907 197.718 144.582C197.718 144.42 197.689 144.257 197.668 144.097C197.614 143.943 197.598 143.78 197.542 143.63C197.477 143.483 197.425 143.336 197.374 143.194C197.3 143.062 197.236 142.932 197.177 142.81C197.068 142.559 196.924 142.378 196.853 142.227C196.773 142.081 196.73 141.992 196.73 141.992C196.73 141.992 196.812 142.041 196.949 142.138C197.078 142.242 197.297 142.363 197.484 142.586C197.583 142.693 197.691 142.812 197.798 142.942C197.888 143.085 197.987 143.239 198.077 143.404C198.159 143.572 198.226 143.761 198.289 143.952C198.325 144.151 198.371 144.357 198.377 144.564C198.369 144.774 198.367 144.982 198.314 145.182C198.287 145.386 198.195 145.567 198.127 145.745C197.955 146.087 197.749 146.374 197.53 146.574C197.109 146.989 196.73 147.115 196.73 147.115Z" fill="#9E4935"/>
<path d="M182.332 133.172C182.332 133.172 182.175 132.63 182.3 131.813C182.343 131.612 182.37 131.385 182.453 131.161C182.521 130.931 182.619 130.694 182.746 130.458C182.86 130.217 183.035 129.99 183.206 129.761C183.408 129.55 183.601 129.322 183.857 129.156C183.982 129.072 184.102 128.98 184.233 128.907C184.368 128.84 184.508 128.782 184.644 128.722C184.909 128.583 185.21 128.569 185.478 128.508C185.751 128.462 186.017 128.498 186.262 128.502C186.509 128.503 186.728 128.598 186.93 128.644C187.338 128.732 187.63 128.936 187.836 129.049C188.04 129.173 188.147 129.254 188.147 129.254C188.147 129.254 188.006 129.279 187.774 129.305C187.659 129.315 187.521 129.332 187.369 129.336C187.216 129.334 187.044 129.376 186.865 129.4C186.687 129.438 186.492 129.431 186.303 129.495C186.114 129.556 185.911 129.576 185.723 129.652C185.54 129.744 185.333 129.774 185.161 129.894C185.072 129.943 184.984 129.995 184.89 130.038C184.802 130.091 184.723 130.162 184.638 130.221C184.456 130.322 184.32 130.493 184.153 130.621C184.013 130.782 183.852 130.924 183.724 131.094C183.589 131.258 183.458 131.422 183.344 131.591C183.218 131.752 183.119 131.922 183.008 132.072C182.603 132.732 182.332 133.172 182.332 133.172Z" fill="#342C2A"/>
<path d="M188.669 133.414C189.313 133.975 189.454 134.866 188.985 135.404C188.516 135.942 187.613 135.922 186.97 135.361C186.327 134.799 186.186 133.909 186.655 133.371C187.124 132.834 188.026 132.852 188.669 133.414Z" fill="#342C2A"/>
<path d="M163.097 122.47C163.097 122.47 163.178 122.468 163.33 122.465C163.48 122.443 163.699 122.411 163.977 122.371C164.253 122.338 164.579 122.212 164.955 122.115C165.335 122.031 165.738 121.847 166.182 121.665C166.404 121.575 166.635 121.481 166.873 121.383C166.993 121.334 167.114 121.284 167.237 121.234C167.354 121.169 167.473 121.102 167.593 121.035C168.075 120.767 168.58 120.482 169.11 120.203C169.653 119.95 170.138 119.549 170.672 119.215C171.198 118.867 171.732 118.513 172.267 118.159C172.8 117.804 173.285 117.378 173.79 116.997C174.291 116.611 174.784 116.231 175.262 115.863C175.502 115.681 175.739 115.501 175.97 115.326C176.197 115.144 176.406 114.951 176.617 114.771C177.035 114.409 177.431 114.064 177.796 113.748C178.522 113.109 179.158 112.607 179.591 112.24C180.033 111.883 180.285 111.679 180.285 111.679C180.285 111.679 180.066 111.916 179.68 112.331C179.285 112.737 178.738 113.336 178.047 114.022C177.702 114.365 177.33 114.739 176.935 115.133C176.736 115.328 176.539 115.538 176.323 115.736C176.098 115.924 175.867 116.116 175.634 116.31C175.162 116.697 174.673 117.096 174.178 117.501C173.672 117.893 173.187 118.33 172.648 118.697C172.101 119.051 171.552 119.404 171.013 119.753C170.466 120.092 169.956 120.464 169.389 120.711C168.84 120.985 168.3 121.233 167.793 121.471C167.665 121.53 167.541 121.589 167.417 121.647C167.287 121.69 167.159 121.732 167.033 121.775C166.781 121.857 166.538 121.938 166.305 122.014C166.072 122.09 165.848 122.163 165.636 122.231C165.425 122.303 165.206 122.312 165.011 122.353C164.614 122.408 164.28 122.497 163.99 122.498C163.701 122.505 163.478 122.506 163.327 122.5C163.177 122.48 163.097 122.47 163.097 122.47Z" fill="#645550"/>
<path d="M280.731 250.951C280.731 250.951 277.46 260.444 268.574 265.113C265.225 270.888 262.098 277.985 259.41 278.918C256.794 279.827 250.878 280.856 250.878 287.502C261.954 287.502 268.271 287.502 268.271 287.502C268.271 287.502 281.898 278.755 293.567 264.897C292.252 258.185 287.673 252.575 280.731 250.951Z" fill="#212529"/>
<path d="M267.213 276.417C267.128 276.417 267.044 276.385 266.98 276.321C265.923 275.264 263.748 275.665 263.728 275.669C263.545 275.703 263.375 275.587 263.341 275.407C263.307 275.228 263.424 275.056 263.603 275.021C263.707 275 266.142 274.549 267.446 275.854C267.575 275.983 267.575 276.192 267.446 276.321C267.382 276.385 267.297 276.417 267.213 276.417Z" fill="white"/>
<path d="M269.523 272.21C269.438 272.21 269.354 272.178 269.29 272.113C268.047 270.871 266.006 271.449 265.986 271.454C265.808 271.505 265.628 271.405 265.577 271.23C265.525 271.056 265.625 270.873 265.8 270.821C265.898 270.793 268.232 270.122 269.756 271.647C269.885 271.775 269.885 271.985 269.756 272.113C269.692 272.178 269.607 272.21 269.523 272.21Z" fill="white"/>
<path d="M272.245 267.672C272.161 267.672 272.076 267.64 272.012 267.576C270.773 266.336 268.665 267.068 268.644 267.076C268.472 267.137 268.283 267.048 268.222 266.876C268.161 266.705 268.251 266.516 268.422 266.455C268.525 266.417 270.946 265.576 272.479 267.109C272.608 267.238 272.608 267.447 272.479 267.576C272.414 267.64 272.33 267.672 272.245 267.672Z" fill="white"/>
<path d="M177.816 232.583C177.816 232.583 201.39 225.679 223.821 220.704C227.196 213.725 233.337 196.347 237.435 182.281C232.067 179.022 219.527 176.427 213.298 178.268C208.776 196.245 207.837 207.165 204.237 215.786C192.331 222.746 185.94 226.751 177.816 232.583Z" fill="#F46B4A"/>
<path d="M50.6289 287.502C50.6289 287.502 61.1892 283.072 68.2772 281.779C75.3656 280.487 73.7638 275.483 80.2873 277.709C86.81 279.933 85.8874 282.324 91.7944 282.324C97.702 282.324 102.686 280.1 107.486 282.324C112.285 284.548 124.709 285.84 129.85 283.995C134.991 282.148 140.529 282.312 144.959 284.907C149.39 287.502 156.035 281.78 164.158 287.502C159.358 287.502 50.6289 287.502 50.6289 287.502Z" fill="#6D4537"/>
<path d="M72.8425 284.875C72.8425 284.875 78.2875 280.585 84.0625 283.39C82.495 281.822 76.4725 279.76 72.8425 284.875Z" fill="#4E3028"/>
<path d="M95.4475 284.875C95.4475 284.875 103.698 283.225 108.648 284.875C106.998 283.225 99.7375 282.246 95.4475 284.875Z" fill="#4E3028"/>
<path d="M30.438 287.502C30.438 287.502 34.552 287.433 41.7518 287.311C45.3517 287.262 49.7232 287.203 54.7373 287.136C59.7516 287.066 65.4082 286.986 71.5794 286.948C77.7511 286.896 84.4362 286.841 91.5075 286.784C98.5787 286.728 106.036 286.648 113.75 286.645C129.178 286.603 145.635 286.558 162.091 286.513C178.548 286.558 195.005 286.602 210.433 286.644C218.148 286.646 225.604 286.722 232.675 286.781C239.746 286.839 246.432 286.894 252.604 286.946C258.775 286.984 264.431 287.062 269.445 287.134C274.46 287.202 278.831 287.26 282.431 287.309C289.631 287.432 293.745 287.502 293.745 287.502C293.745 287.502 289.631 287.573 282.431 287.695C278.831 287.744 274.46 287.802 269.445 287.871C264.431 287.942 258.775 288.021 252.604 288.059C246.432 288.11 239.746 288.166 232.675 288.224C225.604 288.283 218.148 288.357 210.433 288.361C195.005 288.403 178.548 288.447 162.091 288.491C145.635 288.446 129.178 288.401 113.75 288.359C106.036 288.356 98.5787 288.277 91.5075 288.221C84.4362 288.162 77.7511 288.108 71.5794 288.057C65.4082 288.019 59.7516 287.939 54.7373 287.869C49.7232 287.801 45.3517 287.743 41.7518 287.693C34.552 287.572 30.438 287.502 30.438 287.502Z" fill="#6D4537"/>
</svg>
