<svg width="331" height="314" viewBox="0 0 331 314" fill="none" xmlns="http://www.w3.org/2000/svg">
<path d="M303.777 249.164L303.757 249.179C296.27 253.88 285.986 257.495 272.122 259.354C266.192 260.152 246.735 261.07 234.448 271.497C226.946 277.864 217.525 288.782 190.556 293.18C138.254 301.699 68.9153 271.596 57.2233 227.61C54.3276 216.721 53.1772 208.713 52.9243 202.332C52.6566 195.588 53.3954 190.67 54.1441 186.113C54.4862 184.02 54.8333 182.002 55.0862 179.92C55.8696 173.479 55.7655 166.413 51.9326 154.537C50.8467 151.171 49.9939 147.992 49.3642 144.973C46.8304 132.978 47.708 123.557 50.8467 115.385C52.8747 110.1 55.8498 105.345 59.4645 100.753C59.8265 100.292 60.1934 99.8358 60.5554 99.3895C83.0816 71.7263 105.876 72.8172 133.782 87.3653C150.933 96.3004 164.053 99.2358 182.241 92.2345C200.775 85.1042 221.402 82.7638 237.463 88.3223C241.107 89.5867 244.519 91.2527 247.618 93.3749C255.988 99.0771 262.067 108.027 264.328 120.934C273.451 173.057 304.263 163.254 317.864 199.203C317.958 199.456 318.052 199.709 318.147 199.967C319.277 203.066 320.204 206.398 320.785 209.849C323.095 223.46 320.115 238.895 303.777 249.164Z" fill="#9BC1F5"/>
<path d="M330.5 155.457C330.5 163.555 323.936 170.119 315.838 170.119C307.74 170.119 301.176 163.555 301.176 155.457C301.176 147.36 307.74 140.795 315.838 140.795C323.936 140.795 330.5 147.36 330.5 155.457Z" fill="#4A80CA"/>
<path d="M132.703 303.074C132.703 308.892 127.987 313.608 122.169 313.608C116.351 313.608 111.635 308.892 111.635 303.074C111.635 297.256 116.351 292.54 122.169 292.54C127.987 292.54 132.703 297.256 132.703 303.074Z" fill="#85CBF0"/>
<path d="M42.257 153.406C42.257 156.247 39.9538 158.55 37.1131 158.55C34.2719 158.55 31.9692 156.247 31.9692 153.406C31.9692 150.566 34.2719 148.262 37.1131 148.262C39.9538 148.262 42.257 150.566 42.257 153.406Z" fill="#85CBF0"/>
<path d="M321.662 115.897C321.662 119.114 319.054 121.721 315.838 121.721C312.621 121.721 310.014 119.114 310.014 115.897C310.014 112.681 312.621 110.074 315.838 110.074C319.054 110.074 321.662 112.681 321.662 115.897Z" fill="#85CBF0"/>
<path d="M289.527 284.136C289.527 288.653 285.865 292.315 281.348 292.315C276.831 292.315 273.168 288.653 273.168 284.136C273.168 279.618 276.831 275.956 281.348 275.956C285.865 275.956 289.527 279.618 289.527 284.136Z" fill="#4A80CA"/>
<path d="M205.841 61.73C205.841 66.8491 201.691 70.9988 196.572 70.9988C191.453 70.9988 187.303 66.8491 187.303 61.73C187.303 56.6114 191.453 52.4616 196.572 52.4616C201.691 52.4616 205.841 56.6114 205.841 61.73Z" fill="#85CBF0"/>
<path d="M59.9602 167.69C59.0127 167.621 58.1876 167.88 57.3863 168.113C57.0358 168.215 56.8538 168.736 57.0006 169.071C57.8098 170.911 59.0147 172.939 59.0147 172.939C59.2363 173.357 59.5294 173.252 59.6632 172.798C59.6632 172.798 60.3282 170.022 60.463 168.675C60.5017 168.292 60.344 167.718 59.9602 167.69Z" fill="white"/>
<path d="M68.2622 169.081C67.1663 168.213 65.9471 167.846 64.7788 167.467C64.2681 167.302 63.6151 167.786 63.5179 168.314C62.9814 171.225 62.7717 174.689 62.7717 174.689C62.6958 175.382 63.1396 175.497 63.6781 175.054C63.6781 175.054 66.783 172.223 68.0603 170.696C68.4243 170.261 68.7069 169.432 68.2622 169.081Z" fill="white"/>
<path d="M47.8874 131.571C47.4828 131.301 47.0702 131.037 46.6517 130.781L46.6121 130.761C47.1932 127.128 48.1333 123.759 49.2088 120.59C48.3669 123.994 47.9042 127.628 47.8874 131.571ZM87.8158 79.0806C91.8966 77.7864 96.0423 77.1795 100.279 77.1795C101.692 77.1795 103.113 77.2469 104.547 77.3788C104.554 77.4225 104.561 77.4656 104.569 77.5092C103.022 77.3565 101.488 77.2782 99.9659 77.2782C95.8375 77.2782 91.7954 77.8543 87.8158 79.0806Z" fill="#C6CBCA"/>
<path d="M80.0152 164.987C70.8515 164.987 66.7325 157.281 63.9419 148.959L63.9022 148.939C62.6775 147.239 56.9902 137.65 47.8875 131.571C47.9043 127.628 48.3669 123.994 49.2089 120.59C49.8664 118.651 50.5749 116.787 51.283 114.984C53.306 109.817 56.2414 105.156 59.7867 100.654C68.9856 88.9677 78.2198 82.1241 87.8158 79.0806C91.7955 77.8544 95.8376 77.2782 99.966 77.2782C101.488 77.2782 103.022 77.3566 104.569 77.5093C106.361 88.1694 103.92 99.8233 99.9105 108.89C95.3438 119.208 94.7934 126.765 94.4364 131.57C94.0744 136.374 94.6992 138.74 94.8529 139.617L94.838 139.652C97.7883 149.683 99.0725 160.145 86.1905 163.993C83.9081 164.675 81.8588 164.987 80.0152 164.987Z" fill="#3569BC"/>
<path d="M63.0383 197.435C62.8548 198.863 61.5161 199.577 60.088 199.24C58.2435 198.794 55.2188 195.244 53.8206 194.019C53.176 193.454 52.5611 192.814 51.9711 192.14C51.8818 192.036 51.7926 191.931 51.7033 191.827C51.0537 191.074 50.429 190.295 49.8092 189.532C49.7051 189.408 49.6009 189.279 49.4968 189.155C49.1943 188.788 48.8919 188.431 48.5894 188.089C47.3448 186.675 45.3069 184.662 44.9251 183.492C44.1367 181.077 45.897 180.477 46.5664 180.572C48.0688 180.785 49.1795 181.588 50.2802 182.505C50.3744 182.585 50.4637 182.664 50.5579 182.743C51.8223 183.805 52.8041 184.677 53.7412 185.644C54.5098 186.442 55.2486 187.31 56.0767 188.406C57.0882 189.74 58.5856 192.675 59.8649 193.736C60.7277 194.45 63.1871 196.255 63.0383 197.435Z" fill="#F68270"/>
<path d="M53.4043 185.366C53.3448 188.039 52.3432 191.45 51.7036 191.827C51.054 191.074 50.4293 190.295 49.8095 189.532C49.7053 189.408 49.6012 189.279 49.4971 189.155C50.0326 187.479 50.3499 185.198 50.216 182.461C51.4804 183.527 52.4672 184.4 53.4043 185.366Z" fill="#F2585B"/>
<path d="M100.315 269.025C102.948 278.903 112.234 283.548 119.121 276.343C120.009 275.411 122.564 271.683 123.288 270.443C125.534 266.591 132.168 253.6 138.55 238.496C142.938 228.108 147.207 216.724 149.845 206.623C151.536 200.152 154.238 186.317 144.41 182.667C133.997 178.8 126.535 191.609 124.845 197.901C113.981 238.357 97.7268 259.327 100.315 269.025Z" fill="#363250"/>
<path d="M121.28 269.937C121.305 271.012 122.721 271.408 123.266 270.481L123.288 270.443C125.534 266.591 132.168 253.6 138.55 238.496C135.837 221.657 129.428 201.066 129.428 201.066C114.637 212.899 129.481 244.977 127.001 248.944C124.522 252.91 120.377 248.72 120.308 256.713C120.261 261.847 121.198 266.383 121.28 269.937Z" fill="#2A2842"/>
<path d="M218.918 210.121C218.01 216.488 213.672 222.86 212.645 231.225C211.51 240.512 210.231 250.498 208.644 259.994C206.963 270.094 204.568 282.465 202.005 290.027C202.005 290.027 201.454 290.468 200.383 291.108L200.378 291.113C200.145 291.177 199.912 291.237 199.674 291.296C196.942 291.995 194.017 292.6 190.873 293.076C182.354 294.38 173.583 294.871 164.722 294.509C161.792 294.39 158.846 294.177 155.901 293.87C154.136 293.686 152.366 293.468 150.6 293.21C143.902 292.199 138.14 290.895 133.583 289.68C133.211 289.581 132.849 289.481 132.492 289.382C126.463 287.721 122.282 285.71 122.282 285.71C133.156 255.637 128.124 224.942 127.063 204.509C126.78 199.054 128.838 186.643 137.084 182.503C149.926 176.057 155.445 173.865 171.475 171.971C183.004 170.613 200.611 180.748 207.206 185.185C209.398 186.658 213.429 190.342 214.708 191.983C217.867 196.015 220.103 201.786 218.918 210.121Z" fill="#363250"/>
<path d="M133.259 121.33C133.296 134.067 146.06 138.914 146.06 138.914L146.055 117.051L133.259 121.33Z" fill="#29273A"/>
<path d="M161.515 165.355C161.515 165.355 162.404 168.669 162.574 169.518C162.733 170.317 162.775 171.332 162.793 172.096C162.902 175.147 162.051 177.698 160.738 180.263C158.343 184.942 167.936 188.028 176.667 185.975C185.398 183.922 185.56 178.288 185.083 175.43C184.862 174.102 182.722 162.689 186.773 153.834C187.27 152.748 181.973 154.106 181.048 153.834C177.442 152.772 166.873 160.395 162.416 162.666C161.077 163.345 161.238 164.634 161.515 165.355Z" fill="#F2585B"/>
<path d="M157.633 164.561C157.894 165.036 158.131 165.513 158.338 165.977L158.343 165.982C158.439 166.022 158.53 166.056 158.621 166.095C158.904 166.203 159.183 166.306 159.467 166.404C159.823 166.524 160.181 166.639 160.539 166.74C160.743 166.8 160.946 166.86 161.15 166.91C161.214 166.927 161.272 166.943 161.335 166.959C161.49 166.999 161.641 167.039 161.797 167.075C162.146 167.967 162.403 168.834 162.573 169.684C162.732 170.482 162.824 171.259 162.843 172.023C163.389 172.242 163.969 172.414 164.579 172.545C170.049 173.709 175.314 170.737 177.391 166.006C177.422 165.944 177.449 165.877 177.476 165.81C177.881 164.839 178.154 163.8 178.268 162.71C178.372 161.723 178.493 160.61 178.636 159.328C175.842 160.763 169.847 163.553 164.13 164.268C162.788 164.433 161.622 164.531 160.601 164.574C159.42 164.63 158.44 164.617 157.633 164.561Z" fill="#ED3049"/>
<path d="M192.468 131.999C192.461 132.071 192.454 132.137 192.443 132.21C191.919 136.97 190.867 141.528 189.673 145.316C189.566 145.654 189.448 145.984 189.332 146.304C186.695 153.558 183.662 160.08 176.628 163.954C175.24 164.719 173.774 165.348 172.262 165.834C171.121 166.203 169.955 166.492 168.776 166.692C168.483 166.743 168.193 166.784 167.903 166.824C167.731 166.847 167.563 166.868 167.395 166.886C167.227 166.908 167.054 166.925 166.885 166.938C166.787 166.951 166.692 166.959 166.592 166.963C166.497 166.972 166.403 166.979 166.309 166.987C166.144 166.998 165.979 167.005 165.814 167.016C164.323 167.084 162.832 167.021 161.359 166.813L161.27 166.799C161.115 166.779 160.959 166.758 160.798 166.734C160.726 166.727 160.648 166.717 160.575 166.7C159.274 166.47 157.987 166.13 156.737 165.667C156.525 165.587 156.313 165.506 156.104 165.42C154.532 164.776 153.185 163.984 152.019 163.066L151.953 163.008C149.384 160.954 147.721 158.274 146.597 155.273C144.356 149.28 144.244 141.992 143.313 135.773C142.876 132.858 142.191 130.041 141.67 127.258L141.66 127.21C140.919 123.227 140.523 119.335 141.659 115.377L141.665 115.356C142.007 114.159 142.498 112.95 143.16 111.738C146.478 105.651 152.786 101.068 159.578 99.971C167.439 98.7051 176.478 98.5921 183.325 103.27C192.069 109.241 193.642 121.112 192.468 131.999Z" fill="#F68270"/>
<path d="M159.714 133.036C159.664 132.679 159.136 132.66 159.058 133.013C158.709 134.598 157.794 136.581 156.677 138.581C154.961 141.656 156.47 143.596 159.824 143.81C162.207 143.961 161.779 142.326 160.301 142.478C158.248 142.689 156.471 141.173 158.086 138.588C159.45 136.404 159.918 134.493 159.714 133.036Z" fill="#F2585B"/>
<path d="M155.937 151.117C156.016 151.551 156.137 151.952 156.449 152.291L156.573 152.414C157.142 152.956 157.864 153.559 158.937 153.808C160.949 154.272 163.739 154.007 165.821 153.331C165.983 153.28 166.138 153.22 166.293 153.16C167.532 152.671 168.363 151.947 168.904 151.106C169.341 150.437 169.594 149.702 169.726 148.965C169.787 148.62 169.821 148.275 169.837 147.934L169.835 147.899C169.886 146.588 169.634 145.36 169.425 144.591C169.318 144.197 168.871 144.003 168.518 144.208C168.429 144.26 168.337 144.311 168.241 144.363C165.077 146.007 158.54 146.727 154.729 146.33C154.338 146.294 153.999 146.178 153.844 146.358C153.454 146.817 155.178 146.956 155.937 151.117Z" fill="#29273A"/>
<path d="M155.326 232.496C161.368 231.923 164.48 228.687 167.04 225.803C193.793 195.666 184.839 172.878 184.829 173.011C168.166 183.749 162.37 180.795 160.365 171.232C155.078 176.528 151.805 175.04 149.481 199.815C148.713 207.997 152.475 232.767 155.326 232.496Z" fill="#D5E3E3"/>
<path d="M107.663 244.341C118.933 247.025 121.438 251.645 118.182 253.955C114.926 256.264 107.663 244.341 107.663 244.341Z" fill="#2A2842"/>
<path d="M210.179 194.113C202.036 196.271 183.702 205.889 201.518 244.341L210.179 194.113Z" fill="#2A2842"/>
<path d="M236.565 269.975C235.95 270.426 235.35 270.897 234.77 271.393C229.713 275.687 222.895 282.312 211.312 287.344C210.781 279.738 209.849 267.282 208.644 260.489C205.967 245.426 202.233 230.997 199.997 220.966C198.831 215.769 198.073 211.753 198.073 209.442C198.073 203.056 198.712 194.899 204.663 191.661C206.259 190.793 210.196 190.625 211.728 190.962C213.275 191.294 214.733 191.627 215.908 193.055C226.708 206.199 233.734 241.856 236.565 269.975Z" fill="#363250"/>
<path d="M195.357 292.283C195.46 292.263 195.56 292.24 195.663 292.219C196.241 292.1 196.81 291.976 197.372 291.849C197.496 291.821 197.619 291.794 197.741 291.765C199.261 291.414 200.727 291.036 202.134 290.632C205.902 282.768 206.973 270.52 208.644 260.489C205.967 245.426 202.233 230.997 199.997 220.966C197.394 228.101 197.706 233.53 200.265 239.976C201.929 244.169 203.154 252.736 203.09 261.277C192.502 272.947 177.111 263.239 177.411 275.057C177.658 284.624 183.159 288.355 185.98 289.645C185.771 289.716 185.563 289.789 185.351 289.859C181.552 289.28 173.102 288.233 160.885 288.118C146.495 287.976 151.742 291.386 161.282 293.744C159.138 293.8 157.024 293.783 154.974 293.691C155.282 293.751 155.589 293.81 155.901 293.87C158.845 294.177 161.786 294.389 164.717 294.508L164.722 294.509L164.765 294.51C165.717 294.549 166.668 294.574 167.618 294.593C167.908 294.599 168.199 294.604 168.489 294.608C169.345 294.619 170.2 294.624 171.054 294.62C171.219 294.619 171.385 294.619 171.55 294.617C172.435 294.61 173.319 294.592 174.201 294.567C174.501 294.559 174.8 294.549 175.099 294.539C175.955 294.51 176.81 294.474 177.662 294.429C177.815 294.421 177.967 294.413 178.119 294.405C179.006 294.355 179.891 294.293 180.774 294.226C181.053 294.205 181.332 294.183 181.61 294.16C182.511 294.086 183.41 294.006 184.306 293.913C184.381 293.906 184.457 293.898 184.532 293.891C185.455 293.794 186.374 293.686 187.293 293.571C187.541 293.539 187.789 293.508 188.038 293.475C188.985 293.351 189.931 293.22 190.873 293.076C191.549 292.974 192.21 292.863 192.866 292.749C193.077 292.712 193.288 292.675 193.497 292.638C194.125 292.523 194.747 292.406 195.357 292.283Z" fill="#2A2842"/>
<path d="M171.751 185.188C168.451 190.725 166.626 191.386 166.626 191.386C166.626 191.386 162.837 191.248 162.33 190.601C161.245 187.104 160.716 183.846 162.368 181.449C164.022 179.052 167.847 180.15 167.847 180.15C167.847 180.15 173.043 183.021 171.751 185.188Z" fill="#ED3049"/>
<path d="M167.35 190.394C166.144 200.769 166.008 219.36 168.157 225.723C168.157 225.723 160.086 234.412 155.458 233.161C150.83 231.91 149.728 222.004 149.728 222.004C149.728 222.004 157.875 195.174 162.793 188.907C164.421 186.832 167.209 189.259 167.35 190.394Z" fill="#ED3049"/>
<path d="M155.972 188.009C157 189.031 161.584 182.285 163.487 181.097C165.329 179.949 167.74 179.371 169.396 181.779C172.017 185.321 172.777 190.684 175.408 190.946C177.193 191.128 180.414 189.748 182.301 187.764C185.341 184.57 186.379 175.858 186.379 173.168C186.298 171.881 184.745 169.771 184.398 169.51C181.634 174.711 173.859 178.907 167.475 178.742C164.884 178.371 162.475 176.469 162.85 172.543C162.929 171.655 162.724 170.077 162.551 169.514C161.786 169.334 159.522 172.188 159.088 172.843C156.793 176.304 151.907 183.969 155.972 188.009Z" fill="white"/>
<path d="M141.089 190.972C139.071 213.336 148.734 227.703 154.416 233.653C155.132 234.403 156.632 233.868 156.215 231.954C155.827 230.171 147.567 212.748 152.601 189.074C153.29 185.835 155.579 173.67 162.793 170.778C162.793 170.281 162.644 169.806 162.506 169.371C162.339 169.05 147.744 173.145 143.116 185.477C142.517 187.075 144.644 186.897 145.348 186.923C145.711 186.937 141.257 189.113 141.089 190.972Z" fill="#2A2842"/>
<path d="M150.967 243.821C150.967 245.465 152.299 246.797 153.942 246.797C155.585 246.797 156.917 245.465 156.917 243.821C156.917 242.178 155.585 240.846 153.942 240.846C152.299 240.846 150.967 242.178 150.967 243.821Z" fill="#2A2842"/>
<path d="M147.991 264.151C147.991 265.794 149.324 267.126 150.967 267.126C152.61 267.126 153.942 265.794 153.942 264.151C153.942 262.508 152.61 261.176 150.967 261.176C149.324 261.176 147.991 262.508 147.991 264.151Z" fill="#2A2842"/>
<path d="M150.471 242.83C150.471 244.473 151.803 245.805 153.446 245.805C155.089 245.805 156.421 244.473 156.421 242.83C156.421 241.187 155.089 239.855 153.446 239.855C151.803 239.855 150.471 241.187 150.471 242.83Z" fill="white"/>
<path d="M147.496 263.16C147.496 264.803 148.828 266.135 150.471 266.135C152.114 266.135 153.446 264.803 153.446 263.16C153.446 261.516 152.114 260.185 150.471 260.185C148.828 260.185 147.496 261.516 147.496 263.16Z" fill="white"/>
<path d="M192.209 125.92C192.32 127.978 192.417 130.019 192.442 132.049C192.443 132.105 192.442 132.155 192.443 132.21C192.492 137.088 192.102 141.888 190.387 146.623C188.025 153.142 184.806 159.437 178.631 163.076C176.617 164.264 174.465 165.211 172.236 165.884C171.1 166.227 169.946 166.499 168.776 166.692C168.483 166.743 168.193 166.784 167.903 166.824C167.731 166.847 167.563 166.868 167.395 166.886C167.227 166.908 167.054 166.925 166.885 166.938C166.787 166.951 166.692 166.959 166.592 166.963C166.497 166.972 166.403 166.979 166.309 166.987C166.144 166.998 165.979 167.005 165.814 167.016C164.323 167.084 162.832 167.021 161.359 166.813L161.27 166.799C161.115 166.779 160.959 166.758 160.798 166.734C160.726 166.727 160.648 166.717 160.575 166.7C159.274 166.47 157.987 166.13 156.737 165.667C156.525 165.587 156.313 165.506 156.104 165.42C154.619 164.812 153.333 164.07 152.213 163.216C152.002 163.055 151.87 162.802 151.88 162.537C151.909 161.775 152.624 161.084 153.511 161.387C156.652 162.452 160.007 162.992 163.327 162.772C169.662 162.348 176.777 159.746 180.483 154.625C182.842 151.362 184.629 148.163 186.153 139.527C186.598 137.019 186.699 134.329 185.852 127.024C185.841 126.94 179.926 124.255 179.123 114.877C179.092 114.534 178.738 114.32 178.428 114.465C173.106 116.967 162.672 116.998 157.062 115.935C156.805 115.883 156.553 116.043 156.491 116.302C155.989 118.427 153.979 127.092 142.431 127.236L141.634 127.26C140.892 123.272 140.494 119.37 141.639 115.406L141.659 115.377C141.728 115.262 141.812 115.146 141.892 115.034C144.552 111.421 149.644 108.898 153.538 106.901C157.069 105.09 160.733 103.582 164.272 101.789C167.815 99.9914 173.305 100.794 177.077 101.567C180.825 102.34 184.276 104.124 186.729 107.027C191.136 112.252 191.854 119.364 192.209 125.92Z" fill="#F2585B"/>
<path d="M175.757 121.017C172.372 120.699 168.368 121.178 166.131 121.814C165.503 121.993 164.883 121.52 164.901 120.887C164.928 119.904 165.492 118.621 168.023 118.069C170.835 117.456 173.638 117.513 175.247 118.267C176.195 118.712 176.609 119.298 176.771 119.825C176.967 120.459 176.438 121.081 175.757 121.017Z" fill="#F2585B"/>
<path d="M175.571 120.043C172.186 119.726 168.182 120.204 165.945 120.841C165.316 121.02 164.697 120.546 164.715 119.913C164.741 118.931 165.305 117.646 167.836 117.096C170.648 116.483 173.452 116.539 175.06 117.293C176.009 117.738 176.423 118.324 176.585 118.851C176.78 119.485 176.252 120.107 175.571 120.043Z" fill="#29273A"/>
<path d="M126.496 116.576C127.291 118.862 128.628 120.939 130.202 122.466C131.547 123.774 133.284 124.855 135.165 124.849C135.332 124.847 135.503 124.845 135.674 124.842C135.84 124.836 136.01 124.828 136.18 124.821C142.863 124.472 149.965 121.035 152.691 114.803C152.801 114.56 153.074 114.034 153.391 113.423C153.981 112.285 154.736 110.848 154.903 110.372L154.912 110.34L155.027 110.47C155.3 110.786 155.605 111.086 155.947 111.374C156.513 111.847 157.163 112.267 157.874 112.631C158.838 113.128 159.874 113.536 160.96 113.853L161.03 113.876C165.569 115.198 179.69 110.291 180.808 108.956C181.654 112.391 181.975 115.378 183.535 117.968C184.843 120.136 186.411 123.112 188.866 124.147L188.944 124.183C189.793 125.255 186.98 132.535 188.294 134.652C191.658 140.069 199.17 139.822 204.411 137.699C208.226 136.154 212.92 132.874 212.713 128.441C212.614 126.349 212.318 124.848 211.451 123.242C210.801 122.033 209.798 120.907 208.369 119.933C206.942 118.964 206.399 117.099 207.031 115.494C212.062 102.755 204.63 85.482 181.268 89.1061C179.919 89.3134 178.548 88.7982 177.685 87.7415C168.236 76.2107 145.283 82.8961 146.848 96.0201C147.174 98.78 144.95 101.169 142.189 100.879C139.447 100.586 136.406 100.602 133.996 101.491C130.522 102.781 128.307 104.689 127.049 106.874C126.241 108.27 125.823 109.783 125.723 111.317C125.602 113.087 125.901 114.888 126.496 116.576Z" fill="#363250"/>
<path d="M152.393 124.467C148.994 124.478 145.054 125.342 142.89 126.192C142.282 126.431 141.62 126.02 141.576 125.388C141.507 124.407 141.945 123.075 144.41 122.281C147.149 121.4 149.945 121.185 151.619 121.779C152.607 122.13 153.075 122.673 153.287 123.182C153.543 123.794 153.077 124.464 152.393 124.467Z" fill="#F2585B"/>
<path d="M152.184 123.37C148.784 123.381 144.845 124.245 142.681 125.095C142.072 125.334 141.41 124.923 141.366 124.291C141.298 123.31 141.735 121.978 144.2 121.184C146.94 120.303 149.736 120.088 151.41 120.682C152.397 121.033 152.866 121.576 153.078 122.085C153.334 122.697 152.868 123.367 152.184 123.37Z" fill="#29273A"/>
<path d="M175.829 129.217C174.808 123.88 169.312 125.64 169.077 128.443C168.893 130.638 170.23 133.264 172.674 133.246C175.764 133.223 176.224 131.284 175.829 129.217Z" fill="white"/>
<path d="M171.196 130.099C171.398 131.853 171.857 133.24 173.895 133.005C175.504 132.819 176.088 131.334 175.885 129.58C175.683 127.827 174.563 126.494 173.162 126.655C171.761 126.817 170.993 128.346 171.196 130.099Z" fill="#29273A"/>
<path d="M176.128 128.041C176.205 128.102 176.585 128.052 176.672 127.992C177.011 127.761 176.966 127.366 176.738 127.025C175.854 125.705 173.784 124.638 171.864 124.88C170.161 125.095 168.692 125.77 168.219 127.389C168.013 128.094 168.438 128.367 168.805 128.551C169.701 129.001 169.783 126.462 172.128 126.241C173.482 126.114 174.307 126.606 176.128 128.041Z" fill="#29273A"/>
<path d="M170.773 128.637C170.826 128.913 171.127 129.088 171.446 129.027C171.766 128.966 171.982 128.692 171.929 128.416C171.876 128.14 171.575 127.966 171.255 128.027C170.936 128.088 170.72 128.361 170.773 128.637Z" fill="white"/>
<path d="M153.447 130.612C152.08 125.703 146.995 127.78 146.817 130.571C146.677 132.757 148.239 135.476 150.502 135.492C153.362 135.514 154.012 132.639 153.447 130.612Z" fill="white"/>
<path d="M149.032 132.345C149.234 134.098 149.693 135.486 151.731 135.25C153.34 135.065 153.924 133.579 153.721 131.826C153.519 130.072 152.399 128.739 150.998 128.901C149.597 129.062 148.829 130.592 149.032 132.345Z" fill="#29273A"/>
<path d="M153.885 130.166C153.963 130.227 154.343 130.176 154.43 130.117C154.769 129.886 154.724 129.491 154.495 129.15C153.611 127.83 151.542 126.764 149.622 127.005C147.919 127.22 146.449 127.895 145.976 129.514C145.771 130.219 146.196 130.492 146.563 130.676C147.459 131.126 147.541 128.586 149.885 128.366C151.24 128.239 152.065 128.731 153.885 130.166Z" fill="#29273A"/>
<path d="M148.609 130.883C148.661 131.159 148.963 131.333 149.283 131.272C149.602 131.211 149.818 130.938 149.765 130.661C149.713 130.385 149.411 130.211 149.091 130.272C148.772 130.333 148.556 130.606 148.609 130.883Z" fill="white"/>
<path d="M156.66 152.092C156.534 152.266 156.531 152.371 156.574 152.414C157.142 152.956 157.88 153.591 158.953 153.839C160.965 154.303 163.739 154.007 165.821 153.331C165.983 153.28 166.138 153.22 166.293 153.16C167.351 152.726 168.326 152.185 168.959 151.276C169.588 150.389 169.966 149.393 169.917 148.191C169.914 148.176 169.889 147.528 169.838 147.26C165.75 146.401 158.705 149.261 156.66 152.092Z" fill="#ED3049"/>
<path d="M154.727 146.331C155.219 147.183 156.928 149.142 160.049 148.663C163.683 148.105 167.002 146.983 168.242 144.359C165.077 146.006 158.541 146.727 154.727 146.331Z" fill="white"/>
<path d="M126.492 116.548C127.289 118.833 128.63 120.91 130.211 122.435C131.563 123.741 133.308 124.821 135.2 124.812C135.367 124.811 135.539 124.808 135.711 124.806C135.878 124.799 136.049 124.792 136.22 124.784C142.974 124.498 150.444 121.721 153.415 115.59C154.074 114.232 154.457 112.942 154.692 111.969C160.657 117.353 169.567 115.391 175.604 113.351C175.714 113.315 175.819 113.28 175.923 113.24C177.539 112.663 178.426 112.08 179.588 111.146C180.704 117.148 179.904 118.262 183.634 123.288C184.892 124.982 186.642 126.263 187.996 126.651C188.008 126.655 185.96 130.81 188.375 135.359C189.837 138.115 193.699 138.575 196.713 138.79C200.117 139.034 203.751 138.399 206.781 136.717C208.21 135.924 209.73 134.691 210.876 133.217C211.797 132.031 210.472 130.374 209.112 131.018C208.741 131.194 208.346 131.347 207.915 131.471C206.121 131.986 204.21 132.007 202.383 131.672C198.998 131.051 195.454 129.179 193.589 126.214C192.232 124.051 191.604 121.4 191.318 119.609C191.158 118.605 190.338 117.84 189.319 117.756C185.342 117.426 180.716 112.448 181.226 106.016C181.261 105.585 180.76 105.334 180.435 105.621C175.92 109.606 159.552 115.751 151.326 104.911C150.576 103.923 149.009 104.242 148.705 105.444C147.448 110.402 144.665 113.544 143.143 114.413C136.968 117.94 126.492 116.548 127.058 106.842C126.244 108.24 125.822 109.755 125.72 111.289C125.596 113.059 125.895 114.86 126.492 116.548Z" fill="#29273A"/>
<path d="M187.952 142.602C187.041 147.56 187.64 149.942 191.257 149.983C197.347 150.053 202.611 144.94 202.532 139.91C202.431 133.496 197.499 130.772 193.151 132.834C189.137 134.737 188.578 139.189 187.952 142.602Z" fill="#F2585B"/>
<path d="M197.623 139.834C197.1 139.693 196.58 139.571 196.075 139.635C195.575 139.675 195.101 139.818 194.686 140.079C194.269 140.329 193.9 140.662 193.581 141.044C193.422 141.234 193.273 141.437 193.142 141.649C193.014 141.848 192.875 142.1 192.812 142.265C192.613 142.78 192.034 143.038 191.518 142.839C191.002 142.641 190.745 142.062 190.943 141.546C190.971 141.472 191.007 141.404 191.05 141.342L191.078 141.301C191.304 140.973 191.499 140.758 191.732 140.514C191.956 140.278 192.197 140.061 192.453 139.858C192.962 139.454 193.537 139.116 194.163 138.899C194.784 138.671 195.47 138.61 196.107 138.692C196.755 138.75 197.334 139.017 197.87 139.291C198.017 139.365 198.075 139.544 198 139.691C197.935 139.819 197.791 139.88 197.658 139.843L197.623 139.834Z" fill="#ED3049"/>
<path d="M49.3844 200.566C49.7662 198.635 50.1078 198.839 50.2481 196.815C50.5124 193.002 50.4261 187.462 50.8729 184.119C51.3102 180.85 50.7871 178.862 50.9731 177.212C51.1213 175.894 52.5553 175.255 53.6308 176.031C55.3181 177.25 56.0917 180.221 55.7644 183.73C55.2854 188.871 54.6334 194.807 57.8668 196.259L61.9426 214.24C60.1749 213.386 57.901 211.428 56.2191 210.307C50.6661 206.609 49.128 201.863 49.3844 200.566Z" fill="#F68270"/>
<path d="M61.6114 214.047C64.0068 215.453 65.8082 216.309 66.8862 217.569C66.9978 217.701 67.1143 217.837 67.2219 217.974C68.0604 218.981 68.8939 220.13 69.6357 221.329C70.8495 223.285 71.8094 225.384 72.1025 227.252C72.1025 227.252 77.7561 223.934 80.6905 220.516L80.6945 220.511C81.9708 219.017 82.7359 217.505 82.2842 216.242C82.1106 215.756 81.0103 214.305 79.921 212.77C78.96 211.416 78.2728 209.89 77.9029 208.272C77.2439 205.392 77.0009 200.758 73.588 193.814C68.2577 182.969 71.5521 179.39 68.5354 178.956C65.5187 178.522 63.8298 182.085 65.3322 186.6C65.9084 188.337 67.8903 194.072 66.0611 194.184C61.8306 194.443 59.7039 193.454 58.8426 193.635L58.1375 198.962L57.9327 200.228L55.8472 205.101C55.2938 208.486 56.2707 210.911 61.6114 214.047Z" fill="#F68270"/>
<path d="M69.6355 221.329L71.5851 225.274L80.6903 220.516L80.6943 220.511C81.9706 219.017 82.7357 217.505 82.284 216.242C82.0167 215.494 79.9664 213.437 78.1823 209.293C77.0652 215.119 71.6223 217.542 67.2217 217.974L69.6355 221.329Z" fill="#F2585B"/>
<path d="M68.2927 203.506C70.5751 207.181 69.3737 210.443 68.9978 210.714C68.9978 210.714 73.3439 208.413 68.2927 203.506Z" fill="#F2585B"/>
<path d="M55.4494 187.44C56.8428 189.29 57.4095 190.73 58.8842 192.674C59.558 193.562 61.6837 194.688 66.4131 194.073C64.6384 197.487 65.88 200.182 68.0459 203.205C68.2333 203.713 67.7865 202.548 65.9365 201.864C64.7872 201.438 59.9011 202.399 57.9326 200.228C54.7706 196.741 55.4494 187.44 55.4494 187.44Z" fill="#F2585B"/>
<path d="M62.7226 194.685C59.0618 194.063 53.5575 194.199 50.8611 197.737C50.3429 198.416 50.93 199.377 51.768 199.211L61.4915 197.285L62.7226 194.685Z" fill="#F2585B"/>
<path d="M50.2754 199.154C56.0347 195.84 60.9515 196.212 63.1005 196.666C64.8131 197.029 65.249 199.42 63.6201 200.022C61.9729 200.629 57.7667 200.697 55.7902 201.936C53.1102 203.617 51.9846 203.977 50.6979 203.887C49.966 203.836 49.3918 203.678 48.9317 202.337C48.3377 200.607 49.309 199.711 50.2754 199.154Z" fill="#F68270"/>
<path d="M59.1539 199.67C56.038 200.325 53.4115 201.918 52.1208 203.329C51.7936 203.687 52.6444 208.882 56.033 207.601C58.6575 206.609 61.5186 205.291 64.2442 204.088C65.5309 203.521 67.2218 197.973 59.1539 199.67Z" fill="#F2585B"/>
<path d="M62.6368 200.787C64.6331 200.994 64.465 203.046 63.7594 203.483C62.6016 204.199 60.1437 204.037 57.9049 205.225C57.0437 205.682 54.3076 208.445 52.6445 207.712C50.4727 206.755 50.8996 204.864 51.6365 204.259C55.3746 201.188 60.0346 200.516 62.6368 200.787Z" fill="#F68270"/>
<path d="M74.2753 126.102C77.6093 136.715 82.6848 147.105 97.0643 142.811C110.829 138.699 108.421 127.036 105.088 116.423C101.754 105.809 93.9365 104.055 85.3376 106.757C76.7386 109.458 70.9412 115.489 74.2753 126.102Z" fill="white"/>
<path d="M27.589 75.5146C29.2981 84.4556 34.1272 90.4509 37.5336 94.6517C40.9341 98.85 45.0605 102.347 49.6526 105.02C51.1525 105.893 55.9399 108.903 57.5295 109.596C67.3493 115.596 73.4977 125.981 74.779 127.755C74.8613 127.866 77.817 128.253 82.897 127.419C83.8604 127.263 84.9002 127.064 86.0129 126.809C87.3487 126.498 88.7901 126.116 90.3277 125.634C92.02 125.102 93.5527 124.573 94.9366 124.053C96.0041 123.657 96.9834 123.264 97.8764 122.884C103.49 120.496 105.759 118.591 105.728 118.43C105.576 117.555 104.952 115.192 105.311 110.385C105.67 105.579 106.221 98.0214 110.786 87.7044C115.507 77.0348 118.051 62.7723 114.088 50.7739C106.628 28.2011 81.998 17.7214 59.2209 24.5308C35.58 31.6025 22.9702 51.3506 27.589 75.5146Z" fill="#F9D572"/>
<path d="M57.9495 78.2169C58.1181 77.8043 58.4449 77.3234 59.0518 77.1325C59.1812 77.0918 59.3245 77.066 59.4817 77.0546C60.8626 76.9614 63.1306 78.203 65.3341 81.963C66.7235 84.3371 68.3756 87.3528 70.2539 91.4188C66.6987 91.0072 63.4494 89.1131 60.5482 85.7517C57.6907 82.4385 57.3595 79.6231 57.9495 78.2169ZM88.2283 82.6969C87.7275 74.7301 88.9998 70.5263 90.5706 69.0343C90.8082 68.8132 91.1166 68.5742 91.543 68.4403C92.0899 68.2683 92.8282 68.2682 93.8427 68.6972C94.0882 68.7998 94.7471 69.0755 94.703 70.6369C94.6157 73.6735 92.0954 78.4678 88.2283 82.6969ZM58.1598 87.8174C62.6462 93.0184 67.4479 94.6566 71.7033 94.6631C74.894 102.064 78.6644 112.425 82.8969 127.419C83.8604 127.263 84.9002 127.064 86.0128 126.809C81.8884 112.174 78.1859 101.849 75.0041 94.3551C76.1212 94.1459 77.1729 93.8489 78.1428 93.5018C80.7817 92.5637 83.3675 91.0513 85.7495 89.2053C87.1215 98.7389 90.2637 110.655 94.9366 124.053C96.0041 123.657 96.9834 123.264 97.8764 122.884C92.3225 106.965 89.6102 95.1986 88.6021 86.7479C93.9459 81.6625 97.7306 75.1694 97.8591 70.7286C97.9543 67.4908 96.1514 66.2403 95.0714 65.7846C92.5411 64.72 90.1725 65.0572 88.3974 66.7411C85.4054 69.5827 84.3374 76.0788 85.2993 85.5569C82.832 87.6895 80.0344 89.477 77.0807 90.5277C75.9313 90.9363 74.8043 91.2194 73.7025 91.3716C71.5252 86.5337 69.6311 83.0499 68.0603 80.3689C65.531 76.053 62.3253 73.6958 59.268 73.904C57.3714 74.027 55.7861 75.1873 55.031 77.0001C53.7646 80.0332 54.9323 84.0808 58.1598 87.8174Z" fill="white"/>
<path d="M45.3252 0.110861C42.3918 0.854133 41.8881 2.77157 43.1906 5.95142C45.8335 12.4019 48.4446 14.5285 49.3654 14.2251C51.1955 13.6226 51.4212 -1.4332 45.3252 0.110861Z" fill="#E9F0F1"/>
<path d="M110.861 1.67825C108.636 -0.374053 106.755 0.251703 104.802 3.07901C100.842 8.81544 100.486 12.1639 101.243 12.7698C102.747 13.9737 115.483 5.94102 110.861 1.67825Z" fill="#E9F0F1"/>
<path d="M133.795 47.4348C134.345 44.4583 132.813 43.2003 129.38 43.056C122.415 42.763 119.392 44.247 119.283 45.2105C119.066 47.1249 132.652 53.618 133.795 47.4348Z" fill="#E9F0F1"/>
<path d="M0.656451 46.1402C-0.0113527 49.0925 1.46939 50.4105 4.89384 50.6911C11.8417 51.2608 15.0896 49.9091 15.0683 48.9398C15.0052 46.0882 2.04407 40.0071 0.656451 46.1402Z" fill="#E9F0F1"/>
<path d="M6.01297 90.9818C7.36315 93.6906 9.34385 93.7749 12.1736 91.8262C17.915 87.8723 19.5755 84.7708 18.9456 84.0335C17.0928 81.8647 3.20777 85.3544 6.01297 90.9818Z" fill="#E9F0F1"/>
<path d="M34.2007 60.8102C36.3968 61.8341 39.424 59.3202 42.8899 52.4483C44.4677 49.321 46.9221 44.3234 45.8442 42.7228C43.8876 39.8176 40.135 39.8042 37.9667 42.5552C32.9215 48.9556 29.8155 58.7648 34.2007 60.8102Z" fill="white"/>
<path d="M30.3111 69.5495C30.5591 72.1527 32.3545 72.9976 33.8113 72.54C35.2681 72.0823 36.4809 68.1562 36.0233 66.6994C35.5656 65.2426 34.0136 64.4324 32.5568 64.8901C31.1 65.3477 30.1664 68.0293 30.3111 69.5495Z" fill="white"/>
<path d="M82.0609 213.8C76.7931 219.226 71.9993 221.877 68.7237 223.538C68.1128 223.848 68.8888 225.72 69.2691 226.289L71.4588 229.94L86.6649 219.084C86.6649 219.084 83.1067 212.724 82.0609 213.8Z" fill="white"/>
<path d="M84.8601 216.191C87.7643 219.555 91.7454 224.651 94.3332 227.835C114.318 252.429 126.087 271.747 115.528 278.983C109.832 282.887 105.645 281.221 101.155 277.68C86.5634 266.176 69.2693 226.289 69.2693 226.289C75.6885 223.531 81.1294 220.855 84.8601 216.191Z" fill="#363250"/>
<path d="M191.113 177.55C189.75 174.079 187.653 171.888 186.091 170.193C185.702 169.772 184.648 168.786 184.359 168.693C184.359 168.693 184.293 169.327 184.382 169.54C184.548 169.68 185.113 170.872 185.246 171.331C185.763 173.123 185.868 178.085 183.28 186.069C177.405 204.188 154.726 231.881 154.686 231.953C154.29 232.641 154.851 235.598 158.942 233.284C166.909 228.776 191.018 214.071 192.494 196.014C192.617 194.505 188.35 191.689 188.8 191.659C188.8 191.659 192.599 193.381 192.763 192.239C193.61 186.303 192.445 180.94 191.113 177.55Z" fill="#2A2842"/>
</svg>
