<svg width="1151" height="208" viewBox="0 0 1151 208" fill="none" xmlns="http://www.w3.org/2000/svg">
<g clip-path="url(#clip0_2_2)">
<path d="M275.061 57.278C250.722 24.3502 213.776 11.5954 178.909 22.6452C175.223 19.6031 171.387 16.7504 167.418 14.0977C162.493 10.6654 149.295 4.77517 135.221 2.16221C122.825 -0.323687 110.15 -1.06882 97.5529 -0.0521694C71.0909 1.87434 47.4961 11.7726 29.0887 29.2218C10.6813 46.6711 -0.809696 74.3286 0.000142563 107.19C0.977861 134.757 12.1934 160.938 31.4088 180.508C50.6698 200.016 81.1592 210.778 114.8 206.128C128.205 204.038 140.881 198.596 151.681 190.295C153.322 189.033 154.855 187.749 156.255 186.442C186.635 208.342 225.748 208.586 258.58 183.852C300.253 152.252 306.251 99.4396 275.061 57.278ZM143.998 183.608C128.875 189.272 112.469 190.458 96.7029 187.026C80.9371 183.594 66.4647 175.687 54.9817 164.232C38.5879 147.934 29.3951 126.699 27.3815 100.215C25.7237 82.259 28.0801 64.1561 34.276 47.2468C40.317 31.5469 49.5973 20.2093 61.5917 12.9241C81.4437 1.2986 102.434 0.700717 125.153 11.1747C136.628 16.6484 146.837 24.5022 155.117 34.2263C153.519 35.2671 151.943 36.4407 150.389 37.57C108.803 69.1248 102.697 121.982 133.886 164.144C138.474 170.394 143.737 176.105 149.58 181.172C147.829 182.036 145.968 182.855 143.998 183.608ZM225.442 174.108C200.599 192.908 176.348 195.787 158.619 184.272C156.47 182.913 154.454 181.348 152.6 179.6C150.178 177.43 147.978 175.019 146.034 172.403C119.309 136.265 143.364 77.7831 183.856 47.114C214.914 23.5973 245.25 25.236 262.87 49.0405C289.638 85.1791 265.605 143.639 225.442 174.108Z" fill="#04459D"/>
<path d="M545.434 160.382C538.254 166.004 525.241 170.726 510.657 170.726C492.484 170.501 476.778 164.205 463.765 151.388C450.752 138.796 443.572 122.156 442.001 101.469C440.879 86.1783 442.674 72.4619 447.386 60.0945C452.098 47.9521 459.502 38.9577 468.925 33.3362C484.631 24.1169 501.01 23.6672 518.959 31.987C530.177 37.1588 539.376 45.0289 547.005 55.3725L562.262 41.4311C558.672 38.508 554.858 35.8096 552.389 34.2356C548.575 31.5373 538.03 27.0401 527.036 24.7915C517.164 22.7677 507.292 22.318 497.195 22.9926C476.329 24.5666 457.707 32.4367 443.348 45.9283C428.764 59.42 419.789 81.2314 420.462 106.865C421.135 128.002 429.886 148.914 445.142 164.205C460.399 179.495 484.407 187.815 510.882 184.217C525.69 182.194 538.703 173.874 545.883 166.678C549.248 162.856 552.389 158.808 554.858 154.311C560.242 145.092 560.467 142.618 561.14 140.595L559.794 143.743C557.999 148.015 552.614 154.311 545.434 160.382Z" fill="#04459D"/>
<path d="M631.777 66.1658C597.224 66.1658 571.871 90.2258 571.871 124.854C571.871 159.483 597.224 183.543 631.777 183.543C666.329 183.543 691.682 159.483 691.682 124.854C691.682 90.2258 666.329 66.1658 631.777 66.1658ZM640.976 180.395C611.359 180.395 590.044 144.417 590.044 110.688C590.044 85.054 603.058 69.3138 622.578 69.3138C652.194 69.3138 673.284 105.291 673.284 138.796C673.284 164.655 660.495 180.395 640.976 180.395Z" fill="#04459D"/>
<path d="M825.966 181.519C817.888 180.845 811.831 174.099 811.606 166.004V107.54C811.606 73.5862 795.003 66.6155 780.195 66.6155C760.451 66.6155 744.072 79.2077 730.161 88.2021C729.712 78.0834 726.123 72.0121 720.513 66.1658L694.038 78.9828L694.263 79.8823L698.974 77.8585C703.91 75.6099 709.744 77.8585 711.988 82.8054C713.558 86.1783 714.231 91.7999 714.231 95.1728V110.238V108.44V165.779C714.231 174.099 708.173 180.845 699.872 181.519V181.969H744.521V181.519C736.443 180.845 730.161 174.099 730.161 165.779V90.6755C743.848 81.6811 754.617 73.5862 768.752 73.5862C781.092 73.5862 795.676 79.8822 795.676 105.741V166.004C795.676 174.099 789.394 180.845 781.317 181.519V181.969H825.966V181.519Z" fill="#04459D"/>
<path d="M960.936 181.519C952.859 180.845 946.801 174.099 946.576 166.004V107.54C946.576 73.5862 929.973 66.6155 915.165 66.6155C895.421 66.6155 879.042 79.2077 865.132 88.2021C864.683 78.0834 861.093 72.0121 855.484 66.1658L829.009 78.9828L829.233 79.8823L833.945 77.8585C838.881 75.6099 844.714 77.8585 846.958 82.8054C848.528 86.1783 849.202 91.7999 849.202 95.1728V110.238V108.44V165.779C849.202 174.099 843.144 180.845 834.842 181.519V181.969H879.491V181.519C871.414 180.845 865.132 174.099 865.132 165.779V90.6755C878.818 81.6811 889.587 73.5862 903.722 73.5862C916.063 73.5862 930.646 79.8822 930.646 105.741V166.004C930.646 174.099 924.364 180.845 916.287 181.519V181.969H960.936V181.519Z" fill="#04459D"/>
<path d="M1033.79 179.046C1004.18 179.046 984.433 144.417 984.433 110.688C984.433 85.054 997.446 69.5387 1016.97 69.5387C1032.67 69.5387 1049.5 79.4325 1058.47 93.8236L1074.18 79.6574C1060.04 68.4144 1042.54 65.4912 1025.49 66.1658C990.94 67.5149 966.259 90.2258 966.259 124.854C966.259 159.483 991.613 183.543 1026.17 183.543C1046.13 183.543 1063.63 175.673 1073.96 161.731C1073.96 161.507 1074.18 161.507 1074.18 161.282L1072.83 160.382C1061.84 172.75 1047.03 179.046 1033.79 179.046Z" fill="#04459D"/>
<path d="M1109.49 146.216V78.5331C1115.55 78.5331 1131.26 78.5331 1137.31 78.5331L1151 66.1658H1109.94V44.1295L1081.22 78.5331H1093.56V142.169C1093.56 176.347 1110.17 183.768 1124.97 183.318C1130.81 183.093 1142.47 175.223 1150.33 170.501V168.927C1146.06 171.176 1141.35 174.998 1136.42 175.448C1124.08 176.347 1109.49 172.3 1109.49 146.216Z" fill="#04459D"/>
</g>
<defs>
<clipPath id="clip0_2_2">
<rect width="1151" height="208" fill="white"/>
</clipPath>
</defs>
</svg>
