<svg width="210" height="210" viewBox="0 0 210 210" fill="none" xmlns="http://www.w3.org/2000/svg">
<path d="M84.42 57.0612C-3.46504 25.725 15.6282 102.9 47.0148 117.13C78.4098 131.51 129.717 139.495 148.235 127.382C173.25 112.98 179.844 76.44 164.724 53.0964C149.638 32.1552 120.12 31.5 105.84 52.7856C100.225 58.5606 92.0976 58.38 84.42 57.0612Z" fill="#04459D"/>
<path opacity="0.9" d="M84.42 57.0612C-3.46504 25.725 15.6282 102.9 47.0148 117.13C78.4098 131.51 129.717 139.495 148.235 127.382C173.25 112.98 179.844 76.44 164.724 53.0964C149.638 32.1552 120.12 31.5 105.84 52.7856C100.225 58.5606 92.0976 58.38 84.42 57.0612Z" fill="white"/>
<path d="M105 179.575C149.975 179.575 186.434 177.447 186.434 174.821C186.434 172.195 149.975 170.066 105 170.066C60.0253 170.066 23.5662 172.195 23.5662 174.821C23.5662 177.447 60.0253 179.575 105 179.575Z" fill="#F5F5F5"/>
<path d="M164.123 55.2048C163.309 55.0326 162.263 53.8776 162.145 51.9162C162.002 49.3962 164.728 49.2534 166.047 49.854C167.366 50.4546 166.635 53.8146 164.123 55.2048Z" fill="#212529"/>
<path d="M184.804 165.115L181.667 166.177L178.735 158.97L181.868 157.907L184.804 165.115Z" fill="#FFC3BD"/>
<path d="M181.171 165.938L184.989 164.644C185.049 164.621 185.115 164.622 185.174 164.646C185.234 164.67 185.282 164.716 185.308 164.774L186.61 167.483C186.64 167.553 186.656 167.628 186.656 167.704C186.656 167.779 186.64 167.854 186.61 167.924C186.579 167.993 186.535 168.055 186.48 168.107C186.424 168.158 186.358 168.198 186.287 168.223C185.052 168.617 184.136 168.848 182.591 169.373C181.637 169.697 179.735 170.39 178.42 170.835C177.106 171.28 176.614 169.995 177.122 169.672C179.411 168.298 180.104 167.303 180.709 166.312C180.815 166.137 180.978 166.005 181.171 165.938Z" fill="#212529"/>
<path opacity="0.2" d="M181.868 157.907L178.735 158.97L180.247 162.687L183.385 161.624L181.868 157.907Z" fill="#151515"/>
<path d="M164.947 67.3386H167.467C166.627 68.0526 166.702 87.255 167.412 96.474C165.4 96.6 161.713 95.8986 161.713 95.8986C161.713 95.8986 161.36 81.5262 164.947 67.3386Z" fill="#04459D"/>
<path opacity="0.4" d="M164.947 67.3386H167.467C166.627 68.0526 166.702 87.255 167.412 96.474C165.4 96.6 161.713 95.8986 161.713 95.8986C161.713 95.8986 161.36 81.5262 164.947 67.3386Z" fill="#151515"/>
<path d="M163.607 171.419H160.272L159.772 163.699H163.103L163.607 171.419Z" fill="#FFC3BD"/>
<path opacity="0.2" d="M163.103 163.703H159.772L160.033 167.681H163.363L163.103 163.703Z" fill="#151515"/>
<path d="M158.147 166.32L164.094 166.27C164.094 166.27 163.094 144.543 163.724 134.198C163.918 131.048 163.88 126.685 164.766 121.989C165.892 116.071 167.332 109.666 168.521 104.656C169.781 99.372 169.117 95.634 169.117 95.634L157.403 94.941C157.403 94.941 154.375 122.661 154.371 132.817C154.363 143.405 158.147 166.32 158.147 166.32Z" fill="#212529"/>
<path d="M159.873 171.032H163.934C163.999 171.03 164.062 171.052 164.111 171.094C164.16 171.136 164.192 171.195 164.199 171.259L164.577 174.22C164.583 174.296 164.574 174.372 164.55 174.443C164.525 174.515 164.486 174.581 164.434 174.637C164.383 174.692 164.321 174.737 164.251 174.767C164.182 174.797 164.107 174.813 164.031 174.812C162.725 174.791 161.78 174.716 160.133 174.716C159.121 174.716 155.463 174.821 154.064 174.821C152.666 174.821 152.615 173.439 153.199 173.313C155.82 172.75 158.42 171.977 159.314 171.238C159.47 171.106 159.668 171.033 159.873 171.032Z" fill="#212529"/>
<path d="M157.672 167.042H165.325L165.278 164.896L157.269 164.758L157.672 167.042Z" fill="#04459D"/>
<path d="M158.714 171.612C158.493 171.631 158.273 171.572 158.092 171.444C158.035 171.392 157.992 171.326 157.97 171.252C157.948 171.178 157.947 171.099 157.966 171.024C157.971 170.977 157.988 170.931 158.015 170.892C158.042 170.853 158.079 170.822 158.122 170.801C158.508 170.608 159.52 171.272 159.638 171.347C159.65 171.356 159.659 171.369 159.663 171.383C159.668 171.398 159.668 171.413 159.663 171.427C159.658 171.442 159.65 171.455 159.639 171.466C159.628 171.477 159.615 171.486 159.6 171.49C159.31 171.562 159.013 171.603 158.714 171.612ZM158.294 170.923C158.258 170.923 158.222 170.93 158.189 170.944C158.172 170.954 158.158 170.967 158.148 170.983C158.138 170.999 158.132 171.018 158.13 171.037C158.118 171.087 158.119 171.14 158.133 171.19C158.147 171.24 158.174 171.285 158.21 171.322C158.378 171.478 158.815 171.499 159.39 171.385C159.057 171.162 158.68 171.011 158.285 170.94L158.294 170.923Z" fill="#04459D"/>
<path d="M159.6 171.499C159.589 171.503 159.577 171.503 159.566 171.499C159.239 171.314 158.638 170.583 158.747 170.209C158.765 170.151 158.8 170.1 158.849 170.063C158.897 170.026 158.956 170.005 159.016 170.003C159.075 169.996 159.134 170.001 159.191 170.019C159.247 170.036 159.299 170.065 159.344 170.104C159.701 170.423 159.688 171.364 159.688 171.423C159.688 171.438 159.685 171.452 159.677 171.465C159.67 171.477 159.659 171.487 159.646 171.494C159.632 171.501 159.616 171.502 159.6 171.499ZM159.058 170.146H159.02C158.915 170.146 158.903 170.209 158.899 170.226C158.836 170.449 159.209 170.999 159.524 171.259C159.54 170.888 159.437 170.522 159.23 170.213C159.205 170.189 159.174 170.171 159.141 170.159C159.108 170.147 159.072 170.143 159.037 170.146H159.058Z" fill="#04459D"/>
<path opacity="0.2" d="M164.766 122.006C165.892 116.088 167.332 109.683 168.521 104.672L167.223 102.06C164.438 105.546 164.014 116.218 164.766 122.006Z" fill="#151515"/>
<path d="M163.724 95.34C163.724 95.34 167.559 123.854 169.285 133.501C171.179 144.064 178.458 162.481 178.458 162.481L184.199 160.532C184.199 160.532 179.676 145.253 178.088 134.912C176.278 123.152 175.22 96.012 175.22 96.012L163.724 95.34Z" fill="#212529"/>
<path d="M177.828 162.83L185.027 160.39L184.296 158.353L176.719 160.776L177.828 162.83Z" fill="#04459D"/>
<path d="M180.268 166.862C180.066 166.952 179.837 166.966 179.626 166.9C179.555 166.869 179.494 166.819 179.449 166.756C179.405 166.693 179.379 166.62 179.374 166.543C179.364 166.496 179.365 166.447 179.379 166.401C179.392 166.355 179.416 166.313 179.449 166.278C179.752 165.976 180.915 166.278 181.049 166.32C181.065 166.323 181.078 166.332 181.087 166.344C181.097 166.356 181.101 166.372 181.1 166.387C181.101 166.403 181.098 166.419 181.09 166.433C181.083 166.447 181.072 166.459 181.058 166.467C180.811 166.629 180.546 166.762 180.268 166.862ZM179.642 166.341C179.607 166.351 179.575 166.369 179.55 166.396C179.537 166.409 179.528 166.426 179.523 166.445C179.519 166.463 179.52 166.482 179.525 166.501C179.528 166.553 179.546 166.604 179.575 166.647C179.605 166.691 179.645 166.726 179.693 166.748C179.899 166.841 180.314 166.723 180.818 166.429C180.437 166.32 180.036 166.29 179.642 166.341Z" fill="#04459D"/>
<path d="M181.041 166.475H181.02C180.655 166.4 179.861 165.892 179.84 165.505C179.838 165.444 179.855 165.383 179.888 165.332C179.922 165.281 179.971 165.241 180.029 165.22C180.082 165.196 180.14 165.184 180.199 165.184C180.257 165.184 180.315 165.196 180.369 165.22C180.789 165.409 181.1 166.333 181.112 166.37C181.119 166.383 181.123 166.398 181.123 166.412C181.123 166.427 181.119 166.441 181.112 166.454C181.104 166.465 181.093 166.473 181.08 166.477C181.067 166.48 181.054 166.48 181.041 166.475ZM180.1 165.358H180.067C179.974 165.404 179.974 165.455 179.974 165.476C179.974 165.703 180.512 166.114 180.894 166.261C180.793 165.997 180.566 165.476 180.285 165.358C180.256 165.346 180.224 165.34 180.193 165.34C180.161 165.34 180.129 165.346 180.1 165.358Z" fill="#04459D"/>
<path d="M160.671 71.2824C159.193 73.164 157.672 74.9154 156.051 76.6458C154.423 78.3918 152.697 80.0437 150.881 81.5934C150.402 81.9798 149.936 82.3704 149.419 82.74C148.824 83.2095 148.171 83.5992 147.475 83.8992C146.052 84.4522 144.506 84.6089 143.002 84.3528C141.686 84.141 140.411 83.7273 139.222 83.1264C138.657 82.8496 138.11 82.5382 137.584 82.194C137.059 81.8476 136.557 81.4689 136.08 81.06L137.449 78.96C139.373 79.7496 141.553 80.3796 143.371 80.367C144.163 80.3906 144.948 80.2067 145.648 79.8336C145.982 79.6237 146.296 79.3818 146.584 79.1112C146.983 78.7794 147.374 78.4014 147.764 78.0402C148.55 77.2884 149.327 76.5156 150.083 75.6966C150.839 74.8776 151.599 74.0628 152.342 73.2228C153.825 71.5428 155.312 69.8166 156.723 68.1156L160.671 71.2824Z" fill="#FFC3BD"/>
<path d="M160.293 73.8822C158.971 75.3866 157.526 76.7775 155.971 78.0402L154.858 77.007L150.885 73.3236C151.986 71.2275 153.464 69.3524 155.245 67.7922C158.369 65.0076 162.074 65.8938 162.498 69.3714C162.658 70.665 161.599 72.345 160.293 73.8822Z" fill="#04459D"/>
<path opacity="0.2" d="M160.293 73.8822C158.971 75.3867 157.525 76.7775 155.971 78.0402L154.858 77.007C155.908 74.823 159.6 70.98 160.293 73.8822Z" fill="#151515"/>
<path d="M156.089 99.8676C157.668 100.531 160.083 100.972 162.145 100.334C162.007 97.2132 162.053 79.6152 165.161 67.3218H167C166.16 68.0064 163.598 91.0014 164.438 100.569C167.962 101.304 174.888 100.741 175.98 99.6618C175.841 98.1582 175.081 90.6486 175.186 85.407C175.232 83.1726 175.333 80.7072 175.564 78.12C175.872 74.42 176.459 70.7486 177.32 67.137C177.32 67.137 175.22 66.5784 172.813 66.2172C172.339 66.1458 171.856 66.0828 171.381 66.0324C168.872 65.7382 166.348 65.5881 163.821 65.583C163.51 65.583 163.204 65.6082 162.905 65.6292C161.484 65.7324 160.07 65.9232 158.672 66.2004C158.672 66.2004 154.174 81.3162 156.089 99.8676Z" fill="#04459D"/>
<path opacity="0.2" d="M174.812 72.3492C173.935 75.0078 173.972 78.6912 175.232 80.4258C175.283 80.4972 175.337 80.5644 175.388 80.6232C175.438 79.8084 175.501 78.9796 175.577 78.1368C175.69 76.8474 175.837 75.5244 176.018 74.1846L174.812 72.3492Z" fill="#151515"/>
<path d="M170.94 57.4854C170.373 59.892 169.735 64.323 171.36 66.0492C170.575 66.7879 169.639 67.3471 168.616 67.6879C167.594 68.0288 166.509 68.1432 165.438 68.0232C163.338 67.851 163.292 66.381 163.787 65.5998C166.53 65.1126 166.534 63.0798 166.127 61.1772L170.94 57.4854Z" fill="#FFC3BD"/>
<path opacity="0.2" d="M168.983 58.9932L166.148 61.173C166.248 61.6192 166.309 62.073 166.333 62.5296C167.374 62.4414 168.853 61.3872 168.991 60.3078C169.069 59.8728 169.066 59.4272 168.983 58.9932Z" fill="#151515"/>
<path d="M171.36 53.4744C171.079 56.7756 171.079 58.7202 169.378 60.3414C166.816 62.7774 162.792 61.0722 162.086 57.7374C161.452 54.7302 162.019 49.8414 165.274 48.678C166.003 48.4305 166.783 48.3691 167.541 48.4995C168.3 48.6298 169.014 48.9477 169.619 49.4243C170.224 49.9008 170.7 50.521 171.004 51.2283C171.308 51.9356 171.43 52.7077 171.36 53.4744Z" fill="#FFC3BD"/>
<path d="M171.171 55.5576C170.356 55.3896 169.306 54.2304 169.193 52.269C169.046 49.749 171.776 49.6062 173.09 50.2068C174.405 50.8074 173.678 54.18 171.171 55.5576Z" fill="#212529"/>
<path d="M169.625 51.2148C168.113 51.8112 162.229 51.597 161.305 50.0892C160.381 48.5814 172.62 50.0346 169.625 51.2148Z" fill="#212529"/>
<path d="M170.222 50.82C168.668 51.282 162.821 50.568 162.032 48.9888C161.242 47.4096 173.313 49.875 170.222 50.82Z" fill="#212529"/>
<path d="M171.007 50.5764C169.42 50.8956 163.661 49.6566 163.027 48.0102C162.393 46.3638 174.17 49.938 171.007 50.5764Z" fill="#212529"/>
<path d="M172.032 50.736C170.423 50.9376 164.703 48.783 164.182 47.0946C163.661 45.4062 175.232 50.337 172.032 50.736Z" fill="#212529"/>
<path d="M172.658 50.4C171.037 50.4378 165.585 48.2076 165.236 46.4772C164.888 44.7468 175.883 50.3076 172.658 50.4Z" fill="#212529"/>
<path d="M172.843 50.3706C171.507 50.1144 166.727 47.2248 166.874 45.7506C167.038 44.1 175.526 50.883 172.843 50.3706Z" fill="#212529"/>
<path d="M172.733 56.0616C172.635 56.4577 172.458 56.8299 172.212 57.156C171.967 57.4822 171.659 57.7556 171.305 57.96C170.356 58.5018 169.588 57.7122 169.625 56.6748C169.625 55.7382 170.163 54.3312 171.234 54.2136C171.468 54.1942 171.703 54.2322 171.918 54.3242C172.134 54.4162 172.324 54.5595 172.472 54.7416C172.619 54.9237 172.721 55.1392 172.766 55.3692C172.812 55.5992 172.8 55.8369 172.733 56.0616Z" fill="#FFC3BD"/>
<path d="M166.32 54.18C166.32 54.4488 166.165 54.6588 165.988 54.6546C165.812 54.6504 165.677 54.4194 165.686 54.1506C165.694 53.8818 165.837 53.6676 166.013 53.676C166.19 53.6844 166.32 53.8986 166.32 54.18Z" fill="#212529"/>
<path d="M163.304 54.0246C163.304 54.2934 163.149 54.5076 162.973 54.4992C162.796 54.4908 162.662 54.264 162.67 53.9952C162.679 53.7264 162.821 53.5164 162.998 53.5248C163.174 53.5332 163.309 53.76 163.304 54.0246Z" fill="#212529"/>
<path d="M164.262 54.2052C163.923 55.0114 163.474 55.7663 162.926 56.448C163.102 56.5861 163.306 56.6846 163.523 56.7368C163.741 56.789 163.967 56.7936 164.186 56.7504L164.262 54.2052Z" fill="#FF5652"/>
<path d="M165.312 57.54C165.196 57.5485 165.079 57.5485 164.963 57.54C164.953 57.54 164.943 57.5379 164.933 57.5339C164.924 57.5298 164.915 57.5239 164.908 57.5164C164.901 57.5089 164.896 57.5001 164.892 57.4904C164.889 57.4808 164.887 57.4705 164.888 57.4602C164.888 57.4499 164.89 57.4397 164.894 57.4303C164.898 57.4208 164.904 57.4123 164.911 57.4052C164.919 57.3981 164.928 57.3926 164.937 57.3891C164.947 57.3856 164.957 57.384 164.968 57.3846C165.299 57.4082 165.631 57.3519 165.936 57.2203C166.24 57.0887 166.509 56.8858 166.719 56.6286C166.734 56.6147 166.753 56.607 166.774 56.607C166.794 56.607 166.813 56.6147 166.828 56.6286C166.845 56.6418 166.856 56.6606 166.86 56.6814C166.864 56.7022 166.86 56.7237 166.849 56.742C166.661 56.9726 166.427 57.1623 166.163 57.2996C165.899 57.4368 165.609 57.5186 165.312 57.54Z" fill="#212529"/>
<path d="M167.29 53.2266C167.262 53.2295 167.233 53.2248 167.208 53.213C167.182 53.2012 167.159 53.1827 167.143 53.1594C167.035 52.9914 166.888 52.8516 166.715 52.7515C166.542 52.6515 166.347 52.594 166.148 52.584C166.106 52.584 166.065 52.5679 166.035 52.539C166.004 52.5101 165.986 52.4706 165.984 52.4286C165.983 52.408 165.986 52.3875 165.993 52.3681C166 52.3488 166.011 52.3311 166.025 52.3162C166.039 52.3013 166.056 52.2894 166.075 52.2812C166.094 52.2731 166.115 52.269 166.135 52.269C166.386 52.2794 166.631 52.3492 166.85 52.4725C167.069 52.5959 167.256 52.7694 167.395 52.9788C167.419 53.0132 167.429 53.0554 167.423 53.0968C167.416 53.1382 167.395 53.1756 167.362 53.2014C167.341 53.2165 167.316 53.2252 167.29 53.2266Z" fill="#212529"/>
<path d="M162.023 52.92C161.995 52.9299 161.964 52.9299 161.935 52.92C161.916 52.9107 161.9 52.8977 161.886 52.8817C161.872 52.8658 161.862 52.8473 161.856 52.8272C161.85 52.8072 161.847 52.7862 161.85 52.7653C161.852 52.7444 161.858 52.7242 161.868 52.7058C161.977 52.4827 162.139 52.2895 162.339 52.1431C162.54 51.9967 162.773 51.9015 163.019 51.8658C163.061 51.8634 163.102 51.8774 163.134 51.9048C163.166 51.9321 163.187 51.9708 163.191 52.0128C163.193 52.0332 163.192 52.0539 163.186 52.0737C163.18 52.0934 163.171 52.1118 163.158 52.1278C163.145 52.1439 163.129 52.1572 163.111 52.167C163.093 52.1768 163.073 52.1829 163.052 52.185C162.857 52.2134 162.673 52.2896 162.514 52.4069C162.356 52.5241 162.229 52.6788 162.145 52.857C162.131 52.8761 162.113 52.8917 162.092 52.9027C162.071 52.9136 162.047 52.9195 162.023 52.92Z" fill="#212529"/>
<path d="M179.214 69.3672C179.731 70.5306 180.134 71.6394 180.55 72.786C180.965 73.9326 181.322 75.0876 181.658 76.2636C182.361 78.6594 182.826 81.1184 183.049 83.6052L183.095 84.588V84.8694V85.2558C183.095 85.5078 183.04 85.722 183.007 85.9488C182.85 86.6947 182.602 87.4184 182.267 88.1034C181.703 89.2663 181.029 90.373 180.256 91.4088C178.807 93.3676 177.179 95.187 175.392 96.8436L173.489 95.214C174.712 93.2862 175.934 91.2996 176.975 89.334C177.48 88.4037 177.917 87.438 178.282 86.4444C178.419 86.0541 178.513 85.6498 178.563 85.239C178.563 85.176 178.563 85.1004 178.563 85.0584C178.561 85.0416 178.561 85.0247 178.563 85.008V84.945V84.8484L178.466 84.0798C178.102 81.9141 177.571 79.7798 176.879 77.6958C176.543 76.6248 176.169 75.5538 175.791 74.487C175.413 73.4202 174.993 72.3408 174.602 71.3454L179.214 69.3672Z" fill="#FFC3BD"/>
<path d="M178.311 67.641C181.003 69.4008 182.251 76.5702 182.251 76.5702L175.909 79.3086C174.401 77.2101 173.346 74.8218 172.809 72.2946C171.91 67.7292 175.56 65.835 178.311 67.641Z" fill="#04459D"/>
<path d="M175.098 94.7268L171.188 94.5756L173.246 98.3556C173.246 98.3556 176.081 97.5744 175.799 96.0246L175.098 94.7268Z" fill="#FFC3BD"/>
<path d="M169.105 96.3816L170.948 99.414L173.246 98.3388L171.188 94.5756L169.105 96.3816Z" fill="#FFC3BD"/>
<path d="M137.588 79.086L134.69 77.2716L134.207 81.4716C134.207 81.4716 137.004 82.4754 137.668 81.0516L137.588 79.086Z" fill="#FFC3BD"/>
<path d="M131.834 77.8764L131.032 81.0264L134.207 81.4884L134.69 77.2716L131.834 77.8764Z" fill="#FFC3BD"/>
<path d="M109.964 56.4396C107.545 58.9974 103.921 65.6376 106.701 67.9686C107.67 68.386 108.711 68.6073 109.766 68.6195C110.821 68.6318 111.868 68.4348 112.846 68.04L112.195 58.4514C112.195 58.4514 111.854 54.7596 109.964 56.4396Z" fill="#212529"/>
<path d="M108.037 78.4224C107.707 79.7351 107.312 81.0304 106.852 82.3032C106.399 83.5632 105.878 84.8022 105.307 86.0244C104.738 87.2602 104.085 88.4557 103.354 89.6028C102.984 90.1824 102.585 90.7494 102.165 91.308C101.955 91.5852 101.745 91.8624 101.51 92.148C101.396 92.2824 101.275 92.4126 101.157 92.547L100.981 92.7486C100.864 92.8767 100.737 92.9961 100.603 93.1056C100.295 93.3496 99.9406 93.527 99.561 93.6264C99.2153 93.7127 98.8569 93.7369 98.5026 93.6978C97.9837 93.6344 97.4818 93.4719 97.0242 93.219C96.3457 92.8405 95.7177 92.3776 95.1552 91.8414C94.1611 90.9014 93.2439 89.8831 92.4126 88.7964C90.8099 86.702 89.3613 84.494 88.0782 82.1898L89.6112 81.1944C90.3924 82.1814 91.1946 83.1894 92.0136 84.1596C92.8326 85.1298 93.6558 86.0958 94.5336 87.003C95.3499 87.905 96.23 88.7472 97.167 89.523C97.5627 89.8543 97.997 90.1364 98.4606 90.363C98.5729 90.4202 98.696 90.4531 98.8218 90.4596C98.8218 90.4596 98.7966 90.4596 98.7252 90.4596C98.6568 90.4751 98.5915 90.5021 98.532 90.5394C98.526 90.5488 98.5172 90.5562 98.5068 90.5604L98.6412 90.3882C98.7336 90.2748 98.826 90.1656 98.9142 90.048C99.0906 89.8128 99.2628 89.5776 99.4308 89.3298C99.7626 88.8426 100.082 88.3386 100.38 87.8094C100.976 86.7636 101.51 85.659 102.014 84.5376C102.518 83.4162 102.955 82.2528 103.366 81.081C103.778 79.9092 104.156 78.6954 104.471 77.5656L108.037 78.4224Z" fill="#FF8B7B"/>
<path d="M110.67 79.3548C110.279 80.451 108.952 82.4166 107.911 83.8698C107.15 84.9198 106.546 85.701 106.546 85.701L105.945 85.281L100.972 81.9C101.909 79.0566 103.152 76.02 106.621 75.18C108.805 74.6592 111.367 77.3976 110.67 79.3548Z" fill="#04459D"/>
<g opacity="0.5">
<path opacity="0.5" d="M110.67 79.3548C110.279 80.451 108.952 82.4166 107.911 83.8698C107.15 84.9198 106.546 85.701 106.546 85.701L105.945 85.281L100.972 81.9C101.909 79.0566 103.152 76.02 106.621 75.18C108.805 74.6592 111.367 77.3976 110.67 79.3548Z" fill="white"/>
</g>
<path opacity="0.3" d="M107.911 83.8698C107.15 84.9198 106.546 85.701 106.546 85.701L105.945 85.281C106.243 84.147 106.785 82.3704 107.575 81.6648C107.842 82.3675 107.957 83.1193 107.911 83.8698Z" fill="#151515"/>
<path d="M89.943 81.9672L90.1068 78.8424L86.3688 79.3632C86.3688 79.3632 87.423 81.7614 88.536 82.7652L89.943 81.9672Z" fill="#FF8B7B"/>
<path d="M88.8972 77.5404L86.1924 78.4434L86.3688 79.3632L90.1068 78.8424L88.8972 77.5404Z" fill="#FF8B7B"/>
<path d="M119.994 171.326L116.453 171.671L114.097 163.367L117.638 163.027L119.994 171.326Z" fill="#FF8B7B"/>
<path d="M145.547 163.342L142.267 164.85L137.718 157.739L140.998 156.232L145.547 163.342Z" fill="#FF8B7B"/>
<path d="M141.288 163.745L144.9 161.868C144.962 161.836 145.033 161.827 145.101 161.843C145.169 161.859 145.229 161.899 145.27 161.956L147.164 164.585C147.209 164.654 147.239 164.731 147.253 164.811C147.266 164.892 147.262 164.975 147.242 165.054C147.221 165.133 147.184 165.207 147.133 165.271C147.082 165.335 147.018 165.388 146.945 165.425C145.685 166.055 145.039 166.299 143.455 167.105C142.485 167.614 140.406 168.882 139.062 169.579C137.718 170.276 136.962 168.991 137.449 168.58C139.679 166.732 140.389 165.354 140.868 164.203C140.954 164.009 141.102 163.848 141.288 163.745Z" fill="#212529"/>
<path d="M115.819 170.591H120.12C120.197 170.592 120.271 170.618 120.332 170.665C120.392 170.712 120.436 170.778 120.456 170.852L121.388 174.241C121.412 174.321 121.416 174.405 121.4 174.487C121.385 174.569 121.35 174.645 121.299 174.711C121.249 174.777 121.183 174.83 121.108 174.866C121.033 174.902 120.951 174.919 120.868 174.917C119.356 174.917 118.642 174.917 116.756 174.917H110.981C109.418 174.917 109.091 173.334 109.721 173.191C112.623 172.549 114.299 171.662 115.181 170.818C115.267 170.74 115.367 170.679 115.477 170.64C115.587 170.601 115.703 170.585 115.819 170.591Z" fill="#212529"/>
<path opacity="0.2" d="M114.097 163.367L115.315 167.647H118.952L117.642 163.027L114.097 163.367Z" fill="#151515"/>
<path opacity="0.2" d="M141.002 156.232L137.718 157.739L140.066 161.406L143.346 159.898L141.002 156.232Z" fill="#151515"/>
<path d="M124.782 94.9746L110.237 96.8352C104.122 76.2552 105.659 75.5076 105.659 75.5076C105.659 75.5076 108.087 74.6676 110.565 74.0208C110.939 73.9242 111.317 73.8318 111.686 73.7478C113.866 73.3128 116.074 73.0321 118.293 72.9078L119.272 72.8448C121.04 72.7671 122.811 72.7952 124.576 72.9288C124.307 75.579 124.114 77.8218 123.992 79.7832C123.829 82.3368 123.778 84.4032 123.816 86.1924C123.905 89.1408 124.228 92.0774 124.782 94.9746Z" fill="#04459D"/>
<g opacity="0.5">
<path opacity="0.5" d="M124.782 94.9746L110.237 96.8352C104.122 76.2552 105.659 75.5076 105.659 75.5076C105.659 75.5076 108.087 74.6676 110.565 74.0208C110.939 73.9242 111.317 73.8318 111.686 73.7478C113.866 73.3128 116.074 73.0321 118.293 72.9078L119.272 72.8448C121.04 72.7671 122.811 72.7952 124.576 72.9288C124.307 75.579 124.114 77.8218 123.992 79.7832C123.829 82.3368 123.778 84.4032 123.816 86.1924C123.905 89.1408 124.228 92.0774 124.782 94.9746Z" fill="white"/>
</g>
<path opacity="0.3" d="M123.816 86.184C122.833 84.084 122.354 79.5018 122.976 77.931L123.992 79.7748C123.829 82.32 123.778 84.3864 123.816 86.184Z" fill="#151515"/>
<path d="M116.693 68.502C116.827 70.2996 117.251 72.1308 118.293 72.8994C116.662 73.3873 115.149 74.2034 113.845 75.2976C112.06 74.3568 111.691 73.7478 111.691 73.7478C113.988 72.8784 113.828 71.2992 112.854 68.7624L114.647 67.7964C114.802 67.6254 115.003 67.5036 115.227 67.4461C115.45 67.3887 115.685 67.3982 115.903 67.4733C116.121 67.5485 116.312 67.6861 116.453 67.869C116.593 68.0519 116.676 68.272 116.693 68.502Z" fill="#FF8B7B"/>
<path d="M112.14 72.3114C111.506 72.0216 110.317 73.5924 110.158 74.0124C109.998 74.4324 110.645 74.5626 110.578 75.117C110.51 75.6714 110.88 76.1628 111.976 76.5954C113.072 77.028 115.244 76.7676 115.966 75.6924C116.689 74.6172 121.191 73.7562 120.561 72.6852C119.931 71.6142 119.444 72.2148 118.999 71.1438C118.553 70.0728 116.668 71.0976 116.059 71.6562C115.45 72.2148 114.811 73.5252 112.14 72.3114Z" fill="#04459D"/>
<path opacity="0.2" d="M114.66 67.7922C114.805 67.6319 114.992 67.5148 115.199 67.4539C115.406 67.393 115.627 67.3907 115.835 67.4472C116.044 67.5037 116.233 67.6168 116.381 67.7741C116.53 67.9313 116.632 68.1266 116.676 68.3382C115.996 69.7136 114.897 70.8383 113.539 71.5512C113.491 70.5865 113.263 69.6392 112.867 68.7582L114.66 67.7922Z" fill="#151515"/>
<path d="M119.482 62.8656C118.591 66.339 118.289 67.8258 116.168 69.2874C112.976 71.484 108.906 69.6318 108.742 65.9652C108.595 62.664 110.078 57.54 113.782 56.805C114.599 56.6381 115.445 56.6829 116.24 56.935C117.034 57.1872 117.751 57.6384 118.322 58.2457C118.893 58.853 119.3 59.5963 119.503 60.4049C119.706 61.2135 119.698 62.0606 119.482 62.8656Z" fill="#FF8B7B"/>
<path d="M119.65 66.2844C119.506 66.5962 119.302 66.8767 119.05 67.1095C118.798 67.3423 118.502 67.5229 118.18 67.641C117.314 67.956 116.815 67.1958 116.999 66.3474C117.167 65.583 117.818 64.4952 118.713 64.554C118.908 64.5703 119.095 64.6348 119.258 64.7417C119.422 64.8485 119.556 64.9944 119.649 65.1661C119.742 65.3378 119.791 65.5299 119.791 65.7251C119.791 65.9204 119.742 66.1126 119.65 66.2844Z" fill="#FF8B7B"/>
<path d="M110.716 58.8798C112.421 58.5312 116.516 58.821 116.873 60.4968C115.416 61.8576 116.117 66.2424 114.601 67.5276C116.815 69.6276 121.204 69.6486 121.204 69.6486C121.204 69.6486 125.542 57.8592 120.246 57.2838C119.133 54.3018 113.106 54.033 109.964 56.4438" fill="#212529"/>
<path d="M118.86 60.6606H116.76C116.686 60.6606 116.616 60.6314 116.564 60.5794C116.512 60.5274 116.483 60.4569 116.483 60.3834C116.484 60.3102 116.513 60.2403 116.565 60.1886C116.617 60.1368 116.687 60.1073 116.76 60.1062H118.86C118.934 60.1062 119.004 60.1354 119.056 60.1874C119.108 60.2394 119.137 60.3099 119.137 60.3834C119.138 60.42 119.131 60.4563 119.117 60.4901C119.104 60.524 119.083 60.5548 119.057 60.5807C119.031 60.6065 119.001 60.6269 118.967 60.6407C118.933 60.6544 118.897 60.6612 118.86 60.6606Z" fill="#04459D"/>
<path d="M110.237 96.8394C110.237 96.8394 104.651 124.95 106.512 135.807C108.297 146.215 113.786 166.408 113.786 166.408L120.015 166.249C120.015 166.249 116.105 142.85 116.029 134.152C115.899 119.725 120.889 95.4744 120.889 95.4744L110.237 96.8394Z" fill="#04459D"/>
<path d="M113.396 166.732L120.603 166.534L120.158 164.17L112.35 164.569L113.396 166.732Z" fill="#212529"/>
<path opacity="0.3" d="M115.311 100.246L117.802 95.8692L120.889 95.4744C120.889 95.4744 118.616 106.504 117.18 118.108C115.454 112.56 114.845 102.799 115.311 100.246Z" fill="#151515"/>
<path d="M113.4 96.474C113.4 96.474 117.814 120.254 121.75 133.833C124.925 144.799 138.256 159.743 138.256 159.743L142.968 157.378C142.968 157.378 134.022 140.822 131.804 133.371C124.711 109.532 130.259 100.867 124.765 94.9746L113.4 96.474Z" fill="#04459D"/>
<path d="M138.306 161.196L143.854 158.332L143.023 155.967L136.895 159.369L138.306 161.196Z" fill="#212529"/>
<path d="M124.891 94.08L125.731 95.298C125.794 95.3904 125.689 95.5122 125.521 95.5332L110.263 97.4904C110.132 97.4904 110.015 97.4568 109.998 97.3728L109.7 96.0876C109.7 95.9994 109.784 95.907 109.927 95.8902L124.656 94.0002C124.699 93.9932 124.743 93.9969 124.784 94.0108C124.825 94.0247 124.862 94.0485 124.891 94.08Z" fill="#04459D"/>
<path opacity="0.4" d="M124.891 94.08L125.731 95.298C125.794 95.3904 125.689 95.5122 125.521 95.5332L110.263 97.4904C110.132 97.4904 110.015 97.4568 109.998 97.3728L109.7 96.0876C109.7 95.9994 109.784 95.907 109.927 95.8902L124.656 94.0002C124.699 93.9932 124.743 93.9969 124.784 94.0108C124.825 94.0247 124.862 94.0485 124.891 94.08Z" fill="white"/>
<path d="M123.123 95.9952L123.518 95.9406C123.598 95.9406 123.652 95.886 123.64 95.8356L123.22 94.1556C123.22 94.1052 123.136 94.0758 123.056 94.0842L122.661 94.1346C122.585 94.1346 122.531 94.1934 122.539 94.2438L122.959 95.9238C122.972 95.97 123.06 96.0036 123.123 95.9952Z" fill="#212529"/>
<path d="M111.376 97.4988L111.77 97.4484C111.846 97.4484 111.901 97.3896 111.892 97.3434L111.472 95.6634C111.472 95.613 111.384 95.5794 111.308 95.592L110.914 95.6424C110.834 95.6424 110.779 95.7012 110.792 95.7474L111.212 97.4274C111.22 97.4778 111.3 97.5114 111.376 97.4988Z" fill="#212529"/>
<path d="M117.247 96.747L117.642 96.6966C117.722 96.6966 117.776 96.6378 117.764 96.5874L117.365 94.9074C117.365 94.8612 117.277 94.8276 117.201 94.836L116.806 94.8864C116.726 94.8864 116.672 94.9452 116.684 94.9956L117.083 96.6756C117.096 96.726 117.18 96.7554 117.247 96.747Z" fill="#212529"/>
<path d="M113.534 62.7186C113.48 63.0042 113.282 63.2058 113.114 63.168C112.946 63.1302 112.82 62.874 112.875 62.5884C112.93 62.3028 113.127 62.097 113.295 62.1348C113.463 62.1726 113.589 62.433 113.534 62.7186Z" fill="#212529"/>
<path d="M110.3 62.097C110.246 62.3826 110.053 62.5842 109.88 62.5464C109.708 62.5086 109.586 62.2524 109.641 61.9668C109.696 61.6812 109.893 61.4754 110.082 61.5132C110.271 61.551 110.359 61.8072 110.3 62.097Z" fill="#212529"/>
<path d="M110.145 61.5426L109.494 61.215C109.494 61.215 109.742 61.8198 110.145 61.5426Z" fill="#212529"/>
<path d="M111.157 62.7354C110.777 63.3385 110.317 63.8868 109.788 64.365C109.914 64.4974 110.067 64.601 110.236 64.6684C110.406 64.7359 110.588 64.7656 110.771 64.7556L111.157 62.7354Z" fill="#FF5652"/>
<path d="M111.863 66.1794C111.849 66.1706 111.838 66.158 111.831 66.143C111.825 66.1281 111.822 66.1116 111.825 66.0954C111.829 66.0727 111.842 66.0525 111.861 66.0391C111.88 66.0258 111.903 66.0203 111.926 66.024C112.28 66.1013 112.647 66.0937 112.997 66.0017C113.348 65.9097 113.671 65.736 113.942 65.4948C113.958 65.4791 113.98 65.4704 114.003 65.4704C114.025 65.4704 114.047 65.4791 114.064 65.4948C114.072 65.5023 114.078 65.5114 114.083 65.5215C114.087 65.5316 114.089 65.5425 114.089 65.5536C114.089 65.5647 114.087 65.5756 114.083 65.5857C114.078 65.5958 114.072 65.6049 114.064 65.6124C113.775 65.8775 113.426 66.0687 113.047 66.1697C112.668 66.2706 112.27 66.2783 111.888 66.192C111.879 66.1905 111.87 66.1861 111.863 66.1794Z" fill="#212529"/>
<path d="M114.66 61.8366C114.634 61.8206 114.614 61.7972 114.601 61.7694C114.512 61.5742 114.378 61.4029 114.21 61.2693C114.042 61.1357 113.845 61.0437 113.635 61.0008C113.613 60.9988 113.591 60.9922 113.571 60.9814C113.551 60.9707 113.533 60.9561 113.519 60.9385C113.505 60.9208 113.495 60.9005 113.489 60.8788C113.483 60.857 113.481 60.8342 113.484 60.8118C113.49 60.7673 113.513 60.7268 113.548 60.6987C113.584 60.6706 113.628 60.657 113.673 60.6606C113.941 60.7083 114.193 60.8203 114.408 60.9871C114.624 61.1539 114.795 61.3705 114.908 61.6182C114.928 61.6589 114.932 61.706 114.918 61.7493C114.903 61.7926 114.873 61.8285 114.832 61.8492C114.805 61.8617 114.775 61.867 114.744 61.8648C114.714 61.8626 114.685 61.8529 114.66 61.8366Z" fill="#212529"/>
<path d="M109.171 60.4086V60.3792C109.164 60.358 109.162 60.3357 109.164 60.3136C109.166 60.2915 109.173 60.2701 109.184 60.2506C109.194 60.2311 109.208 60.2138 109.226 60.1998C109.243 60.1859 109.263 60.1755 109.284 60.1692C109.542 60.0833 109.817 60.0613 110.086 60.1052C110.354 60.1491 110.608 60.2575 110.825 60.4212C110.86 60.4507 110.882 60.493 110.886 60.5387C110.89 60.5844 110.876 60.6297 110.846 60.6648C110.817 60.6999 110.775 60.7218 110.729 60.7258C110.683 60.7297 110.638 60.7153 110.603 60.6858C110.43 60.5582 110.229 60.4743 110.017 60.4413C109.805 60.4084 109.588 60.4275 109.385 60.4968C109.344 60.5104 109.301 60.509 109.261 60.4928C109.222 60.4766 109.19 60.4467 109.171 60.4086Z" fill="#212529"/>
<path d="M126.071 76.5954C126.55 77.112 126.949 77.5824 127.357 78.0948C127.764 78.6072 128.155 79.107 128.537 79.6236C129.289 80.6652 129.998 81.7236 130.637 82.8534C131.301 83.9714 131.895 85.1301 132.413 86.3226C132.552 86.6208 132.665 86.9316 132.791 87.234C132.917 87.5364 133.035 87.843 133.14 88.158C133.245 88.473 133.354 88.767 133.463 89.1156L133.615 89.6784L133.724 90.237C133.911 91.6353 133.861 93.0552 133.577 94.437C133.315 95.7265 132.942 96.9912 132.464 98.217C131.995 99.409 131.467 100.577 130.88 101.716C130.292 102.844 129.644 103.94 128.94 105L127.361 104.068C127.856 103.001 128.344 101.871 128.759 100.75C129.194 99.6384 129.571 98.5058 129.889 97.356C130.207 96.2443 130.439 95.1097 130.582 93.9624C130.646 93.4173 130.677 92.869 130.675 92.3202C130.664 91.811 130.61 91.3036 130.511 90.804L130.427 90.4596L130.322 90.132C130.238 89.8968 130.112 89.607 130.007 89.3508C129.902 89.0946 129.784 88.8216 129.658 88.557C129.532 88.2924 129.423 88.032 129.284 87.7758C128.768 86.7342 128.159 85.7304 127.546 84.7266C126.932 83.7228 126.244 82.761 125.534 81.816C125.185 81.3372 124.824 80.8668 124.454 80.4048C124.085 79.9428 123.698 79.4766 123.35 79.0776L126.071 76.5954Z" fill="#FF8B7B"/>
<path d="M128.1 103.06L125.202 104.475L128.176 106.798C128.176 106.798 129.465 105.244 129.41 103.744L128.1 103.06Z" fill="#FF8B7B"/>
<path d="M123.824 107.348L126.353 108.658L128.155 106.798L125.181 104.475L123.824 107.348Z" fill="#FF8B7B"/>
<path d="M124.576 72.9204C126.378 73.164 129.1 78.1956 129.1 78.1956L124.517 82.698C124.517 82.698 121.006 78.6954 121.099 76.356C121.183 74.3694 122.279 72.6138 124.576 72.9204Z" fill="#04459D"/>
<g opacity="0.5">
<path opacity="0.5" d="M124.576 72.9204C126.378 73.164 129.1 78.1956 129.1 78.1956L124.517 82.698C124.517 82.698 121.006 78.6954 121.099 76.356C121.183 74.3694 122.279 72.6138 124.576 72.9204Z" fill="white"/>
</g>
<path d="M139.86 165.06C139.84 165.062 139.821 165.062 139.801 165.06C139.721 165.038 139.648 164.995 139.589 164.936C139.53 164.877 139.487 164.804 139.465 164.724C139.445 164.677 139.438 164.625 139.445 164.574C139.451 164.523 139.472 164.475 139.503 164.434C139.789 164.069 141.091 164.191 141.238 164.203C141.254 164.205 141.27 164.212 141.283 164.224C141.296 164.235 141.305 164.25 141.309 164.266C141.313 164.282 141.313 164.298 141.309 164.314C141.304 164.329 141.296 164.343 141.284 164.354C140.923 164.64 140.28 165.102 139.86 165.06ZM141.011 164.346C140.49 164.312 139.789 164.346 139.637 164.527C139.626 164.546 139.62 164.567 139.62 164.59C139.62 164.612 139.626 164.633 139.637 164.653C139.65 164.707 139.677 164.757 139.716 164.797C139.754 164.838 139.802 164.868 139.856 164.884C140.07 164.926 140.503 164.728 140.998 164.325L141.011 164.346Z" fill="#04459D"/>
<path d="M141.12 164.333C140.7 164.27 139.86 163.913 139.763 163.544C139.744 163.479 139.747 163.409 139.773 163.346C139.799 163.283 139.846 163.231 139.906 163.199C139.959 163.16 140.02 163.133 140.085 163.121C140.15 163.109 140.217 163.113 140.28 163.132C140.788 163.258 141.275 164.178 141.296 164.216C141.304 164.229 141.308 164.244 141.308 164.26C141.308 164.275 141.304 164.29 141.296 164.304C141.288 164.316 141.277 164.326 141.263 164.333C141.25 164.339 141.235 164.342 141.221 164.342L141.12 164.333ZM140.204 163.292C140.169 163.286 140.134 163.287 140.099 163.295C140.064 163.303 140.032 163.317 140.003 163.338C139.915 163.401 139.915 163.456 139.927 163.493C139.999 163.737 140.629 164.065 141.061 164.153C140.885 163.855 140.545 163.372 140.221 163.313L140.204 163.292Z" fill="#04459D"/>
<path d="M113.917 171.297C113.623 171.318 113.33 171.249 113.077 171.1C113.011 171.05 112.958 170.987 112.921 170.914C112.884 170.842 112.864 170.761 112.862 170.68C112.856 170.635 112.863 170.589 112.881 170.547C112.9 170.505 112.93 170.47 112.967 170.444C113.358 170.184 114.815 170.864 115.105 170.982C115.121 170.989 115.134 171.001 115.142 171.016C115.151 171.031 115.154 171.049 115.151 171.066C115.15 171.084 115.143 171.101 115.13 171.115C115.118 171.129 115.102 171.138 115.084 171.142C114.701 171.233 114.31 171.285 113.917 171.297ZM113.236 170.558C113.178 170.554 113.119 170.567 113.068 170.596C113.056 170.605 113.046 170.617 113.04 170.631C113.034 170.645 113.032 170.66 113.035 170.675C113.036 170.731 113.05 170.786 113.076 170.836C113.103 170.886 113.14 170.928 113.186 170.961C113.438 171.15 114.026 171.175 114.794 171.037C114.303 170.797 113.777 170.635 113.236 170.558Z" fill="#04459D"/>
<path d="M115.08 171.15H115.046C114.563 170.953 113.589 170.171 113.644 169.764C113.644 169.676 113.715 169.567 113.938 169.541C114.778 169.441 115.147 170.986 115.164 171.049C115.168 171.065 115.167 171.082 115.162 171.098C115.157 171.113 115.147 171.127 115.135 171.137C115.118 171.148 115.099 171.152 115.08 171.15ZM114.013 169.701H113.959C113.866 169.701 113.82 169.739 113.812 169.781C113.782 170.016 114.454 170.621 114.95 170.902C114.828 170.52 114.517 169.701 114.005 169.701H114.013Z" fill="#04459D"/>
<path d="M113.375 62.16L112.728 61.8324C112.728 61.8324 112.98 62.4414 113.375 62.16Z" fill="#212529"/>
<path d="M49.0728 171.364L52.4454 171.314L53.2182 163.493L49.8498 163.544L49.0728 171.364Z" fill="#B55B52"/>
<path d="M32.382 171.377H35.7546L37.0776 163.569H33.7092L32.382 171.377Z" fill="#B55B52"/>
<path d="M36.2207 170.986H32.1089C32.0422 170.987 31.9775 171.01 31.9256 171.052C31.8737 171.094 31.8376 171.152 31.8233 171.217L31.1555 174.216C31.1404 174.289 31.1418 174.364 31.1598 174.437C31.1779 174.509 31.2119 174.576 31.2596 174.634C31.3072 174.691 31.3671 174.737 31.4349 174.768C31.5027 174.799 31.5766 174.814 31.6511 174.812C32.9741 174.791 33.9359 174.712 35.6033 174.712C36.6281 174.712 39.7193 174.821 41.1347 174.821C42.5501 174.821 42.7349 173.422 42.1553 173.292C39.5555 172.725 37.5983 171.944 36.7667 171.192C36.6152 171.06 36.4215 170.987 36.2207 170.986Z" fill="#212529"/>
<path d="M52.4159 170.94L48.7325 170.999C48.6661 170.999 48.6016 171.021 48.5503 171.064C48.4989 171.106 48.4638 171.165 48.4511 171.23L47.8295 174.237C47.8134 174.31 47.8142 174.385 47.8319 174.458C47.8496 174.53 47.8837 174.598 47.9316 174.655C47.9795 174.712 48.0398 174.758 48.1081 174.788C48.1763 174.818 48.2506 174.832 48.3251 174.829C49.6523 174.787 51.5717 174.678 53.2391 174.653C55.1921 174.623 56.8805 174.703 59.1653 174.653C60.5513 174.632 60.9125 173.229 60.3329 173.111C57.6869 172.574 55.5323 172.544 53.2307 171.175C52.9858 171.024 52.704 170.942 52.4159 170.94Z" fill="#212529"/>
<path d="M54.9485 68.6952C56.0321 70.7238 57.1787 72.8112 58.3337 74.8314C59.4887 76.8516 60.6941 78.8592 61.9793 80.7114C62.1347 80.9508 62.3027 81.1692 62.4665 81.3918L62.7101 81.7236L62.8193 81.8748L62.8613 81.9336C62.9662 82.0856 63.1118 82.2049 63.2813 82.278C63.7349 82.4754 64.6925 82.4502 65.6585 82.2192C66.7031 81.9544 67.7221 81.5974 68.7035 81.1524C69.2159 80.9214 69.7367 80.6904 70.2449 80.43C70.7531 80.1696 71.2739 79.8924 71.7443 79.6404L73.3109 81.6312C72.8321 82.1058 72.3743 82.5048 71.8787 82.8912C71.3831 83.2776 70.8917 83.685 70.3625 84.0462C69.2783 84.8146 68.1102 85.4571 66.8807 85.9614C66.2025 86.2322 65.4991 86.4348 64.7807 86.5662C63.9291 86.7145 63.0572 86.7017 62.2103 86.5284C61.2131 86.3197 60.2964 85.8301 59.5685 85.1172C59.4761 85.029 59.3921 84.9366 59.3081 84.8442L59.1359 84.6468L58.8209 84.2772C58.6109 84.0336 58.4009 83.7858 58.2035 83.538C56.6619 81.5878 55.2424 79.5441 53.9531 77.4186C52.6931 75.3186 51.4919 73.2186 50.3873 70.9884L54.9485 68.6952Z" fill="#B65B52"/>
<path d="M48.9426 68.796C48.0312 71.8872 54.432 80.3166 54.432 80.3166L60.9 76.167C59.6858 73.494 58.1876 70.9595 56.4312 68.607C53.76 65.2176 49.938 65.4024 48.9426 68.796Z" fill="#04459D"/>
<path opacity="0.2" d="M48.9426 68.796C48.0312 71.8872 54.432 80.3166 54.432 80.3166L60.9 76.167C59.6858 73.494 58.1876 70.9595 56.4312 68.607C53.76 65.2176 49.938 65.4024 48.9426 68.796Z" fill="white"/>
<path opacity="0.2" d="M52.8738 72.4248C54.201 72.9918 56.154 76.2048 57.1704 78.5568L54.432 80.3166C52.9022 78.2711 51.5264 76.1147 50.316 73.8654C51.1812 72.9162 52.1724 72.1266 52.8738 72.4248Z" fill="#151515"/>
<path d="M71.4672 79.8L73.8192 78.4014L75.8352 81.9042C75.8352 81.9042 73.2186 83.4372 71.526 81.6564L71.4672 79.8Z" fill="#B55B52"/>
<path d="M77.1078 78.435L78.162 81.1356L75.8352 81.9042L73.8192 78.4014L77.1078 78.435Z" fill="#B55B52"/>
<path opacity="0.2" d="M53.2181 163.493L52.8191 167.525L49.4465 167.58L49.8455 163.548L53.2181 163.493Z" fill="#151515"/>
<path opacity="0.2" d="M33.705 163.573H37.0776L36.393 167.597H33.0204L33.705 163.573Z" fill="#151515"/>
<path d="M33.915 67.4268C37.5438 80.22 36.96 93.8196 37.1784 96.6L55.1964 95.9238C58.2582 76.8348 52.7604 66.2088 52.7604 66.2088C52.7604 66.2088 51.6054 65.9862 50.0346 65.8224C49.539 65.772 49.0098 65.73 48.4554 65.7006C48.1488 65.7006 47.838 65.6712 47.523 65.667C44.9737 65.7057 42.4286 65.8894 39.9 66.2172C39.417 66.276 38.9298 66.3516 38.4594 66.4272C37.989 66.5028 37.59 66.5826 37.1994 66.6624C35.3304 67.0278 33.915 67.4268 33.915 67.4268Z" fill="#04459D"/>
<path opacity="0.2" d="M33.915 67.4268C37.5438 80.22 36.96 93.8196 37.1784 96.6L55.1964 95.9238C58.2582 76.8348 52.7604 66.2088 52.7604 66.2088C52.7604 66.2088 51.6054 65.9862 50.0346 65.8224C49.539 65.772 49.0098 65.73 48.4554 65.7006C48.1488 65.7006 47.838 65.6712 47.523 65.667C44.9737 65.7057 42.4286 65.8894 39.9 66.2172C39.417 66.276 38.9298 66.3516 38.4594 66.4272C37.989 66.5028 37.59 66.5826 37.1994 66.6624C35.3304 67.0278 33.915 67.4268 33.915 67.4268Z" fill="white"/>
<path opacity="0.2" d="M37.7496 72.9204C38.073 74.1594 37.7034 79.8126 36.4098 81.207C36.2334 79.3968 35.9898 77.5068 35.6874 75.5748L37.7496 72.9204Z" fill="#151515"/>
<path d="M48.5813 65.6922H48.4511C48.1445 65.6922 47.8337 65.6628 47.5187 65.6586C44.962 65.7022 42.4099 65.8915 39.8747 66.2256C39.5051 66.2718 39.1355 66.3264 38.7701 66.3852L39.3287 66.864C40.9835 68.2794 42.9113 69.5898 45.7673 69.5898H46.1327C47.5901 69.531 48.5225 69.0564 48.9131 68.1702C49.0595 67.7606 49.1058 67.322 49.0481 66.8909C48.9904 66.4598 48.8303 66.0488 48.5813 65.6922Z" fill="white"/>
<path d="M39.9966 57.54C40.6602 59.9634 41.475 64.4364 39.879 66.2046C41.3154 67.4352 43.176 68.838 46.1034 68.7246C49.0308 68.6112 48.3714 66.6246 47.523 65.6376C44.73 65.184 44.6502 63.1428 45.003 61.1982L39.9966 57.54Z" fill="#B55B52"/>
<path opacity="0.2" d="M42.0294 59.0478L44.9694 61.2108C44.8856 61.6639 44.8406 62.1234 44.835 62.5842C43.7766 62.5086 42.252 61.467 42.0588 60.3792C41.9675 59.9409 41.9576 59.4896 42.0294 59.0478Z" fill="#151515"/>
<path d="M47.1156 55.2006C48.0732 56.175 49.833 50.862 47.9556 49.5726C46.0782 48.2832 42.42 50.4 47.1156 55.2006Z" fill="#212529"/>
<path d="M39.4254 53.8734C39.879 57.1872 39.9756 59.1528 41.7858 60.7362C44.5074 63.1176 48.5058 61.2864 49.0518 57.9054C49.5432 54.8604 48.72 49.9506 45.3642 48.867C44.6247 48.6245 43.8355 48.5751 43.0715 48.7234C42.3075 48.8717 41.5941 49.2129 40.9991 49.7145C40.404 50.2161 39.9471 50.8615 39.6717 51.5894C39.3963 52.3173 39.3115 53.1035 39.4254 53.8734Z" fill="#B55B52"/>
<path d="M39.8579 56.8764C40.9457 57.7164 41.8991 52.185 39.8579 51.1896C37.8167 50.1942 34.4819 52.8318 39.8579 56.8764Z" fill="#212529"/>
<path d="M38.5812 51.9414C41.7774 53.0376 50.7612 52.017 49.1736 45.4776C48.4974 42.6552 45.4398 45.0576 45.2298 46.62C43.6674 45.3348 40.7652 45.6162 41.1054 47.67C39.4212 47.1786 33.054 48.72 38.5812 51.9414Z" fill="#212529"/>
<path d="M38.1948 57.6576C38.4441 57.996 38.7581 58.2816 39.1186 58.4979C39.4791 58.7141 39.8788 58.8568 40.2948 58.9176C41.3994 59.0772 41.8068 58.0524 41.3784 57.0864C40.992 56.217 39.9546 55.0872 38.9046 55.3728C37.8546 55.6584 37.59 56.8218 38.1948 57.6576Z" fill="#B55B52"/>
<path d="M54.0708 166.74L48.363 166.828C48.363 166.828 50.2656 144.278 49.7532 133.787C49.5978 130.595 48.9552 126.13 48.111 121.346C47.0484 115.315 46.536 112.913 45.171 105.294C44.1882 99.8592 43.365 96.3648 43.365 96.3648L55.209 95.9196C55.209 95.9196 58.8588 122.43 58.7454 132.716C58.6152 143.401 54.0708 166.74 54.0708 166.74Z" fill="#212529"/>
<path opacity="0.2" d="M47.46 103.32C49.5852 108.612 49.6272 121.01 48.6486 124.501C48.4806 123.467 48.3 122.401 48.111 121.334C47.0442 115.303 46.5318 112.9 45.171 105.281C45.1458 105.13 45.1164 104.983 45.0912 104.836C45.7875 104.198 46.5889 103.685 47.46 103.32Z" fill="#151515"/>
<path d="M48.8081 96.1464C48.8081 96.1464 46.6577 124.089 45.0743 133.841C43.3439 144.518 37.9595 166.816 37.9595 166.816H31.7855C31.7855 166.816 33.8225 146.656 35.0867 136.156C36.5231 124.228 37.1867 96.5706 37.1867 96.5706L48.8081 96.1464Z" fill="#212529"/>
<path d="M38.6988 166.95H31.4286V164.779L39.5556 164.636L38.6988 166.95Z" fill="#04459D"/>
<path opacity="0.5" d="M38.6988 166.95H31.4286V164.779L39.5556 164.636L38.6988 166.95Z" fill="white"/>
<path d="M54.789 166.849L47.9892 166.954L47.9514 164.758L55.5534 164.522L54.789 166.849Z" fill="#04459D"/>
<path opacity="0.5" d="M54.789 166.849L47.9892 166.954L47.9514 164.758L55.5534 164.522L54.789 166.849Z" fill="white"/>
<path d="M44.5494 54.4278C44.5494 54.7008 44.73 54.9108 44.9064 54.894C45.0828 54.8772 45.2088 54.6504 45.1878 54.3816C45.1668 54.1128 45.0114 53.9028 44.8308 53.9154C44.6502 53.928 44.52 54.18 44.5494 54.4278Z" fill="#212529"/>
<path d="M47.6111 54.201C47.6111 54.474 47.7917 54.6798 47.9723 54.6672C48.1529 54.6546 48.2747 54.4236 48.2537 54.1548C48.2327 53.886 48.0731 53.6718 47.8967 53.6844C47.7203 53.697 47.5943 53.928 47.6111 54.201Z" fill="#212529"/>
<path d="M46.6494 54.4068C47.0334 55.2126 47.5267 55.9617 48.1152 56.6328C47.9419 56.7765 47.7396 56.8809 47.5221 56.939C47.3045 56.997 47.077 57.0071 46.8552 56.9688L46.6494 54.4068Z" fill="#A02724"/>
<path d="M45.7506 57.7794C45.4452 57.7668 45.1456 57.6918 44.8703 57.5589C44.5951 57.426 44.35 57.238 44.1504 57.0066C44.1376 56.9893 44.1321 56.9676 44.1353 56.9464C44.1384 56.9251 44.1499 56.906 44.1672 56.8932C44.1844 56.8803 44.2061 56.8749 44.2273 56.8781C44.2486 56.8812 44.2677 56.8927 44.2806 56.91C44.5058 57.1627 44.7875 57.3588 45.1028 57.4821C45.4181 57.6055 45.758 57.6526 46.095 57.6198C46.1155 57.6186 46.1356 57.6253 46.1513 57.6386C46.1669 57.6519 46.1768 57.6707 46.179 57.6912C46.1801 57.702 46.1791 57.7129 46.1758 57.7233C46.1726 57.7337 46.1673 57.7433 46.1602 57.7516C46.1531 57.7598 46.1444 57.7666 46.1347 57.7713C46.1249 57.7761 46.1142 57.7788 46.1034 57.7794C45.9859 57.7878 45.868 57.7878 45.7506 57.7794Z" fill="#212529"/>
<path d="M43.5288 53.508C43.5016 53.508 43.475 53.4991 43.4532 53.4828C43.4178 53.4603 43.3927 53.4248 43.3832 53.3839C43.3738 53.343 43.3808 53.3001 43.4028 53.2644C43.5367 53.0464 43.721 52.8639 43.9404 52.7323C44.1597 52.6007 44.4075 52.5239 44.6628 52.5084C44.7052 52.5084 44.7458 52.5252 44.7757 52.5551C44.8056 52.585 44.8224 52.6256 44.8224 52.668C44.8224 52.7103 44.8056 52.7509 44.7757 52.7808C44.7458 52.8107 44.7052 52.8276 44.6628 52.8276C44.4623 52.8433 44.2684 52.9067 44.0975 53.0127C43.9265 53.1186 43.7833 53.264 43.68 53.4366C43.6646 53.462 43.6421 53.4824 43.6152 53.4951C43.5883 53.5078 43.5583 53.5123 43.5288 53.508Z" fill="#212529"/>
<path d="M48.8544 53.0502C48.8284 53.0481 48.8034 53.0398 48.7815 53.0259C48.7595 53.012 48.7413 52.9929 48.7284 52.9704C48.6317 52.7942 48.4951 52.6432 48.3295 52.5294C48.164 52.4156 47.974 52.3423 47.775 52.3152C47.7326 52.3152 47.692 52.2984 47.6621 52.2684C47.6322 52.2385 47.6154 52.1979 47.6154 52.1556C47.6154 52.1132 47.6322 52.0726 47.6621 52.0427C47.692 52.0128 47.7326 51.996 47.775 51.996C48.0265 52.0251 48.2675 52.1139 48.4779 52.2549C48.6883 52.3958 48.862 52.585 48.9846 52.8066C48.9957 52.8246 49.003 52.8447 49.006 52.8657C49.0091 52.8866 49.0078 52.908 49.0023 52.9285C48.9968 52.9489 48.9872 52.968 48.974 52.9846C48.9608 53.0012 48.9444 53.0149 48.9258 53.025C48.9042 53.0388 48.8798 53.0475 48.8544 53.0502Z" fill="#212529"/>
<path d="M37.3338 171.578C37.0363 171.57 36.7405 171.529 36.4518 171.457C36.4365 171.453 36.4226 171.444 36.4122 171.432C36.4017 171.42 36.395 171.405 36.393 171.389C36.3908 171.374 36.3932 171.358 36.3999 171.344C36.4066 171.33 36.4174 171.318 36.4308 171.31C36.5526 171.234 37.6404 170.566 38.0142 170.755C38.0545 170.778 38.0881 170.811 38.1117 170.851C38.1353 170.89 38.148 170.936 38.1486 170.982C38.1579 171.06 38.1478 171.139 38.1193 171.212C38.0907 171.286 38.0445 171.351 37.9848 171.402C37.7933 171.531 37.5644 171.593 37.3338 171.578ZM36.6828 171.36C37.2582 171.473 37.695 171.452 37.8798 171.297C37.9211 171.263 37.9529 171.219 37.972 171.169C37.9911 171.118 37.997 171.064 37.989 171.011C37.9903 170.992 37.9862 170.973 37.9773 170.956C37.9685 170.939 37.9551 170.925 37.9386 170.915C37.7454 170.797 37.128 171.087 36.6828 171.36Z" fill="#04459D"/>
<path d="M36.4728 171.457C36.4577 171.461 36.4417 171.461 36.4266 171.457C36.4146 171.449 36.405 171.439 36.399 171.426C36.393 171.413 36.3909 171.399 36.393 171.385C36.393 171.343 36.477 170.369 36.8676 170.05C36.9135 170.009 36.9677 169.979 37.0265 169.961C37.0853 169.944 37.1471 169.94 37.2078 169.949C37.2671 169.949 37.3247 169.969 37.3706 170.007C37.4166 170.044 37.4481 170.096 37.4598 170.155C37.5312 170.533 36.8592 171.272 36.5106 171.461L36.4728 171.457ZM37.1532 170.1C37.0847 170.099 37.0186 170.125 36.9684 170.171C36.7251 170.472 36.5787 170.84 36.5484 171.226C36.897 170.961 37.3254 170.386 37.2834 170.184C37.2834 170.163 37.2834 170.113 37.1658 170.1H37.1322H37.1532Z" fill="#04459D"/>
<path d="M52.752 171.385C52.7385 171.379 52.7267 171.37 52.7178 171.358C52.709 171.347 52.7034 171.333 52.7016 171.318C52.6981 171.302 52.6998 171.286 52.7067 171.272C52.7136 171.257 52.7251 171.245 52.7394 171.238C52.8948 171.154 54.2388 170.449 54.6504 170.667C54.6892 170.688 54.7218 170.719 54.7454 170.757C54.7689 170.794 54.7825 170.837 54.7848 170.881C54.7946 170.953 54.7867 171.026 54.7618 171.094C54.7369 171.162 54.6958 171.223 54.642 171.272C54.2766 171.604 53.3106 171.486 52.7646 171.385H52.752ZM54.5454 170.797C54.2892 170.713 53.5584 171.003 53.0292 171.268C53.7768 171.381 54.3312 171.339 54.5328 171.154C54.5687 171.122 54.5959 171.081 54.612 171.036C54.6282 170.99 54.6327 170.941 54.6252 170.894C54.6255 170.876 54.621 170.859 54.6121 170.845C54.6032 170.83 54.5902 170.818 54.5748 170.81L54.5454 170.797Z" fill="#04459D"/>
<path d="M52.752 171.385C52.7402 171.377 52.7306 171.367 52.724 171.354C52.7174 171.342 52.714 171.328 52.7142 171.314C52.7142 171.276 52.794 170.365 53.2182 170.008C53.2753 169.957 53.3418 169.919 53.4139 169.894C53.486 169.87 53.5623 169.86 53.6382 169.865C53.8566 169.865 53.9238 169.991 53.9406 170.083C54.0078 170.461 53.214 171.205 52.8066 171.394C52.788 171.396 52.769 171.393 52.752 171.385ZM53.7096 170.024H53.6298C53.5713 170.019 53.5123 170.026 53.4565 170.045C53.4008 170.063 53.3497 170.094 53.3064 170.134C53.0622 170.431 52.9155 170.796 52.8864 171.179C53.3064 170.923 53.8356 170.339 53.7936 170.113C53.7852 170.1 53.76 170.045 53.7096 170.024Z" fill="#04459D"/>
<path d="M37.6446 71.757L34.4778 78.6576C33.9612 79.8126 33.432 80.9592 32.9406 82.1184C32.697 82.6938 32.4366 83.2692 32.2056 83.8446L32.025 84.2646C31.9662 84.4116 31.9326 84.5124 31.8864 84.6342C31.7898 84.8694 31.7268 85.1298 31.647 85.3776C31.3627 86.4515 31.2076 87.5555 31.185 88.6662C31.1474 89.8525 31.1951 91.04 31.3278 92.2194C31.458 93.4206 31.6554 94.6344 31.9074 95.844C32.1594 97.0536 32.4618 98.2884 32.7894 99.435L30.4668 100.443C30.1266 99.813 29.8452 99.2292 29.5722 98.6076C29.2992 97.986 29.0472 97.377 28.8078 96.747C28.3298 95.4803 27.9342 94.184 27.6234 92.8662C26.9088 90.0911 26.7787 87.1977 27.2412 84.3696C27.3252 84 27.3966 83.6262 27.5142 83.2524L27.6738 82.7064L27.8292 82.2318C28.0308 81.5976 28.2492 80.9718 28.4592 80.3502C28.9044 79.0902 29.358 77.8806 29.8494 76.671C30.8196 74.235 31.8738 71.8746 33.0498 69.531L37.6446 71.757Z" fill="#B65B52"/>
<path d="M33.9149 67.4268C30.8405 68.3928 27.8165 78.8214 27.8165 78.8214L34.9313 81.9336C34.9313 81.9336 37.2329 76.8936 38.5559 72.9456C40.0007 68.6406 37.6403 66.2592 33.9149 67.4268Z" fill="#04459D"/>
<path opacity="0.2" d="M33.9149 67.4268C30.8405 68.3928 27.8165 78.8214 27.8165 78.8214L34.9313 81.9336C34.9313 81.9336 37.2329 76.8936 38.5559 72.9456C40.0007 68.6406 37.6403 66.2592 33.9149 67.4268Z" fill="white"/>
<path d="M32.6004 98.8638L34.2594 101.858L30.3492 102.875C30.3492 102.875 29.1648 99.9726 30.5634 99.0486L32.6004 98.8638Z" fill="#B55B52"/>
<path d="M34.5492 105.256L30.9582 105.554L30.3492 102.875L34.2594 101.858L34.5492 105.256Z" fill="#B55B52"/>
<path d="M105 118.587C104.969 119.627 104.535 120.613 103.79 121.339C103.044 122.064 102.046 122.47 101.006 122.472H90.4386C91.3109 123.681 91.8325 125.106 91.946 126.593C92.0595 128.079 91.7604 129.567 91.0816 130.894C90.4029 132.221 89.3709 133.335 88.0995 134.113C86.8281 134.891 85.3666 135.302 83.8761 135.302C82.3856 135.302 80.9241 134.891 79.6527 134.113C78.3813 133.335 77.3493 132.221 76.6706 130.894C75.9918 129.567 75.6927 128.079 75.8062 126.593C75.9196 125.106 76.4413 123.681 77.3136 122.472H66.7422C65.6847 122.47 64.6711 122.049 63.9233 121.301C63.1755 120.553 62.7544 119.54 62.7522 118.482V84.2184C62.7544 83.1605 63.1754 82.1464 63.923 81.398C64.6707 80.6495 65.6843 80.2275 66.7422 80.2242H101.006C102.046 80.227 103.044 80.6346 103.789 81.3605C104.533 82.0865 104.966 83.0738 104.996 84.1134V94.7856C103.788 93.9156 102.363 93.396 100.878 93.2839C99.3933 93.1719 97.9065 93.4718 96.5813 94.1505C95.2561 94.8293 94.144 95.8607 93.3675 97.131C92.5909 98.4013 92.1799 99.8613 92.1799 101.35C92.1799 102.839 92.5909 104.299 93.3675 105.569C94.144 106.84 95.2561 107.871 96.5813 108.55C97.9065 109.229 99.3933 109.528 100.878 109.416C102.363 109.304 103.788 108.785 104.996 107.915V118.482C104.995 118.517 104.997 118.552 105 118.587Z" fill="#04459D"/>
<path opacity="0.3" d="M83.874 134.068C82.6075 134.071 81.3647 133.724 80.2832 133.065C79.2017 132.406 78.3235 131.46 77.7458 130.333C77.1681 129.206 76.9134 127.941 77.0098 126.678C77.1063 125.416 77.5501 124.204 78.2922 123.178L79.6698 121.267H66.7422C66.0047 121.264 65.2982 120.97 64.7771 120.448C64.2561 119.926 63.9629 119.219 63.9618 118.482V84.2184C63.9618 83.4802 64.2545 82.7721 64.7756 82.2493C65.2968 81.7266 66.004 81.4318 66.7422 81.4296H101.006C101.731 81.4346 102.425 81.7199 102.944 82.2256C103.463 82.7314 103.767 83.4184 103.79 84.1428V92.6646C103.79 92.673 103.787 92.6813 103.783 92.6885C103.778 92.6958 103.772 92.702 103.765 92.7066C103.757 92.7106 103.749 92.7127 103.74 92.7127C103.731 92.7127 103.723 92.7106 103.715 92.7066C102.624 92.2688 101.459 92.045 100.283 92.0472C99.0459 92.0209 97.8156 92.2419 96.6647 92.6973C95.5137 93.1526 94.4653 93.8332 93.5808 94.6991C92.6963 95.565 91.9936 96.5988 91.5138 97.7398C91.0341 98.8808 90.787 100.106 90.787 101.344C90.787 102.582 91.0341 103.807 91.5138 104.948C91.9936 106.089 92.6963 107.123 93.5808 107.989C94.4653 108.854 95.5137 109.535 96.6647 109.99C97.8156 110.446 99.0459 110.667 100.283 110.641C101.459 110.644 102.624 110.42 103.715 109.981C103.723 109.977 103.731 109.975 103.74 109.975C103.749 109.975 103.757 109.977 103.765 109.981C103.772 109.986 103.778 109.992 103.783 109.999C103.787 110.006 103.79 110.015 103.79 110.023V118.591C103.751 119.306 103.441 119.978 102.924 120.473C102.407 120.967 101.721 121.247 101.006 121.254H88.0908L89.4558 123.161C89.4656 123.171 89.471 123.184 89.471 123.199C89.471 123.213 89.4656 123.226 89.4558 123.236C89.4511 123.241 89.4456 123.245 89.4394 123.247C89.4333 123.25 89.4267 123.251 89.4201 123.251C89.4135 123.251 89.4069 123.25 89.4008 123.247C89.3946 123.245 89.3891 123.241 89.3844 123.236L87.9564 121.241C87.9512 121.233 87.9484 121.224 87.9484 121.214C87.9484 121.204 87.9512 121.195 87.9564 121.187C87.9613 121.179 87.9682 121.173 87.9763 121.168C87.9843 121.164 87.9934 121.162 88.0026 121.162H101.023C101.71 121.153 102.369 120.885 102.866 120.41C103.363 119.935 103.662 119.29 103.702 118.604V110.111C102.618 110.535 101.464 110.751 100.3 110.75C98.9174 110.752 97.5511 110.449 96.2987 109.863C95.0464 109.276 93.9387 108.421 93.0546 107.358C92.1706 106.295 91.5319 105.049 91.1841 103.711C90.8364 102.373 90.788 100.974 91.0426 99.6149C91.2971 98.2557 91.8483 96.9694 92.6568 95.8476C93.4654 94.7258 94.5114 93.7961 95.7203 93.1247C96.9292 92.4534 98.2713 92.057 99.6509 91.9636C101.031 91.8703 102.414 92.0824 103.702 92.5848V84.147C103.679 83.4497 103.388 82.7884 102.888 82.3014C102.389 81.8144 101.72 81.5396 101.023 81.5346H66.7422C66.3903 81.5351 66.042 81.605 65.7171 81.7401C65.3922 81.8753 65.0971 82.0732 64.8487 82.3224C64.6002 82.5716 64.4033 82.8673 64.2692 83.1926C64.135 83.5179 64.0662 83.8665 64.0668 84.2184V118.482C64.0668 119.192 64.3485 119.873 64.8501 120.375C65.3518 120.878 66.0323 121.16 66.7422 121.162H79.7622C79.7715 121.161 79.781 121.162 79.7892 121.167C79.7975 121.171 79.8042 121.178 79.8084 121.187C79.8136 121.195 79.8164 121.204 79.8164 121.214C79.8164 121.224 79.8136 121.233 79.8084 121.241L78.372 123.241C77.5376 124.388 77.0877 125.77 77.0868 127.189C77.0868 128.986 77.801 130.711 79.0723 131.982C80.3435 133.253 82.0677 133.967 83.8656 133.967C85.6634 133.967 87.3877 133.253 88.6589 131.982C89.9302 130.711 90.6444 128.986 90.6444 127.189C90.6444 127.175 90.6497 127.162 90.6592 127.153C90.6686 127.143 90.6814 127.138 90.6948 127.138C90.7018 127.138 90.7088 127.138 90.7154 127.141C90.722 127.143 90.728 127.147 90.7332 127.151C90.7383 127.156 90.7424 127.162 90.7452 127.168C90.748 127.175 90.7494 127.182 90.7494 127.189C90.7461 129.011 90.0208 130.759 88.7322 132.048C87.4437 133.337 85.6968 134.064 83.874 134.068Z" fill="white"/>
<path d="M143.258 80.22H132.695C133.564 81.4291 134.083 82.8546 134.195 84.3397C134.306 85.8247 134.005 87.3117 133.326 88.637C132.647 89.9623 131.615 91.0744 130.344 91.851C129.073 92.6275 127.613 93.0385 126.124 93.0385C124.635 93.0385 123.174 92.6275 121.904 91.851C120.633 91.0744 119.601 89.9623 118.922 88.637C118.242 87.3117 117.942 85.8247 118.053 84.3397C118.165 82.8546 118.684 81.4291 119.553 80.22H108.99C107.932 80.2233 106.919 80.6446 106.171 81.392C105.423 82.1395 105 83.1524 104.996 84.21V94.7814C103.788 93.9114 102.363 93.3918 100.878 93.2797C99.3932 93.1677 97.9065 93.4675 96.5813 94.1463C95.2561 94.8251 94.144 95.8564 93.3674 97.1268C92.5909 98.3971 92.1799 99.8571 92.1799 101.346C92.1799 102.835 92.5909 104.295 93.3674 105.565C94.144 106.835 95.2561 107.867 96.5813 108.546C97.9065 109.224 99.3932 109.524 100.878 109.412C102.363 109.3 103.788 108.781 104.996 107.911V118.482C104.999 119.54 105.421 120.554 106.169 121.303C106.918 122.051 107.932 122.473 108.99 122.476H143.258C144.316 122.473 145.329 122.051 146.077 121.302C146.825 120.554 147.246 119.54 147.248 118.482V84.2142C147.246 83.1562 146.825 82.1422 146.077 81.3938C145.329 80.6453 144.316 80.2233 143.258 80.22Z" fill="#212529"/>
<path opacity="0.3" d="M143.258 121.267H108.99C108.251 121.267 107.543 120.973 107.021 120.451C106.499 119.929 106.205 119.22 106.205 118.482V105.554L104.294 106.932C103.268 107.672 102.056 108.115 100.794 108.211C99.5316 108.306 98.2674 108.051 97.1409 107.474C96.0143 106.896 95.0691 106.019 94.4097 104.938C93.7502 103.858 93.4021 102.616 93.4037 101.35C93.4032 101.343 93.404 101.336 93.4063 101.33C93.4086 101.323 93.4122 101.317 93.4169 101.312C93.4217 101.307 93.4274 101.303 93.4338 101.3C93.4402 101.297 93.4472 101.296 93.4541 101.296C93.4686 101.296 93.4825 101.301 93.4927 101.312C93.503 101.322 93.5087 101.336 93.5087 101.35C93.5071 102.597 93.8498 103.819 94.499 104.883C95.1482 105.947 96.0787 106.811 97.1878 107.38C98.297 107.949 99.5416 108.2 100.785 108.106C102.027 108.012 103.22 107.577 104.231 106.848L106.226 105.412C106.234 105.406 106.243 105.403 106.253 105.403C106.262 105.402 106.272 105.404 106.28 105.409C106.289 105.413 106.296 105.419 106.301 105.427C106.307 105.435 106.31 105.444 106.31 105.454V118.474C106.31 119.184 106.593 119.866 107.095 120.368C107.598 120.871 108.279 121.153 108.99 121.153H143.258C143.968 121.153 144.65 120.871 145.153 120.368C145.655 119.866 145.937 119.184 145.937 118.474V84.2142C145.936 83.5038 145.654 82.8229 145.151 82.3206C144.649 81.8183 143.968 81.5357 143.258 81.5346H134.891C135.444 82.9595 135.641 84.4977 135.465 86.016C135.29 87.5343 134.746 88.9868 133.883 90.2479C133.019 91.509 131.862 92.5406 130.51 93.2534C129.158 93.9662 127.652 94.3387 126.124 94.3387C124.595 94.3387 123.09 93.9662 121.738 93.2534C120.386 92.5406 119.228 91.509 118.365 90.2479C117.501 88.9868 116.958 87.5343 116.782 86.016C116.607 84.4977 116.804 82.9595 117.356 81.5346H108.99C108.28 81.5357 107.599 81.8183 107.096 82.3206C106.594 82.8229 106.311 83.5038 106.31 84.2142V97.2342C106.31 97.2443 106.307 97.2542 106.302 97.263C106.297 97.2718 106.29 97.2792 106.281 97.2846C106.272 97.2887 106.263 97.2908 106.254 97.2908C106.244 97.2908 106.235 97.2887 106.226 97.2846L104.231 95.8482C103.083 95.0153 101.702 94.5669 100.283 94.5672C100.27 94.5672 100.257 94.5619 100.248 94.5524C100.238 94.5429 100.233 94.5301 100.233 94.5168C100.232 94.5098 100.233 94.5028 100.236 94.4962C100.238 94.4896 100.241 94.4835 100.246 94.4784C100.251 94.4732 100.257 94.4691 100.263 94.4664C100.269 94.4636 100.276 94.4621 100.283 94.4622C101.724 94.4612 103.128 94.9154 104.294 95.76L106.205 97.1376V84.2142C106.206 83.476 106.5 82.7684 107.022 82.2464C107.544 81.7244 108.252 81.4307 108.99 81.4296H117.432C117.441 81.4299 117.45 81.4323 117.458 81.4367C117.466 81.4411 117.473 81.4473 117.478 81.4548C117.481 81.4621 117.483 81.4699 117.483 81.4779C117.483 81.4858 117.481 81.4937 117.478 81.501C117.042 82.5951 116.819 83.7628 116.823 84.9408C116.875 87.3722 117.877 89.6866 119.615 91.3879C121.352 93.0892 123.688 94.042 126.12 94.042C128.552 94.042 130.887 93.0892 132.625 91.3879C134.362 89.6866 135.365 87.3722 135.416 84.9408C135.42 83.7628 135.198 82.5951 134.761 81.501C134.757 81.4939 134.755 81.486 134.755 81.4779C134.755 81.4698 134.757 81.4618 134.761 81.4548C134.766 81.447 134.773 81.4406 134.781 81.4362C134.789 81.4318 134.798 81.4295 134.807 81.4296H143.249C143.988 81.4307 144.695 81.7244 145.217 82.2464C145.739 82.7684 146.033 83.476 146.034 84.2142V118.482C146.033 119.219 145.74 119.925 145.22 120.447C144.7 120.969 143.994 121.263 143.258 121.267Z" fill="white"/>
</svg>
