<svg width="210" height="210" viewBox="0 0 210 210" fill="none" xmlns="http://www.w3.org/2000/svg">
<path d="M65.4276 59.9592C77.28 58.1532 87.6876 50.5302 95.8944 40.8156C131.46 -9.03841 204.805 26.3298 163.17 87.9564C143.01 119.809 115.765 125.756 87.717 127.709C31.4706 134.526 24.9984 86.4528 30.4542 72.4164C36.12 58.6488 54.0708 62.034 65.4276 59.9592Z" fill="#04459D"/>
<path opacity="0.9" d="M65.4276 59.9592C77.28 58.1532 87.6876 50.5302 95.8944 40.8156C131.46 -9.03841 204.805 26.3298 163.17 87.9564C143.01 119.809 115.765 125.756 87.717 127.709C31.4706 134.526 24.9984 86.4528 30.4542 72.4164C36.12 58.6488 54.0708 62.034 65.4276 59.9592Z" fill="white"/>
<path d="M105 179.575C149.975 179.575 186.434 177.447 186.434 174.821C186.434 172.195 149.975 170.066 105 170.066C60.0253 170.066 23.5662 172.195 23.5662 174.821C23.5662 177.447 60.0253 179.575 105 179.575Z" fill="#F5F5F5"/>
<path d="M69.72 48.5688C70.7784 46.1454 61.404 43.9488 58.569 51.4164C55.9986 58.191 51.7314 59.9214 53.739 64.6128C55.9104 69.6906 68.1954 70.2996 73.5294 64.6716C77.8554 60.1062 73.1598 58.1826 73.7646 53.8902C74.3694 49.5978 73.101 48.1992 69.72 48.5688Z" fill="#212529"/>
<path d="M52.6428 63.1092C52.1556 60.4632 53.1384 59.3712 54.3816 57.9894C56.0616 56.2847 57.2125 54.1303 57.6954 51.786C57.9458 50.5058 58.5859 49.3343 59.528 48.4321C60.4701 47.5298 61.6681 46.9409 62.958 46.746C65.73 46.2336 68.6658 47.1408 69.4428 48.2916C69.5665 48.4538 69.637 48.6502 69.6445 48.8541C69.652 49.0579 69.5962 49.259 69.4848 49.4298L69.132 49.203C69.1999 49.1015 69.233 48.9806 69.2262 48.8586C69.2193 48.7366 69.173 48.6202 69.0942 48.5268C68.4054 47.502 65.6082 46.683 63.0378 47.1618C61.2024 47.502 58.8378 48.594 58.107 51.8784C57.6093 54.2928 56.4234 56.5115 54.6924 58.2666C53.4828 59.6106 52.5924 60.585 53.0586 63.0294L52.6428 63.1092Z" fill="#212529"/>
<path d="M46.8678 61.0974L46.6074 60.2574C46.4276 59.6866 46.1019 59.1726 45.6624 58.7664L44.8224 58.002C44.5567 57.7564 44.2135 57.6114 43.8522 57.5922C43.4909 57.573 43.1343 57.6809 42.8442 57.897L41.9454 58.569C41.7811 58.6918 41.6428 58.846 41.5386 59.0226C41.4343 59.1992 41.3661 59.3947 41.338 59.5979C41.3099 59.801 41.3224 60.0077 41.3747 60.206C41.427 60.4043 41.5182 60.5902 41.643 60.753L42.2226 61.509C42.2226 61.509 43.5834 63.8106 45.5532 64.6086L46.0068 64.2222C46.4407 63.8431 46.7537 63.3448 46.9068 62.7892C47.0599 62.2336 47.0463 61.6453 46.8678 61.0974Z" fill="#FFC3BD"/>
<path d="M63.1932 75.6798L62.9244 75.8856L62.706 76.0452L62.286 76.3392C62.0046 76.524 61.719 76.6962 61.446 76.8642C60.8745 77.1926 60.2857 77.4899 59.682 77.7546C58.4407 78.3021 57.1354 78.6916 55.797 78.9138C54.3838 79.1513 52.9415 79.1598 51.5256 78.939C50.801 78.825 50.0893 78.6408 49.4004 78.3888C49.2282 78.3342 49.056 78.2628 48.888 78.1914L48.636 78.0864L48.51 78.0318L48.3714 77.973L48.195 77.889C47.8284 77.7012 47.4905 77.4622 47.1912 77.1792C46.9761 76.979 46.778 76.7612 46.599 76.5282C46.1238 75.8838 45.7394 75.1772 45.4566 74.4282C45.2046 73.8066 45.0114 73.2102 44.8392 72.6264C44.5259 71.4967 44.2722 70.3513 44.079 69.195C43.6954 66.9603 43.4806 64.6999 43.4364 62.433C43.3844 62.0086 43.4962 61.5804 43.749 61.2356C44.0017 60.8908 44.3764 60.6553 44.7968 60.5771C45.2171 60.4989 45.6514 60.5839 46.0112 60.8148C46.3711 61.0457 46.6293 61.4051 46.7334 61.8198V61.866C47.4642 63.8778 48.1656 65.94 48.9048 67.8972C49.287 68.8716 49.6566 69.8418 50.0766 70.7238C50.2782 71.1648 50.4966 71.5848 50.7024 71.9502C50.8425 72.2179 51.0224 72.4629 51.2358 72.6768C51.2358 72.6768 51.2358 72.6768 51.2064 72.618C51.1097 72.5176 50.9959 72.4351 50.8704 72.3744L50.7906 72.3324C50.7654 72.3324 50.715 72.303 50.7444 72.3114H50.8116L50.9418 72.345C51.0285 72.3719 51.1169 72.393 51.2064 72.408C51.561 72.4787 51.9204 72.5223 52.2816 72.5382C53.0378 72.5613 53.7936 72.4822 54.5286 72.303C55.3352 72.0996 56.1201 71.8182 56.8722 71.463C57.2628 71.2866 57.6492 71.0808 58.0272 70.875C58.2162 70.77 58.401 70.6566 58.5774 70.5474L58.9974 70.2786L59.325 70.0728C60.063 69.6036 60.9541 69.4387 61.8111 69.6125C62.6681 69.7864 63.4245 70.2856 63.9213 71.0053C64.4181 71.7249 64.6167 72.6091 64.4755 73.4721C64.3343 74.3351 63.8641 75.1098 63.1638 75.6336L63.1932 75.6798Z" fill="#FFC3BD"/>
<path d="M70.56 172.99C73.2186 172.112 75.4572 170.314 75.0078 167.16C74.8104 165.808 79.149 165.278 79.149 165.278C78.6576 169.575 79.1952 170.318 79.7118 171.289C80.2284 172.259 80.199 173.447 79.2918 173.552C78.2166 173.683 77.9772 173.552 76.6416 173.741C75.0792 173.947 74.067 174.762 70.9464 174.762C69.2622 174.762 69.72 173.267 70.56 172.99Z" fill="#04459D"/>
<path d="M78.6449 127.096C78.9515 105.575 76.9649 93.8448 76.9649 93.8448L61.0427 94.6386C61.0427 94.6386 63.3989 114.328 67.5821 128.831C68.6993 136.613 71.2151 149.776 72.9581 158.617C75.5444 158.396 78.1014 157.912 80.5895 157.172C81.1985 149.407 81.3077 138.18 78.6449 127.096Z" fill="#04459D"/>
<path d="M78.9894 167.387C78.9894 167.387 79.611 163.321 80.031 157.172C77.9181 157.908 75.7261 158.393 73.5 158.617C74.4072 163.985 75.054 167.404 75.054 167.404C76.3269 167.861 77.7205 167.856 78.9894 167.387Z" fill="#FFC3BD"/>
<path d="M72.0888 156.043C72.2274 156.782 72.6138 158.634 72.996 159.285C73.0181 159.323 73.0485 159.355 73.0849 159.379C73.1213 159.403 73.1628 159.418 73.206 159.424C76.1754 159.797 79.1406 159.201 80.346 158.663C80.3797 158.65 80.4102 158.629 80.4355 158.603C80.4608 158.577 80.4804 158.546 80.493 158.512C80.829 157.622 80.9508 155.749 80.9886 154.959C80.9907 154.916 80.983 154.874 80.9662 154.834C80.9493 154.795 80.9237 154.76 80.8913 154.732C80.859 154.704 80.8206 154.684 80.7792 154.673C80.7379 154.662 80.6946 154.661 80.6526 154.669C77.9006 155.179 75.121 155.527 72.3282 155.711C72.29 155.715 72.2531 155.728 72.2199 155.747C72.1867 155.767 72.1579 155.793 72.1354 155.824C72.1129 155.855 72.0971 155.891 72.0891 155.928C72.0811 155.966 72.081 156.005 72.0888 156.043Z" fill="#212529"/>
<path d="M61.2527 69.3336C58.8923 69.7536 55.2929 71.7486 55.2929 71.7486C55.2929 71.7486 53.3987 76.2846 55.6667 79.5522C57.9011 80.0814 59.0267 79.6488 59.0267 79.6488L61.2527 69.3336Z" fill="#212529"/>
<path opacity="0.2" d="M55.6667 79.5522C57.9011 80.0814 59.0267 79.6488 59.0267 79.6488L58.947 73.5294C57.4308 75.5706 56.1665 77.595 55.6667 79.5522Z" fill="#151515"/>
<path opacity="0.2" d="M78.5609 114.4C76.7801 110.044 74.8649 106.457 74.1299 103.181C72.8699 112.09 73.8611 120.284 78.6533 126.155C78.7079 121.821 78.6617 117.898 78.5609 114.4Z" fill="#151515"/>
<path d="M102.9 148.554L96.5454 153.073C91.3584 146.315 83.58 135.992 81.6984 131.498C76.9188 120.095 67.3092 94.9578 67.3092 94.9578L79.7832 92.0598C79.7832 92.0598 87.654 99.3678 92.7318 126.945C96.9822 132.985 100.561 141.872 102.9 148.554Z" fill="#04459D"/>
<path d="M102.535 169.974C104.118 166.879 104.139 163.468 102.43 160.78C101.695 159.629 105.428 157.357 105.428 157.357C106.747 161.477 107.822 161.717 108.738 162.355C109.654 162.994 109.746 164.367 108.973 164.833C108.13 165.329 107.411 166.011 106.873 166.828C105.916 168.088 105.378 169.819 104.005 170.898C103.127 171.583 101.837 171.331 102.535 169.974Z" fill="#04459D"/>
<path d="M106.121 159.247C106.121 159.247 105.025 155.392 102.875 149.617C101.251 151.155 99.4537 152.499 97.5198 153.623C100.556 158.143 102.778 161.389 102.778 161.389C104.069 160.998 105.226 160.257 106.121 159.247Z" fill="#FFC3BD"/>
<path d="M95.172 151.859C95.592 152.473 96.7176 154.006 97.335 154.438C97.3711 154.464 97.4125 154.481 97.4562 154.488C97.4998 154.495 97.5445 154.493 97.587 154.48C100.443 153.598 102.9 151.83 103.799 150.835C103.824 150.808 103.843 150.776 103.855 150.741C103.866 150.706 103.87 150.669 103.866 150.633C103.807 149.688 103.144 147.928 102.854 147.193C102.838 147.154 102.814 147.119 102.782 147.091C102.751 147.063 102.714 147.042 102.674 147.03C102.634 147.018 102.591 147.015 102.55 147.021C102.508 147.028 102.468 147.043 102.434 147.067C100.142 148.666 97.7577 150.129 95.2938 151.448C95.2564 151.464 95.2231 151.489 95.1961 151.519C95.1691 151.55 95.1491 151.586 95.1375 151.625C95.126 151.665 95.123 151.706 95.129 151.746C95.1349 151.787 95.1496 151.825 95.172 151.859Z" fill="#212529"/>
<path d="M57.6491 75.6C58.2203 79.317 56.007 82.1982 59.4131 83.9118C58.8461 86.7384 59.6862 92.3832 61.0344 94.6218C62.9286 95.6508 72.1937 94.1304 79.7663 92.0556C79.6571 88.8216 76.9985 82.4586 77.7377 71.8662C77.7775 71.2868 77.6951 70.7054 77.4959 70.1599C77.2966 69.6143 76.9849 69.1167 76.581 68.6994C76.1771 68.282 75.69 67.9542 75.1512 67.7371C74.6125 67.5201 74.0342 67.4186 73.4537 67.4394C72.7985 67.4394 72.1013 67.5024 71.3957 67.5654C68.915 67.7247 66.4489 68.0615 64.0163 68.5734C63.2309 68.7582 62.4203 68.9682 61.6517 69.1866C60.3156 69.5811 59.1705 70.4516 58.4329 71.6334C57.6953 72.8153 57.4165 74.2265 57.6491 75.6Z" fill="#212529"/>
<path d="M63 72.7734C63 72.7734 65.373 71.9082 66.6162 74.0334C68.6868 72.87 71.5974 67.9518 71.3916 67.578C67.9266 68.5314 63 72.7734 63 72.7734Z" fill="white"/>
<path d="M62.9999 72.7734C62.9999 72.7734 61.1981 72.5592 60.6899 74.1552C60.6899 71.0052 62.8151 69.0228 63.7433 68.6532C63.4199 69.4764 62.9999 72.7734 62.9999 72.7734Z" fill="white"/>
<path d="M70.4844 59.241C70.2198 61.698 70.1778 65.646 71.3958 67.5822C71.3958 67.5822 66.7758 70.7448 62.9958 72.7734C61.8072 70.0224 63.7392 68.6532 63.7392 68.6532C65.541 67.9644 65.5242 65.6586 65.2806 63.8946L70.4844 59.241Z" fill="#FFC3BD"/>
<path opacity="0.2" d="M65.2889 63.8946L68.2289 61.2486C68.3277 61.7424 68.2958 62.2535 68.1365 62.7312C67.6273 64.1077 66.6487 65.2604 65.3729 65.9862C65.4192 65.288 65.3911 64.5868 65.2889 63.8946Z" fill="#151515"/>
<path d="M71.4335 54.6756C71.0135 58.6656 70.9505 60.3582 68.8925 62.3322C65.7929 65.3016 61.0763 63.9408 60.2993 59.9172C59.5979 56.2926 60.3665 50.379 64.2641 48.9384C68.1617 47.4978 71.8199 50.6898 71.4335 54.6756Z" fill="#FFC3BD"/>
<path d="M70.56 57.5946C69.9442 57.0051 69.5842 56.1974 69.5575 55.3453C69.5308 54.4932 69.8395 53.6646 70.4172 53.0376C71.4672 51.975 72.9372 54.1758 72.9372 54.1758L70.56 57.5946Z" fill="#212529"/>
<path d="M65.6922 55.7802C65.6922 56.1078 65.4948 56.364 65.2722 56.3556C65.0496 56.3472 64.8984 56.0742 64.911 55.7508C64.9236 55.4274 65.1084 55.167 65.331 55.1754C65.5536 55.1838 65.7048 55.44 65.6922 55.7802Z" fill="#212529"/>
<path d="M61.6854 55.6836C61.6854 56.007 61.4922 56.2632 61.2654 56.2548C61.0386 56.2464 60.8916 55.9776 60.9042 55.65C60.9168 55.3224 61.0974 55.0704 61.3242 55.0788C61.551 55.0872 61.698 55.356 61.6854 55.6836Z" fill="#212529"/>
<path d="M61.4166 55.0998L60.6438 54.8436C60.6438 54.8436 61.0218 55.4694 61.4166 55.0998Z" fill="#212529"/>
<path d="M62.6724 55.8096C62.3478 56.5419 61.9238 57.226 61.4124 57.8424C61.5738 57.9668 61.7603 58.0545 61.959 58.0995C62.1578 58.1445 62.3639 58.1456 62.5632 58.1028L62.6724 55.8096Z" fill="#ED847E"/>
<path d="M64.407 59.3796C64.2248 59.4054 64.0406 59.4138 63.8568 59.4048C63.8319 59.4037 63.8084 59.3931 63.7912 59.3751C63.774 59.3571 63.7644 59.3331 63.7644 59.3082C63.7649 59.2955 63.768 59.2831 63.7733 59.2716C63.7787 59.26 63.7863 59.2497 63.7956 59.2411C63.805 59.2325 63.816 59.2259 63.8279 59.2215C63.8398 59.2172 63.8525 59.2153 63.8652 59.2158C64.2696 59.24 64.6741 59.1689 65.0461 59.0085C65.4181 58.848 65.7472 58.6026 66.0072 58.2918C66.014 58.2815 66.0228 58.2726 66.033 58.2657C66.0433 58.2588 66.0548 58.254 66.067 58.2517C66.0791 58.2493 66.0916 58.2494 66.1037 58.252C66.1158 58.2546 66.1273 58.2595 66.1374 58.2666C66.1479 58.2738 66.1569 58.2829 66.1638 58.2936C66.1708 58.3042 66.1755 58.3161 66.1779 58.3286C66.1802 58.3411 66.1801 58.3539 66.1774 58.3663C66.1748 58.3788 66.1698 58.3905 66.1626 58.401C65.7271 58.9433 65.0973 59.2944 64.407 59.3796Z" fill="#212529"/>
<path d="M72.0972 58.0188C71.9413 58.3487 71.7168 58.6415 71.4387 58.8776C71.1606 59.1138 70.8352 59.2878 70.4844 59.388C69.5898 59.6106 69.174 58.6278 69.4512 57.645C69.699 56.7588 70.4676 55.5786 71.3496 55.7928C72.2316 56.007 72.5298 57.1578 72.0972 58.0188Z" fill="#FFC3BD"/>
<path d="M69.3671 49.0014C66.5398 50.7653 63.3652 51.8985 60.0599 52.3236C60.0599 49.455 65.6711 46.2336 69.3671 49.0014Z" fill="#212529"/>
<path d="M67.1999 49.35C66.5489 51.87 73.0799 56.49 71.8199 60.9336C73.9535 57.6114 72.4163 50.1354 72.4163 50.1354C72.4163 50.1354 66.9143 46.6536 67.1999 49.35Z" fill="#212529"/>
<path d="M66.5279 53.6382C66.5025 53.6346 66.478 53.6257 66.4563 53.6119C66.4346 53.5981 66.416 53.5799 66.4019 53.5584C66.2723 53.3559 66.0967 53.1869 65.8894 53.065C65.6822 52.9431 65.4491 52.8719 65.2091 52.857C65.1842 52.8581 65.1592 52.8542 65.1358 52.8454C65.1124 52.8366 65.0911 52.8232 65.073 52.8059C65.0549 52.7887 65.0406 52.7679 65.0308 52.7449C65.0209 52.7219 65.0159 52.6972 65.0159 52.6722C65.0148 52.6467 65.0188 52.6212 65.0278 52.5973C65.0368 52.5734 65.0506 52.5515 65.0682 52.5331C65.0859 52.5146 65.1071 52.5 65.1306 52.4899C65.1541 52.4799 65.1794 52.4748 65.2049 52.4748C65.5082 52.488 65.8038 52.5738 66.067 52.7251C66.3301 52.8764 66.553 53.0887 66.7169 53.3442C66.7312 53.3648 66.7412 53.3881 66.7464 53.4126C66.7516 53.4371 66.7518 53.4624 66.7471 53.487C66.7424 53.5117 66.7329 53.5351 66.7191 53.556C66.7052 53.5769 66.6874 53.5949 66.6665 53.6088C66.6465 53.6226 66.6239 53.6323 66.6002 53.6373C66.5764 53.6423 66.5518 53.6426 66.5279 53.6382Z" fill="#212529"/>
<path d="M59.913 53.4996C59.864 53.4962 59.8178 53.4753 59.7828 53.4408C59.765 53.4232 59.7509 53.4023 59.7413 53.3792C59.7316 53.3561 59.7267 53.3314 59.7267 53.3064C59.7267 53.2814 59.7316 53.2566 59.7413 53.2336C59.7509 53.2105 59.765 53.1896 59.7828 53.172C59.9923 52.9519 60.2515 52.7852 60.5387 52.6858C60.8259 52.5864 61.1327 52.5573 61.4334 52.6008C61.4827 52.6119 61.5257 52.6418 61.5532 52.6842C61.5806 52.7266 61.5904 52.7781 61.5804 52.8276C61.5754 52.8523 61.5656 52.8757 61.5514 52.8965C61.5372 52.9173 61.5191 52.9351 61.4979 52.9488C61.4768 52.9625 61.4532 52.9718 61.4284 52.9763C61.4036 52.9807 61.3782 52.9801 61.3536 52.9746C61.1152 52.9442 60.873 52.9706 60.6467 53.0516C60.4204 53.1326 60.2165 53.266 60.0516 53.4408C60.015 53.4779 59.9652 53.4991 59.913 53.4996Z" fill="#212529"/>
<path d="M65.4233 55.1964L64.6505 54.9444C64.6505 54.9444 65.0243 55.5702 65.4233 55.1964Z" fill="#212529"/>
<path opacity="0.2" d="M77.637 73.92C77.5616 76.1625 77.6359 78.4075 77.8596 80.64C75.7596 78.4224 73.122 74.235 72.9498 72.135L77.637 73.92Z" fill="#151515"/>
<path d="M91.35 66.0324L91.8078 63.3654L95.9532 64.9656C95.9532 64.9656 94.9914 67.4478 93.2232 68.544L92.7318 68.2332C92.3465 67.9988 92.021 67.6778 91.7812 67.2959C91.5414 66.9139 91.3937 66.4813 91.35 66.0324Z" fill="#FFC3BD"/>
<path d="M94.395 61.8786L95.76 62.622C96.0582 62.7838 96.2803 63.057 96.3779 63.382C96.4754 63.7069 96.4405 64.0573 96.2808 64.3566L95.9574 64.9656L91.812 63.3654L92.799 62.1852C92.9895 61.9587 93.252 61.8046 93.5426 61.7488C93.8332 61.693 94.1342 61.7388 94.395 61.8786Z" fill="#FFC3BD"/>
<path d="M76.8977 69.0774L77.427 69.6234L78.0024 70.2072C78.393 70.5894 78.7835 70.98 79.1867 71.3496C79.9847 72.1014 80.8079 72.7986 81.6353 73.4496C82.4158 74.0615 83.2445 74.6093 84.1134 75.0876C84.7777 75.4612 85.5005 75.7196 86.2512 75.852L85.1213 76.062C84.8441 76.1964 84.861 76.2552 84.9198 76.209C85.0332 76.133 85.1375 76.0442 85.2305 75.9444C85.5379 75.6246 85.8188 75.2805 86.0705 74.9154C86.6417 74.1048 87.2213 73.185 87.7505 72.2316C88.2797 71.2782 88.8426 70.2996 89.3844 69.2916L91.0014 66.3012V66.276C91.191 65.9196 91.5011 65.6423 91.8764 65.4936C92.2517 65.3449 92.6676 65.3345 93.0499 65.4643C93.4321 65.594 93.7557 65.8555 93.9629 66.2019C94.1701 66.5484 94.2473 66.9572 94.1808 67.3554C93.9876 68.565 93.7229 69.7074 93.4289 70.8708C93.1349 72.0342 92.82 73.185 92.4 74.34C91.9884 75.5309 91.5002 76.6939 90.9384 77.8218C90.6125 78.4567 90.2434 79.0686 89.8337 79.653C89.5752 80.0135 89.2857 80.3508 88.9686 80.661C88.4988 81.1293 87.9444 81.5042 87.3348 81.7656C87.0355 81.8931 86.7149 81.9629 86.3898 81.9714H86.205C84.5454 81.9811 82.9029 81.636 81.3875 80.9592C80.7187 80.6732 80.0654 80.3522 79.4303 79.9974C78.8227 79.639 78.2361 79.268 77.6705 78.8844C76.5715 78.1147 75.5248 77.2729 74.5374 76.3644C74.0544 75.9192 73.5755 75.4698 73.1177 74.9952C72.8909 74.76 72.66 74.5248 72.4374 74.277C72.2148 74.0292 72.0174 73.8024 71.7444 73.4874C71.1406 72.819 70.8271 71.9382 70.8728 71.0387C70.9185 70.1392 71.3196 69.2947 71.9879 68.691C72.6563 68.0872 73.5371 67.7737 74.4366 67.8194C75.3361 67.8651 76.1806 68.2662 76.7844 68.9346L76.8977 69.0774Z" fill="#FFC3BD"/>
<path d="M73.6385 67.4604C76.7171 67.5528 79.7789 71.2404 79.7789 71.2404C79.7789 71.2404 78.5945 76.1334 75.2219 78.2418C73.3235 76.7634 71.7149 75.579 71.7149 75.579C69.0311 71.6436 69.9257 69.0312 73.6385 67.4604Z" fill="#212529"/>
<path d="M60.4211 94.3488C60.6479 95.6634 60.9209 96.6966 61.0091 97.0116C61.0177 97.045 61.0328 97.0764 61.0538 97.1038C61.0747 97.1312 61.1009 97.1541 61.1309 97.1712C61.5803 97.419 63.63 98.4312 67.3932 98.2086C71.5932 97.9818 77.7545 95.6886 80.9508 93.2484C80.9973 93.2123 81.0308 93.162 81.046 93.1051C81.0611 93.0482 81.0572 92.9878 81.0347 92.9334C80.7879 92.3861 80.5001 91.8582 80.1737 91.3542C80.1418 91.3058 80.0952 91.2691 80.0407 91.2494C79.9862 91.2297 79.9268 91.2282 79.8713 91.245C78.4937 91.665 69.8208 94.1472 60.6857 94.038C60.647 94.0381 60.6087 94.0466 60.5735 94.0629C60.5383 94.0793 60.5071 94.103 60.482 94.1325C60.4568 94.1621 60.4384 94.1967 60.4279 94.234C60.4174 94.2713 60.4151 94.3105 60.4211 94.3488Z" fill="#04459D"/>
<path opacity="0.3" d="M60.4211 94.3488C60.6479 95.6634 60.9209 96.6966 61.0091 97.0116C61.0177 97.045 61.0328 97.0764 61.0538 97.1038C61.0747 97.1312 61.1009 97.1541 61.1309 97.1712C61.5803 97.419 63.63 98.4312 67.3932 98.2086C71.5932 97.9818 77.7545 95.6886 80.9508 93.2484C80.9973 93.2123 81.0308 93.162 81.046 93.1051C81.0611 93.0482 81.0572 92.9878 81.0347 92.9334C80.7879 92.3861 80.5001 91.8582 80.1737 91.3542C80.1418 91.3058 80.0952 91.2691 80.0407 91.2494C79.9862 91.2297 79.9268 91.2282 79.8713 91.245C78.4937 91.665 69.8208 94.1472 60.6857 94.038C60.647 94.0381 60.6087 94.0466 60.5735 94.0629C60.5383 94.0793 60.5071 94.103 60.482 94.1325C60.4568 94.1621 60.4384 94.1967 60.4279 94.234C60.4174 94.2713 60.4151 94.3105 60.4211 94.3488Z" fill="white"/>
<path d="M144.593 162.292H89.2961C88.2734 162.302 87.2597 162.099 86.319 161.698C85.3782 161.297 84.5306 160.705 83.8296 159.96C83.1286 159.215 82.5893 158.334 82.2457 157.37C81.902 156.407 81.7614 155.383 81.8327 154.363L88.5527 39.4296C88.7061 37.2963 89.654 35.2981 91.2093 33.8298C92.7647 32.3616 94.8141 31.5303 96.9527 31.5H152.263C153.285 31.4906 154.299 31.6929 155.24 32.0942C156.181 32.4955 157.028 33.0872 157.729 33.832C158.43 34.5768 158.969 35.4586 159.313 36.4219C159.657 37.3853 159.797 38.4093 159.726 39.4296L152.985 154.363C152.832 156.495 151.885 158.492 150.331 159.96C148.778 161.428 146.731 162.26 144.593 162.292Z" fill="#04459D"/>
<path opacity="0.8" d="M144.593 162.292H89.2961C88.2734 162.302 87.2597 162.099 86.319 161.698C85.3782 161.297 84.5306 160.705 83.8296 159.96C83.1286 159.215 82.5893 158.334 82.2457 157.37C81.902 156.407 81.7614 155.383 81.8327 154.363L88.5527 39.4296C88.7061 37.2963 89.654 35.2981 91.2093 33.8298C92.7647 32.3616 94.8141 31.5303 96.9527 31.5H152.263C153.285 31.4906 154.299 31.6929 155.24 32.0942C156.181 32.4955 157.028 33.0872 157.729 33.832C158.43 34.5768 158.969 35.4586 159.313 36.4219C159.657 37.3853 159.797 38.4093 159.726 39.4296L152.985 154.363C152.832 156.495 151.885 158.492 150.331 159.96C148.778 161.428 146.731 162.26 144.593 162.292Z" fill="white"/>
<path d="M144.266 159.991H90.5058C89.7872 159.998 89.075 159.856 88.4139 159.574C87.7528 159.292 87.1571 158.877 86.6644 158.354C86.1717 157.831 85.7925 157.211 85.5508 156.535C85.3092 155.858 85.2101 155.138 85.26 154.421L91.98 39.9882C92.0877 38.493 92.7507 37.0921 93.8388 36.0608C94.9268 35.0295 96.3611 34.4424 97.86 34.4148H151.62C152.339 34.4085 153.051 34.5508 153.712 34.833C154.373 35.1152 154.969 35.531 155.462 36.0545C155.954 36.5779 156.333 37.1976 156.575 37.8745C156.817 38.5515 156.916 39.2711 156.866 39.9882L150.146 154.421C150.038 155.916 149.375 157.317 148.287 158.347C147.199 159.378 145.764 159.964 144.266 159.991Z" fill="#04459D"/>
<path d="M143.686 159.377H89.9262C89.2074 159.384 88.4951 159.241 87.834 158.959C87.1729 158.677 86.5773 158.261 86.0846 157.738C85.5919 157.214 85.2129 156.595 84.9712 155.918C84.7296 155.241 84.6306 154.521 84.6804 153.804L91.4004 39.3708C91.5081 37.8755 92.1711 36.4746 93.2591 35.4434C94.3472 34.4121 95.7815 33.825 97.2804 33.7974H151.04C151.759 33.791 152.472 33.9334 153.133 34.2156C153.794 34.4977 154.389 34.9136 154.882 35.437C155.375 35.9605 155.754 36.5801 155.995 37.2571C156.237 37.9341 156.336 38.6537 156.286 39.3708L149.566 153.804C149.458 155.299 148.795 156.7 147.707 157.731C146.619 158.763 145.185 159.35 143.686 159.377Z" fill="white"/>
<path opacity="0.1" d="M142.115 155.123H91.98C91.5358 155.127 91.0955 155.039 90.687 154.864C90.2784 154.69 89.9103 154.433 89.6058 154.11C89.3013 153.786 89.0669 153.403 88.9175 152.985C88.7681 152.567 88.7069 152.122 88.7376 151.679L91.56 103.946C91.6261 103.02 92.0374 102.152 92.7124 101.514C93.3874 100.876 94.2771 100.515 95.2056 100.502H145.32C145.764 100.498 146.204 100.586 146.613 100.76C147.022 100.934 147.39 101.191 147.694 101.515C147.999 101.838 148.233 102.221 148.382 102.64C148.532 103.058 148.593 103.503 148.562 103.946L145.761 151.679C145.695 152.605 145.284 153.473 144.609 154.11C143.934 154.748 143.044 155.109 142.115 155.123Z" fill="#04459D"/>
<path opacity="0.1" d="M130.981 42.2856H116.369C116.211 42.2871 116.053 42.2558 115.907 42.1935C115.761 42.1313 115.629 42.0395 115.521 41.9239C115.412 41.8083 115.328 41.6714 115.274 41.5219C115.221 41.3724 115.199 41.2134 115.21 41.055C115.233 40.7228 115.38 40.4115 115.622 40.1828C115.864 39.9541 116.183 39.8246 116.516 39.8202H131.124C131.285 39.8162 131.444 39.8459 131.593 39.9074C131.741 39.9688 131.875 40.0607 131.986 40.177C132.096 40.2933 132.182 40.4315 132.236 40.5827C132.29 40.7339 132.312 40.8948 132.3 41.055C132.277 41.3889 132.128 41.7015 131.883 41.9299C131.638 42.1582 131.316 42.2853 130.981 42.2856Z" fill="#04459D"/>
<path opacity="0.1" d="M136.794 88.3547C145.792 79.6171 146.406 65.6554 138.166 57.1703C129.926 48.6852 115.953 48.8899 106.955 57.6275C97.9574 66.3651 97.3431 80.3268 105.583 88.8119C113.823 97.297 127.797 97.0923 136.794 88.3547Z" fill="#04459D"/>
<path d="M106.428 87.5994C104.59 85.6421 103.175 83.326 102.274 80.7964C101.373 78.2668 101.004 75.5783 101.191 72.8994H101.611C101.429 75.5207 101.79 78.1513 102.672 80.6266C103.553 83.1019 104.936 85.3684 106.735 87.2844L106.428 87.5994Z" fill="#04459D"/>
<path d="M142.556 73.08L142.136 73.0548C142.251 71.2046 142.11 69.3475 141.716 67.536L142.136 67.4436C142.538 69.2937 142.679 71.1908 142.556 73.08Z" fill="#04459D"/>
<path d="M140.498 63.882C139.471 61.6015 138 59.5477 136.172 57.8397C134.345 56.1317 132.196 54.8036 129.851 53.9322L129.998 53.5374C132.397 54.4267 134.594 55.7845 136.463 57.5317C138.331 59.2789 139.833 61.3805 140.881 63.714L140.498 63.882Z" fill="#04459D"/>
<path d="M134.875 86.3782C142.716 78.7637 143.252 66.5973 136.072 59.2038C128.892 51.8104 116.716 51.9895 108.874 59.604C101.033 67.2185 100.497 79.3849 107.677 86.7784C114.857 94.1718 127.034 93.9927 134.875 86.3782Z" fill="#04459D"/>
<path d="M119.738 75.6C120.662 75.3942 121.094 74.6046 121.292 73.7058C121.313 73.6092 121.33 73.5168 121.346 73.4244V73.3404C121.397 72.9658 121.425 72.5885 121.43 72.2106C120.536 72.1221 119.705 71.7076 119.096 71.0462C118.488 70.3848 118.143 69.5226 118.129 68.6238C118.083 66.8415 118.478 65.0754 119.28 63.483C119.074 63.51 118.878 63.5912 118.713 63.7182C118.697 63.7304 118.679 63.7389 118.659 63.7433C118.639 63.7476 118.619 63.7477 118.6 63.7434C118.563 63.7371 118.53 63.7177 118.507 63.6888C118.485 63.6572 118.475 63.6183 118.481 63.58C118.486 63.5418 118.506 63.507 118.537 63.483C118.798 63.2856 119.116 63.1794 119.444 63.1806C119.507 63.0798 119.566 62.9748 119.629 62.8782C119.36 62.8782 119.099 62.8782 118.847 62.8782C119.125 60.9378 122.858 59.3082 125.404 60.7782C126.538 61.005 128.411 62.6262 128.411 62.6262C128.448 63.6588 128.419 64.6928 128.323 65.7216C128.155 67.4772 127.739 69.5394 126.727 70.6902C126.978 70.1015 127.071 69.457 126.995 68.8212C126.753 69.0611 126.452 69.2334 126.122 69.321C126.002 69.5784 125.862 69.8256 125.702 70.0602C125.307 71.862 125.026 74.2602 125.626 75.642C126.168 75.6756 126.693 75.726 127.193 75.7806L127.315 75.8016C127.644 75.6079 127.961 75.3932 128.264 75.159C132.044 72.219 128.033 68.7666 128.978 65.604C129.923 62.4414 129.125 61.2402 126.542 61.1394C127.613 59.43 120.809 56.7 117.818 62.0046C115.109 66.8136 114.236 69.216 115.21 72.975C115.576 74.2036 116.406 75.2414 117.524 75.8688C117.715 75.8167 117.908 75.7774 118.104 75.7512C118.637 75.7008 119.192 75.642 119.738 75.6Z" fill="#212529"/>
<path d="M113.862 82.992C113.708 82.7193 113.568 82.4389 113.442 82.152C113.156 82.992 112.875 83.832 112.602 84.672C112.342 85.428 112.094 86.184 111.833 86.9064L111.443 87.927L111.275 88.347C111.216 88.4604 111.275 88.3932 111.275 88.4268C111.096 88.6353 110.897 88.8266 110.683 88.998C110.636 89.0442 110.578 89.0862 110.527 89.1282C111.689 89.912 112.94 90.5563 114.253 91.0476C114.282 89.1282 114.517 87.1332 114.769 86.5998C113.257 85.5498 113.484 84.42 113.862 82.992Z" fill="#FFC3BD"/>
<path d="M115.332 77.3262L115.227 77.4732C115.261 77.4228 115.298 77.3766 115.336 77.3304L115.332 77.3262Z" fill="#212529"/>
<path d="M114.362 80.1402C114.356 79.2156 114.636 78.3119 115.164 77.553C114.359 78.8198 113.697 80.172 113.19 81.585C113.19 81.585 113.266 81.8076 113.425 82.1562C113.551 82.4431 113.691 82.7235 113.845 82.9962C114.145 82.0717 114.318 81.111 114.362 80.1402Z" fill="#212529"/>
<path d="M129.003 86.2344C128.505 85.5028 128.063 84.7348 127.68 83.937C127.554 84.0042 127.424 84.0714 127.289 84.1302C126.029 82.7988 124.954 81.7236 124.954 81.7236C123.383 78.4476 124.354 76.5828 127.331 75.8226C127.794 75.9177 128.235 76.0955 128.633 76.3476C128.241 76.0714 127.789 75.8903 127.315 75.8184L127.193 75.7974C126.693 75.7428 126.168 75.6924 125.626 75.6588C125.744 75.9654 123.047 79.8588 121.355 80.4762C120.662 78.729 118.717 78.6114 118.717 78.6114C118.717 78.6114 116.903 78.2376 116.34 79.38C116.71 77.0196 118.982 75.7764 119.738 75.6C119.192 75.6462 118.637 75.705 118.104 75.7722C117.908 75.7984 117.715 75.8377 117.524 75.8898C116.66 76.1269 115.894 76.6329 115.336 77.3346C115.298 77.3808 115.261 77.427 115.227 77.4774L115.164 77.5572C114.636 78.3161 114.356 79.2198 114.362 80.1444C114.324 81.1131 114.155 82.0722 113.862 82.9962C113.484 84.4074 113.257 85.554 114.74 86.604C114.488 87.1374 114.253 89.124 114.223 91.0518C116.31 91.8256 118.52 92.2182 120.746 92.211C123.596 92.2067 126.412 91.5893 129.003 90.4008C128.931 88.8374 128.943 87.2713 129.041 85.7094C129.028 85.8774 129.011 86.0622 129.003 86.2344Z" fill="#212529"/>
<path d="M118.717 78.6114C118.717 78.6114 120.662 78.729 121.355 80.4762C123.035 79.8378 125.744 75.9654 125.626 75.6588C125.626 75.6588 121.8 77.5152 118.717 78.6114Z" fill="white"/>
<path d="M119.746 75.6C118.99 75.7806 116.718 77.0238 116.348 79.38C116.911 78.2376 118.726 78.6114 118.726 78.6114C118.138 76.4022 119.746 75.6 119.746 75.6Z" fill="white"/>
<path d="M125.702 70.077C125.337 70.6066 124.875 71.0626 124.341 71.421C124.116 71.5826 123.877 71.7232 123.627 71.841C123.077 72.7241 122.256 73.4061 121.288 73.7856V73.7142C121.09 74.613 120.658 75.3942 119.734 75.6084C119.734 75.6084 118.125 76.4148 118.705 78.624C121.792 77.5278 125.614 75.684 125.614 75.684C125.026 74.2812 125.307 71.8788 125.702 70.077Z" fill="#FFC3BD"/>
<path d="M121.3 73.7016C121.321 73.605 121.338 73.5126 121.355 73.4202C121.338 73.5 121.321 73.605 121.3 73.7016Z" fill="#212529"/>
<path opacity="0.2" d="M121.3 73.7016C121.321 73.605 121.338 73.5126 121.355 73.4202C121.338 73.5 121.321 73.605 121.3 73.7016Z" fill="#151515"/>
<path d="M121.451 72.2064C121.446 72.5844 121.418 72.9616 121.367 73.3362C121.42 72.9618 121.448 72.5844 121.451 72.2064Z" fill="#212529"/>
<path opacity="0.2" d="M121.451 72.2064C121.446 72.5844 121.418 72.9616 121.367 73.3362C121.42 72.9618 121.448 72.5844 121.451 72.2064Z" fill="#151515"/>
<path d="M123.627 71.82C122.95 72.1441 122.198 72.2749 121.451 72.198C121.448 72.576 121.42 72.9534 121.367 73.3278V73.4118C121.367 73.5042 121.334 73.5966 121.313 73.6932V73.7646C122.272 73.3804 123.083 72.6989 123.627 71.82Z" fill="#FFC3BD"/>
<path opacity="0.2" d="M123.627 71.82C122.95 72.1441 122.198 72.2749 121.451 72.198C121.448 72.576 121.42 72.9534 121.367 73.3278V73.4118C121.367 73.5042 121.334 73.5966 121.313 73.6932V73.7646C122.272 73.3804 123.083 72.6989 123.627 71.82Z" fill="#151515"/>
<path d="M123.627 71.82C123.877 71.7022 124.116 71.5616 124.341 71.4C124.875 71.0415 125.337 70.5856 125.702 70.056C125.862 69.8214 126.002 69.5742 126.122 69.3168C126.042 69.3168 125.962 69.3588 125.887 69.3672C125.185 69.4302 124.988 68.6406 125.307 67.935C125.415 67.6964 125.556 67.4744 125.727 67.2756C125.544 66.676 125.589 66.0298 125.853 65.4612C125.215 64.1508 124.538 62.9412 124.475 62.0634C122.904 62.5492 121.273 62.8163 119.629 62.8572C119.566 62.9538 119.507 63.0588 119.444 63.1596C119.586 63.159 119.728 63.1803 119.864 63.2226C119.882 63.2291 119.898 63.2391 119.912 63.252C119.925 63.2648 119.937 63.2803 119.944 63.2975C119.952 63.3147 119.956 63.3332 119.957 63.3521C119.958 63.371 119.955 63.3898 119.948 63.4074C119.935 63.4433 119.908 63.4725 119.873 63.489C119.839 63.5055 119.799 63.5078 119.763 63.4956C119.612 63.4498 119.453 63.4383 119.297 63.462C118.506 65.0558 118.121 66.8202 118.175 68.5986C118.19 69.4974 118.534 70.3596 119.143 71.021C119.751 71.6824 120.582 72.0969 121.477 72.1854C122.213 72.2615 122.957 72.1352 123.627 71.82ZM122.69 63.5712C122.919 63.6162 123.134 63.7162 123.315 63.8625C123.496 64.0089 123.64 64.1972 123.732 64.4112C123.748 64.4465 123.75 64.4866 123.738 64.5234C123.725 64.5601 123.699 64.5906 123.665 64.6086C123.63 64.6231 123.591 64.6231 123.556 64.6086C123.537 64.6034 123.519 64.5939 123.505 64.5808C123.49 64.5676 123.479 64.5513 123.472 64.533C123.395 64.3634 123.279 64.2148 123.133 64.1C122.986 63.9851 122.814 63.9075 122.632 63.8736C122.594 63.8674 122.56 63.847 122.536 63.8166C122.513 63.7862 122.502 63.748 122.506 63.7098C122.507 63.6883 122.514 63.6674 122.524 63.6487C122.535 63.63 122.55 63.6138 122.567 63.6014C122.585 63.5889 122.605 63.5806 122.627 63.5768C122.648 63.573 122.67 63.574 122.69 63.5796V63.5712ZM122.543 65.646C122.613 65.6987 122.665 65.7719 122.692 65.8555C122.718 65.9391 122.718 66.0289 122.69 66.1122C122.644 66.3558 122.476 66.5322 122.317 66.4944C122.157 66.4566 122.065 66.2424 122.111 65.9988C122.134 65.8753 122.198 65.7631 122.291 65.6796C122.161 65.6103 122.058 65.4974 122.002 65.3604L122.543 65.646ZM119.099 65.4696C119.122 65.3481 119.184 65.2374 119.276 65.1546C119.147 65.0819 119.046 64.968 118.99 64.8312L119.54 65.1126C119.608 65.1672 119.658 65.2405 119.684 65.3235C119.711 65.4064 119.712 65.4953 119.687 65.5788C119.637 65.8224 119.473 65.9988 119.314 65.9652C119.154 65.9316 119.053 65.7216 119.099 65.478V65.4696ZM120.074 67.5108C119.918 67.52 119.762 67.4951 119.617 67.4378C119.472 67.3805 119.341 67.2922 119.234 67.179C119.684 66.7716 120.076 66.3054 120.401 65.793L120.074 67.5108ZM120.884 68.6364C120.866 68.6314 120.85 68.6196 120.84 68.6032C120.829 68.5868 120.826 68.5671 120.83 68.5482C120.834 68.5299 120.845 68.5139 120.861 68.5037C120.876 68.4935 120.895 68.4899 120.914 68.4936C121.217 68.5589 121.531 68.5519 121.831 68.473C122.131 68.3942 122.408 68.2459 122.64 68.04C122.647 68.0331 122.655 68.0276 122.663 68.0238C122.672 68.0199 122.681 68.0178 122.691 68.0177C122.701 68.0175 122.71 68.0191 122.719 68.0226C122.728 68.0261 122.736 68.0313 122.743 68.0379C122.75 68.0445 122.755 68.0524 122.759 68.0612C122.763 68.0699 122.765 68.0794 122.765 68.0889C122.765 68.0985 122.764 68.108 122.76 68.1169C122.757 68.1258 122.752 68.1339 122.745 68.1408C122.355 68.5003 121.839 68.6932 121.309 68.6784C121.167 68.6772 121.025 68.6659 120.884 68.6448V68.6364Z" fill="#FFC3BD"/>
<path d="M126.42 66.78C126.244 66.36 126.042 65.9106 125.836 65.4906C125.572 66.0591 125.527 66.7054 125.71 67.305C125.897 67.0706 126.141 66.8895 126.42 66.78Z" fill="#212529"/>
<path d="M122.283 65.6922C122.189 65.7756 122.126 65.8879 122.102 66.0114C122.056 66.255 122.149 66.4776 122.308 66.507C122.468 66.5364 122.636 66.3684 122.682 66.1248C122.709 66.0414 122.71 65.9517 122.683 65.8681C122.657 65.7845 122.605 65.7112 122.535 65.6586C122.5 65.6856 122.458 65.7029 122.413 65.7088C122.369 65.7147 122.324 65.709 122.283 65.6922Z" fill="#212529"/>
<path d="M119.7 65.5914C119.724 65.5078 119.723 65.419 119.697 65.3361C119.671 65.2531 119.621 65.1797 119.553 65.1252C119.517 65.1519 119.474 65.1693 119.43 65.1758C119.385 65.1824 119.339 65.178 119.297 65.163C119.205 65.2458 119.143 65.3565 119.12 65.478C119.074 65.7216 119.167 65.9442 119.326 65.9778C119.486 66.0114 119.629 65.835 119.7 65.5914Z" fill="#212529"/>
<path d="M119.532 65.1252L118.982 64.8438C119.038 64.9806 119.139 65.0945 119.267 65.1672C119.311 65.1831 119.359 65.1876 119.405 65.1803C119.451 65.173 119.495 65.154 119.532 65.1252Z" fill="#212529"/>
<path d="M119.238 67.2C119.345 67.3131 119.476 67.4014 119.621 67.4587C119.766 67.5161 119.922 67.541 120.078 67.5318L120.41 65.814C120.083 66.3266 119.689 66.7928 119.238 67.2Z" fill="#ED847E"/>
<path d="M122.737 68.04C122.722 68.0264 122.704 68.0188 122.684 68.0188C122.664 68.0188 122.646 68.0264 122.632 68.04C122.401 68.2446 122.125 68.3922 121.827 68.471C121.528 68.5498 121.216 68.5575 120.914 68.4936C120.895 68.4899 120.876 68.4935 120.861 68.5037C120.845 68.5139 120.834 68.5299 120.83 68.5482C120.826 68.5671 120.829 68.5867 120.84 68.6031C120.85 68.6195 120.866 68.6314 120.884 68.6364C121.023 68.6601 121.164 68.6742 121.304 68.6784C121.835 68.6932 122.35 68.5003 122.741 68.1408C122.753 68.1264 122.759 68.1082 122.758 68.0896C122.757 68.071 122.75 68.0533 122.737 68.04Z" fill="#212529"/>
<path d="M126.42 66.78C126.141 66.8895 125.896 67.0706 125.71 67.305C125.54 67.5038 125.398 67.7258 125.29 67.9644C124.971 68.67 125.168 69.4596 125.87 69.3966C125.945 69.3966 126.025 69.363 126.105 69.3462C126.435 69.2586 126.736 69.0863 126.979 68.8464C126.891 68.1348 126.703 67.4391 126.42 66.78Z" fill="#FFC3BD"/>
<path d="M124.555 61.4544C124.58 60.8496 124.925 60.7026 125.395 60.795C122.85 59.3082 119.116 60.9378 118.839 62.895C119.091 62.895 119.351 62.895 119.62 62.895C121.265 62.8541 122.895 62.587 124.467 62.1012C124.443 61.8816 124.473 61.6594 124.555 61.4544Z" fill="#212529"/>
<path d="M124.555 61.4544C124.476 61.6543 124.445 61.8704 124.467 62.0844C124.53 62.9748 125.206 64.1844 125.845 65.4822C126.05 65.9022 126.265 66.3222 126.428 66.7716C126.711 67.4306 126.899 68.1263 126.987 68.838C127.063 69.4738 126.97 70.1183 126.718 70.707C127.73 69.5562 128.146 67.494 128.314 65.7384C128.41 64.7096 128.44 63.6756 128.402 62.643C128.402 62.643 126.529 61.0218 125.395 60.795C124.925 60.7026 124.58 60.8496 124.555 61.4544Z" fill="#212529"/>
<path d="M122.64 63.8694C122.823 63.9032 122.995 63.9809 123.141 64.0957C123.287 64.2106 123.404 64.3592 123.48 64.5288C123.487 64.5471 123.498 64.5634 123.513 64.5765C123.528 64.5896 123.545 64.5992 123.564 64.6044C123.599 64.6189 123.638 64.6189 123.673 64.6044C123.708 64.5864 123.734 64.5559 123.746 64.5191C123.759 64.4824 123.757 64.4422 123.74 64.407C123.648 64.193 123.505 64.0046 123.323 63.8583C123.142 63.7119 122.928 63.612 122.699 63.567C122.66 63.5622 122.622 63.5728 122.591 63.5963C122.56 63.6199 122.54 63.6546 122.535 63.693C122.527 63.7302 122.534 63.769 122.553 63.8017C122.572 63.8344 122.604 63.8586 122.64 63.8694Z" fill="#212529"/>
<path d="M119.738 63.5166C119.774 63.5288 119.814 63.5265 119.848 63.51C119.883 63.4935 119.909 63.4643 119.923 63.4284C119.929 63.4108 119.932 63.392 119.932 63.3731C119.931 63.3542 119.927 63.3357 119.919 63.3185C119.911 63.3013 119.9 63.2858 119.886 63.273C119.873 63.2601 119.856 63.2502 119.839 63.2436C119.703 63.2013 119.561 63.18 119.419 63.1806C119.091 63.1794 118.773 63.2856 118.511 63.483C118.481 63.5071 118.461 63.5418 118.456 63.5801C118.45 63.6183 118.46 63.6573 118.482 63.6888C118.505 63.7177 118.538 63.7371 118.574 63.7434C118.594 63.7477 118.614 63.7476 118.634 63.7433C118.653 63.7389 118.672 63.7304 118.688 63.7182C118.853 63.5912 119.048 63.51 119.255 63.483C119.416 63.4567 119.582 63.4682 119.738 63.5166Z" fill="#212529"/>
<path d="M122.283 65.6922C122.324 65.709 122.369 65.7148 122.414 65.7089C122.458 65.703 122.5 65.6856 122.535 65.6586L121.985 65.3772C122.044 65.514 122.15 65.6255 122.283 65.6922Z" fill="#212529"/>
<path d="M129.003 86.2344C129.003 86.0622 129.028 85.8774 129.037 85.701C128.801 85.3272 128.562 84.9492 128.314 84.5754L127.831 83.8572L127.68 83.937C128.063 84.7348 128.505 85.5028 129.003 86.2344Z" fill="#212529"/>
<path opacity="0.2" d="M129.003 86.2344C129.003 86.0622 129.028 85.8774 129.037 85.701C128.801 85.3272 128.562 84.9492 128.314 84.5754L127.831 83.8572L127.68 83.937C128.063 84.7348 128.505 85.5028 129.003 86.2344Z" fill="#151515"/>
<path d="M130.25 89.712V89.7792C131.925 88.874 133.469 87.7435 134.837 86.4192C134.607 85.7417 134.338 85.0783 134.03 84.4326C133.623 83.5543 133.17 82.6978 132.674 81.8664C132.254 81.144 131.809 80.4552 131.351 79.7664C130.931 80.6442 129.738 82.7568 127.844 83.8446L128.327 84.5628C128.575 84.9366 128.814 85.3146 129.049 85.6884C129.255 86.016 129.469 86.3478 129.641 86.6754C129.965 87.2424 130.267 87.8136 130.481 88.3554L130.439 88.641C130.389 88.9896 130.326 89.3466 130.25 89.712Z" fill="#FFC3BD"/>
<path d="M124.954 81.7236C124.954 81.7236 126.029 82.7988 127.289 84.1302C127.424 84.0714 127.554 84.0042 127.68 83.937L127.831 83.8572C129.725 82.7694 130.91 80.6568 131.338 79.779C131.46 79.5312 131.523 79.38 131.523 79.38C131.523 79.38 130.305 77.364 128.633 76.3476C128.235 76.0956 127.793 75.9177 127.331 75.8226C124.354 76.5828 123.383 78.4476 124.954 81.7236Z" fill="#212529"/>
<path d="M145.093 39.5934H151.011C151.173 39.5907 151.327 39.5275 151.445 39.4163C151.562 39.3051 151.634 39.154 151.645 38.9928C151.65 38.916 151.64 38.8389 151.614 38.7664C151.588 38.6939 151.547 38.6276 151.494 38.5716C151.441 38.5156 151.377 38.4711 151.307 38.441C151.236 38.4108 151.159 38.3956 151.082 38.3964H145.16C144.999 38.399 144.845 38.4616 144.728 38.5719C144.611 38.6822 144.539 38.8323 144.526 38.9928C144.52 39.0703 144.531 39.1482 144.557 39.2215C144.583 39.2948 144.624 39.3618 144.677 39.4183C144.73 39.4749 144.795 39.5196 144.867 39.5498C144.938 39.5799 145.016 39.5948 145.093 39.5934Z" fill="#04459D"/>
<path d="M144.971 41.6556H150.889C151.051 41.6528 151.206 41.5897 151.323 41.4785C151.44 41.3673 151.512 41.2162 151.523 41.055C151.529 40.9778 151.519 40.9003 151.493 40.8273C151.468 40.7543 151.427 40.6875 151.374 40.631C151.321 40.5745 151.257 40.5297 151.186 40.4993C151.115 40.4689 151.038 40.4536 150.961 40.4544H145.043C144.88 40.4561 144.725 40.5188 144.606 40.6301C144.488 40.7413 144.416 40.893 144.404 41.055C144.4 41.1322 144.411 41.2096 144.438 41.2823C144.464 41.355 144.505 41.4215 144.558 41.4778C144.611 41.5341 144.675 41.5789 144.746 41.6094C144.817 41.64 144.894 41.6557 144.971 41.6556Z" fill="#04459D"/>
<path d="M97.0956 41.6556H103.013C103.175 41.6529 103.331 41.5899 103.449 41.4788C103.567 41.3677 103.639 41.2166 103.652 41.055C103.657 40.9776 103.646 40.9 103.62 40.827C103.594 40.754 103.553 40.6872 103.499 40.6308C103.446 40.5744 103.382 40.5296 103.311 40.4993C103.239 40.4689 103.162 40.4536 103.085 40.4544H97.167C97.005 40.4561 96.8497 40.519 96.7321 40.6304C96.6145 40.7417 96.5433 40.8934 96.5328 41.055C96.5276 41.132 96.5383 41.2093 96.5643 41.282C96.5902 41.3547 96.6308 41.4213 96.6836 41.4776C96.7364 41.5339 96.8002 41.5788 96.8711 41.6094C96.942 41.64 97.0184 41.6557 97.0956 41.6556Z" fill="#04459D"/>
<path d="M144.85 43.7136H150.78C150.942 43.7119 151.098 43.6492 151.216 43.5379C151.335 43.4266 151.407 43.275 151.418 43.113C151.423 43.0358 151.412 42.9584 151.385 42.8857C151.359 42.813 151.318 42.7464 151.265 42.6902C151.212 42.6339 151.148 42.5891 151.076 42.5585C151.005 42.528 150.929 42.5123 150.851 42.5124H144.921C144.759 42.515 144.604 42.5781 144.486 42.6892C144.368 42.8002 144.295 42.9514 144.283 43.113C144.277 43.1904 144.288 43.268 144.314 43.341C144.341 43.414 144.382 43.4808 144.435 43.5372C144.488 43.5936 144.552 43.6383 144.624 43.6687C144.695 43.6991 144.772 43.7143 144.85 43.7136Z" fill="#04459D"/>
<path d="M137.071 119.066H101.27C100.602 119.072 99.9391 118.94 99.3241 118.678C98.709 118.415 98.1549 118.029 97.6965 117.542C97.2381 117.055 96.8854 116.479 96.6606 115.849C96.4357 115.219 96.3436 114.55 96.39 113.883C96.4907 112.489 97.1104 111.183 98.1266 110.224C99.1429 109.264 100.482 108.721 101.879 108.7H137.68C138.349 108.694 139.011 108.826 139.626 109.088C140.242 109.351 140.796 109.737 141.254 110.224C141.712 110.711 142.065 111.287 142.29 111.917C142.515 112.547 142.607 113.216 142.561 113.883C142.46 115.277 141.84 116.583 140.824 117.542C139.808 118.502 138.469 119.045 137.071 119.066Z" fill="white"/>
<path d="M136.256 132.997H100.451C99.7828 133.002 99.1204 132.869 98.5056 132.606C97.8909 132.343 97.337 131.956 96.8788 131.469C96.4206 130.982 96.068 130.406 95.8429 129.776C95.6179 129.147 95.5253 128.477 95.5711 127.81C95.6748 126.418 96.2958 125.116 97.3117 124.159C98.3276 123.202 99.665 122.66 101.06 122.64H136.865C137.534 122.634 138.197 122.766 138.812 123.028C139.427 123.29 139.981 123.677 140.439 124.164C140.898 124.651 141.25 125.227 141.475 125.857C141.7 126.486 141.792 127.156 141.746 127.823C141.642 129.215 141.021 130.518 140.006 131.475C138.99 132.433 137.652 132.976 136.256 132.997Z" fill="white"/>
<path d="M135.437 146.924H99.6366C98.968 146.931 98.3053 146.798 97.6903 146.536C97.0752 146.274 96.5211 145.887 96.0627 145.401C95.6043 144.914 95.2516 144.337 95.0268 143.708C94.8019 143.078 94.7098 142.409 94.7562 141.742C94.8569 140.347 95.4763 139.041 96.4925 138.081C97.5087 137.121 98.8477 136.576 100.246 136.555H136.046C136.715 136.549 137.378 136.682 137.993 136.944C138.608 137.207 139.162 137.594 139.62 138.081C140.079 138.568 140.431 139.145 140.656 139.775C140.881 140.405 140.973 141.074 140.927 141.742C140.826 143.136 140.206 144.441 139.19 145.401C138.174 146.36 136.835 146.904 135.437 146.924Z" fill="white"/>
<path d="M104.052 115.741C105.142 114.682 105.217 112.992 104.22 111.965C103.223 110.938 101.531 110.964 100.441 112.022C99.3511 113.081 99.2758 114.771 100.273 115.798C101.27 116.825 102.962 116.799 104.052 115.741Z" fill="#04459D"/>
<path d="M101.93 125.286L102.283 126.617C102.303 126.691 102.347 126.755 102.408 126.801C102.469 126.846 102.543 126.87 102.619 126.869H104.017C104.096 126.87 104.173 126.897 104.235 126.945C104.297 126.993 104.342 127.061 104.363 127.137C104.383 127.213 104.378 127.294 104.348 127.367C104.319 127.44 104.266 127.501 104.198 127.541L103.018 128.381C102.951 128.426 102.899 128.491 102.87 128.566C102.842 128.641 102.838 128.723 102.858 128.801L103.211 130.133C103.232 130.209 103.229 130.29 103.202 130.365C103.175 130.44 103.126 130.504 103.062 130.55C102.997 130.596 102.92 130.621 102.841 130.621C102.761 130.622 102.684 130.598 102.619 130.553L101.535 129.713C101.473 129.67 101.4 129.646 101.325 129.646C101.25 129.646 101.177 129.67 101.115 129.713L99.9348 130.553C99.873 130.602 99.7964 130.629 99.7174 130.63C99.6383 130.63 99.5614 130.604 99.4989 130.556C99.4365 130.507 99.3921 130.439 99.3729 130.363C99.3537 130.286 99.3608 130.205 99.393 130.133L99.9012 128.801C99.9324 128.729 99.9386 128.649 99.9188 128.573C99.899 128.497 99.8544 128.429 99.792 128.381L98.7084 127.541C98.6488 127.49 98.6064 127.422 98.587 127.345C98.5677 127.269 98.5724 127.189 98.6004 127.115C98.6284 127.042 98.6784 126.979 98.7436 126.935C98.8088 126.891 98.886 126.868 98.9646 126.869H100.363C100.442 126.869 100.52 126.845 100.585 126.8C100.65 126.755 100.7 126.692 100.729 126.617L101.22 125.286C101.242 125.209 101.289 125.142 101.353 125.094C101.417 125.046 101.495 125.02 101.575 125.02C101.655 125.02 101.733 125.046 101.797 125.094C101.861 125.142 101.907 125.209 101.93 125.286Z" fill="#04459D"/>
<path d="M102.9 140.33L102.677 144.068C102.667 144.225 102.597 144.372 102.483 144.48C102.368 144.587 102.217 144.647 102.06 144.648H98.7882C98.7159 144.644 98.6451 144.625 98.5801 144.593C98.5151 144.561 98.4572 144.516 98.4098 144.461C98.3625 144.407 98.3266 144.343 98.3043 144.274C98.282 144.205 98.2737 144.132 98.28 144.06L98.553 139.406C98.5625 139.25 98.6311 139.102 98.7448 138.994C98.8586 138.886 99.0091 138.824 99.1662 138.823H101.518L102.9 140.33Z" fill="#04459D"/>
<path d="M101.497 138.831L102.913 140.33H101.993C101.918 140.331 101.844 140.316 101.775 140.287C101.706 140.258 101.644 140.215 101.593 140.16C101.542 140.106 101.502 140.041 101.477 139.971C101.452 139.9 101.442 139.825 101.447 139.751L101.497 138.831ZM101.123 137.802L101.065 138.806L101.01 139.726C101.003 139.86 101.022 139.994 101.068 140.12C101.113 140.246 101.184 140.362 101.275 140.461C101.367 140.558 101.478 140.636 101.602 140.688C101.725 140.741 101.859 140.768 101.993 140.767H103.916L103.228 140.032L101.816 138.533L101.123 137.802Z" fill="white"/>
<path opacity="0.2" d="M135.87 113.333H109.078C108.97 113.334 108.862 113.312 108.763 113.27C108.663 113.227 108.573 113.164 108.499 113.086C108.424 113.007 108.367 112.913 108.33 112.811C108.293 112.709 108.278 112.601 108.284 112.493C108.302 112.267 108.404 112.055 108.569 111.9C108.735 111.744 108.952 111.656 109.179 111.653H135.967C136.075 111.652 136.183 111.674 136.282 111.716C136.382 111.759 136.472 111.821 136.546 111.9C136.621 111.979 136.678 112.072 136.715 112.174C136.752 112.276 136.767 112.385 136.76 112.493C136.744 112.719 136.643 112.93 136.478 113.086C136.313 113.241 136.097 113.329 135.87 113.333Z" fill="#04459D"/>
<path opacity="0.2" d="M130.792 116.122H108.919C108.81 116.122 108.702 116.101 108.602 116.058C108.503 116.016 108.412 115.953 108.338 115.875C108.263 115.796 108.205 115.703 108.168 115.601C108.13 115.499 108.114 115.39 108.121 115.282C108.138 115.055 108.24 114.844 108.405 114.688C108.571 114.533 108.788 114.445 109.015 114.442H130.889C130.998 114.44 131.105 114.461 131.206 114.504C131.306 114.546 131.396 114.608 131.471 114.687C131.546 114.766 131.604 114.86 131.641 114.962C131.678 115.064 131.694 115.173 131.687 115.282C131.668 115.508 131.566 115.718 131.401 115.874C131.236 116.029 131.019 116.117 130.792 116.122Z" fill="#04459D"/>
<path opacity="0.2" d="M134.988 128.36H127.596C127.369 128.363 127.151 128.451 126.985 128.606C126.819 128.762 126.718 128.974 126.701 129.2C126.695 129.309 126.71 129.417 126.747 129.519C126.784 129.621 126.841 129.714 126.916 129.793C126.99 129.872 127.08 129.935 127.18 129.977C127.279 130.02 127.387 130.041 127.495 130.04H134.887C135.114 130.038 135.332 129.95 135.498 129.795C135.664 129.639 135.765 129.427 135.782 129.2C135.789 129.092 135.773 128.984 135.736 128.882C135.7 128.78 135.642 128.686 135.568 128.608C135.493 128.529 135.403 128.466 135.304 128.424C135.204 128.381 135.096 128.36 134.988 128.36Z" fill="#04459D"/>
<path opacity="0.2" d="M123.274 128.36H108.2C107.973 128.363 107.755 128.451 107.59 128.606C107.424 128.762 107.323 128.974 107.306 129.2C107.298 129.309 107.313 129.418 107.35 129.52C107.386 129.622 107.444 129.716 107.519 129.795C107.593 129.873 107.683 129.936 107.783 129.978C107.883 130.021 107.991 130.042 108.1 130.04H123.178C123.405 130.037 123.622 129.949 123.788 129.794C123.953 129.638 124.055 129.427 124.072 129.2C124.079 129.092 124.064 128.983 124.027 128.881C123.989 128.778 123.932 128.685 123.857 128.606C123.782 128.527 123.691 128.465 123.591 128.422C123.491 128.38 123.383 128.359 123.274 128.36Z" fill="#04459D"/>
<path opacity="0.2" d="M130.238 125.58H108.36C108.133 125.583 107.915 125.67 107.749 125.826C107.583 125.981 107.482 126.193 107.465 126.42C107.458 126.528 107.474 126.637 107.511 126.739C107.548 126.841 107.605 126.934 107.679 127.013C107.754 127.092 107.844 127.154 107.944 127.197C108.043 127.239 108.151 127.261 108.259 127.26H130.133C130.36 127.257 130.577 127.168 130.743 127.013C130.908 126.858 131.01 126.646 131.027 126.42C131.034 126.312 131.019 126.204 130.982 126.102C130.946 126.001 130.889 125.908 130.815 125.829C130.741 125.75 130.651 125.687 130.552 125.645C130.453 125.602 130.346 125.58 130.238 125.58Z" fill="#04459D"/>
<path opacity="0.2" d="M134.169 142.288H107.381C107.155 142.292 106.938 142.38 106.773 142.536C106.607 142.691 106.506 142.902 106.487 143.128C106.48 143.236 106.495 143.345 106.533 143.447C106.57 143.55 106.627 143.643 106.702 143.722C106.777 143.801 106.868 143.863 106.968 143.906C107.068 143.948 107.176 143.969 107.285 143.968H134.072C134.299 143.964 134.516 143.876 134.681 143.72C134.845 143.565 134.946 143.354 134.963 143.128C134.97 143.019 134.954 142.911 134.917 142.809C134.881 142.707 134.823 142.614 134.749 142.535C134.674 142.456 134.584 142.393 134.485 142.351C134.385 142.308 134.277 142.287 134.169 142.288Z" fill="#04459D"/>
<path opacity="0.2" d="M129.419 139.503H107.545C107.318 139.507 107.101 139.595 106.935 139.75C106.77 139.905 106.668 140.117 106.651 140.343C106.644 140.451 106.659 140.56 106.696 140.662C106.733 140.764 106.79 140.857 106.865 140.936C106.939 141.015 107.029 141.077 107.129 141.12C107.228 141.162 107.336 141.184 107.444 141.183H129.322C129.549 141.179 129.766 141.091 129.93 140.936C130.095 140.78 130.196 140.569 130.213 140.343C130.219 140.235 130.204 140.126 130.167 140.024C130.13 139.922 130.073 139.829 129.998 139.75C129.924 139.671 129.834 139.609 129.734 139.566C129.635 139.524 129.527 139.502 129.419 139.503Z" fill="#04459D"/>
</svg>
