<svg width="210" height="210" viewBox="0 0 210 210" fill="none" xmlns="http://www.w3.org/2000/svg">
<path d="M170.776 109.759C172.351 92.3622 143.455 48.6066 118.516 36.1956C86.1757 20.1012 47.2795 32.6928 32.9407 69.5226C19.6225 103.74 41.1055 134.597 75.2179 141.729C105.596 148.084 169.894 130.738 170.776 109.759Z" fill="#04459D"/>
<path opacity="0.9" d="M170.776 109.759C172.351 92.3622 143.455 48.6066 118.516 36.1956C86.1757 20.1012 47.2795 32.6928 32.9407 69.5226C19.6225 103.74 41.1055 134.597 75.2179 141.729C105.596 148.084 169.894 130.738 170.776 109.759Z" fill="white"/>
<path d="M105 179.575C149.975 179.575 186.434 177.447 186.434 174.821C186.434 172.195 149.975 170.066 105 170.066C60.0253 170.066 23.5662 172.195 23.5662 174.821C23.5662 177.447 60.0253 179.575 105 179.575Z" fill="#F5F5F5"/>
<path d="M83.8573 55.86C82.5007 53.0124 79.4851 53.9616 79.7371 51.534C79.9891 49.1064 77.5615 45.7296 73.8571 47.5902C70.1527 49.4508 72.2065 53.8482 72.2065 53.8482C72.2065 53.8482 70.1863 61.5132 73.6219 63.9282C76.3603 65.8392 82.2823 64.1634 81.3835 61.4586C80.4847 58.7538 85.2097 58.7076 83.8573 55.86Z" fill="#212529"/>
<path d="M81.6017 63.5712C81.5808 63.5709 81.5604 63.5644 81.5431 63.5524C81.5259 63.5404 81.5127 63.5236 81.5051 63.504C80.5307 60.9168 81.8495 59.6736 83.0129 58.5774C83.9327 57.7122 84.7265 56.9646 84.3065 55.7004C83.8151 54.2304 82.7735 53.8566 81.8579 53.5248C80.9423 53.193 80.1401 52.9032 80.2157 51.6222C80.231 50.8972 80.0626 50.18 79.7263 49.5375C79.3899 48.895 78.8966 48.3479 78.2921 47.9472C77.4731 47.4306 76.1165 47.0274 74.3021 48.0354C74.2776 48.0488 74.2488 48.0519 74.222 48.044C74.1953 48.0361 74.1727 48.0179 74.1593 47.9934C74.146 47.9689 74.1429 47.9401 74.1508 47.9133C74.1586 47.8865 74.1768 47.864 74.2013 47.8506C75.6881 47.0106 77.1791 47.0106 78.4013 47.7708C79.0406 48.1882 79.562 48.7626 79.9158 49.4391C80.2695 50.1157 80.4436 50.8717 80.4215 51.6348C80.3543 52.7604 81.0473 53.0082 81.9251 53.3148C82.8029 53.6214 83.9747 54.054 84.4997 55.6206C84.9659 57.0108 84.0797 57.8424 83.1557 58.7202C81.9839 59.8206 80.7743 60.963 81.6983 63.4158C81.7079 63.4426 81.7067 63.472 81.695 63.4979C81.6832 63.5238 81.6618 63.5441 81.6353 63.5544L81.6017 63.5712Z" fill="#212529"/>
<path d="M64.4573 75.7932C64.3397 76.0032 64.2683 76.1208 64.1717 76.272L63.8987 76.692C63.7139 76.965 63.5207 77.2254 63.3233 77.4858C62.9249 78.004 62.4972 78.499 62.0423 78.9684C61.1118 79.9254 60.0581 80.7545 58.9091 81.4338C57.7154 82.1372 56.4053 82.6208 55.0409 82.8618C54.3477 82.9823 53.6442 83.033 52.9409 83.013C52.5923 83.013 52.2479 82.9878 51.9077 82.9374L51.6515 82.908H51.5213L51.3533 82.8786C51.1267 82.84 50.9034 82.7838 50.6855 82.7106C49.9543 82.4491 49.2727 82.0657 48.6695 81.5766C48.1494 81.1581 47.6622 80.7004 47.2121 80.2074C46.385 79.2897 45.6335 78.3065 44.9651 77.2674C44.3057 76.2468 43.7051 75.2094 43.1507 74.1594C42.5963 73.1094 42.0923 72.0594 41.6345 70.917L43.3817 70.0308C43.9949 70.9674 44.6417 71.9292 45.2969 72.8448C45.9521 73.7604 46.6283 74.676 47.3381 75.5328C48.0199 76.3756 48.7565 77.1725 49.5431 77.9184C49.9039 78.2555 50.2901 78.5644 50.6981 78.8424C51.0141 79.0659 51.3646 79.2361 51.7355 79.3464C51.7944 79.3631 51.855 79.3729 51.9161 79.3758H52.0799H52.2563C52.49 79.3884 52.7241 79.3884 52.9577 79.3758C53.4214 79.3546 53.8824 79.2928 54.3353 79.191C55.2493 78.9699 56.1215 78.6026 56.9183 78.1032C57.7522 77.5713 58.5156 76.9363 59.1905 76.2132C59.5421 75.8472 59.8744 75.4631 60.1859 75.0624C60.3413 74.865 60.4883 74.6424 60.6311 74.4534L60.8411 74.1468L61.0091 73.8864L64.4573 75.7932Z" fill="#B65B52"/>
<path d="M64.5539 71.4924C61.0217 71.6646 60.1523 73.9368 60.1523 73.9368L64.2305 80.1528C64.2305 80.1528 65.9735 78.2796 66.4439 76.1838C66.9311 73.9998 66.9521 71.3748 64.5539 71.4924Z" fill="#212529"/>
<path d="M43.5624 70.5894L43.3734 67.2294L40.0974 69.6696C40.0974 69.6696 40.908 71.4 42.4662 71.7696L43.5624 70.5894Z" fill="#B55B52"/>
<path d="M41.3364 64.575L39.228 66.8346L40.0974 69.6696L43.3734 67.2294L41.3364 64.575Z" fill="#B55B52"/>
<path d="M83.2021 170.73L79.3884 171.095L77.4438 162.208L81.2616 161.843L83.2021 170.73Z" fill="#B55B52"/>
<path d="M118.264 159.222L115.315 161.788L108.57 155.925L111.518 153.355L118.264 159.222Z" fill="#B55B52"/>
<path d="M113.82 160.889L116.457 157.378C116.501 157.316 116.565 157.272 116.639 157.255C116.712 157.237 116.79 157.246 116.856 157.282L119.889 158.907C119.964 158.951 120.029 159.011 120.078 159.082C120.128 159.154 120.162 159.235 120.178 159.32C120.194 159.406 120.192 159.494 120.171 159.578C120.15 159.663 120.111 159.742 120.057 159.81C119.116 161.02 118.604 161.557 117.444 163.103C116.73 164.052 115.286 166.257 114.303 167.567C113.32 168.878 111.989 167.987 112.283 167.37C113.606 164.539 113.677 162.88 113.614 161.549C113.604 161.312 113.677 161.079 113.82 160.889Z" fill="#212529"/>
<path d="M78.9097 169.945H83.4961C83.5784 169.945 83.6585 169.972 83.7238 170.022C83.7891 170.072 83.836 170.142 83.8573 170.222L84.8569 173.851C84.8812 173.936 84.885 174.026 84.8682 174.114C84.8514 174.201 84.8144 174.284 84.7601 174.354C84.7059 174.425 84.6358 174.482 84.5557 174.52C84.4755 174.559 84.3874 174.579 84.2983 174.577C82.6939 174.548 81.9127 174.455 79.8925 174.455C78.6535 174.455 75.4447 174.586 73.7311 174.586C72.0175 174.586 71.7025 172.906 72.3997 172.738C75.5077 172.049 77.3011 171.1 78.2797 170.192C78.4517 170.034 78.6762 169.946 78.9097 169.945Z" fill="#212529"/>
<path opacity="0.2" d="M77.448 162.208L78.4476 166.79H82.3452L81.2616 161.843L77.448 162.208Z" fill="#151515"/>
<path opacity="0.2" d="M111.518 153.359L108.57 155.929L112.048 158.949L114.996 156.379L111.518 153.359Z" fill="#151515"/>
<path d="M61.8745 72.24C61.8745 72.24 60.249 73.3572 69.4092 94.227L84.6342 90.027C82.8072 83.9412 81.8286 80.1444 81.5641 66.6876C79.3171 66.8366 77.0838 67.1482 74.8818 67.62C72.5352 68.0927 70.225 68.7313 67.9687 69.531C65.0665 70.602 61.8745 72.24 61.8745 72.24Z" fill="#212529"/>
<path d="M72.2399 60.06C72.3659 62.391 72.9665 66.5616 74.8985 67.62C74.8985 67.62 76.4231 74.6424 70.8497 81.7656C64.9697 76.5996 67.9853 69.531 67.9853 69.531C70.3163 68.271 69.7871 66.444 68.9135 64.848L72.2399 60.06Z" fill="#B55B52"/>
<path d="M74.8819 67.62C74.8819 67.62 76.4065 74.6424 70.8331 81.7656C64.9531 76.5996 67.9687 69.531 67.9687 69.531C67.9687 69.531 68.8339 71.7024 70.5895 72.4458C71.7109 71.7948 73.9747 69.7452 74.8819 67.62Z" fill="#F5F5F5"/>
<path d="M71.0471 72.135C71.0471 72.135 74.1803 70.9968 76.5071 71.8368C76.7129 70.5768 77.0069 67.9224 76.0199 67.2168C75.6177 67.2293 75.2278 67.3592 74.8985 67.5906L71.0471 72.135Z" fill="white"/>
<path d="M70.1399 72.1812C70.1399 72.1812 68.0861 71.7024 66.0533 73.71C65.9063 72.45 66.0029 70.35 67.0193 69.6318C67.375 69.4504 67.7606 69.3351 68.1575 69.2916C68.6472 70.3617 69.3179 71.3392 70.1399 72.1812Z" fill="white"/>
<path opacity="0.2" d="M71.8621 60.5724C72.163 61.9037 72.1773 63.2839 71.9041 64.6212C71.7109 65.5452 70.7071 66.2214 69.5899 66.6162C69.4568 65.987 69.2243 65.383 68.9011 64.827L71.8621 60.5724Z" fill="#151515"/>
<path d="M65.5831 52.1472C62.2987 56.658 65.5495 62.6472 68.3635 62.5212C70.4635 62.4414 73.1977 59.7828 72.8575 57.393C72.3493 53.8104 67.2337 49.8792 65.5831 52.1472Z" fill="#212529"/>
<path d="M75.4949 57.3216C74.7137 61.1016 74.4617 62.7102 72.2651 64.428C68.9597 67.011 64.5161 65.331 64.1591 61.425C63.8399 57.9096 65.1755 52.3278 69.1025 51.2694C69.9569 51.0243 70.8603 51.0062 71.7238 51.2169C72.5872 51.4276 73.3808 51.8598 74.0263 52.4709C74.6717 53.082 75.1466 53.8508 75.4041 54.7014C75.6617 55.5521 75.693 56.4552 75.4949 57.3216Z" fill="#B55B52"/>
<path d="M72.24 51.4794C72.0846 52.5882 74.34 55.7046 76.86 55.6794C78.0864 55.6794 78.4644 53.7978 77.28 52.0968C75.6882 49.8456 72.4836 49.8876 72.24 51.4794Z" fill="#04459D"/>
<path d="M67.0782 52.1976C66.8052 54.1254 70.8582 59.22 75.1884 59.1486C77.3136 59.115 77.7084 54.2724 76.1376 52.4538C73.08 48.8964 67.4688 49.4424 67.0782 52.1976Z" fill="#212529"/>
<path d="M73.9578 58.0524C72.6348 58.3212 73.4034 60.1104 74.2056 61.0176C75.2304 60.3204 76.0494 57.6282 73.9578 58.0524Z" fill="#212529"/>
<path d="M70.476 53.7936C67.3134 55.1082 64.2096 51.7482 63.3066 50.2614C65.5914 50.589 70.308 47.4726 72.2484 51.4164C73.6134 54.18 70.476 53.7936 70.476 53.7936Z" fill="#212529"/>
<path d="M69.7705 53.5626C67.6201 55.4358 64.2559 53.655 63.1387 52.7226C65.0371 52.3614 67.9351 48.6612 70.5349 51.2106C72.3619 53.0208 69.7705 53.5626 69.7705 53.5626Z" fill="#212529"/>
<path d="M76.4148 60.1776C76.229 60.9034 75.7681 61.5285 75.1296 61.9206C74.2896 62.433 73.6092 61.7484 73.6386 60.816C73.6638 59.976 74.1384 58.716 75.0918 58.5648C75.2989 58.5371 75.5097 58.5627 75.7041 58.6393C75.8986 58.716 76.0702 58.841 76.2027 59.0025C76.3353 59.1641 76.4243 59.3569 76.4614 59.5625C76.4985 59.7682 76.4825 59.9799 76.4148 60.1776Z" fill="#B55B52"/>
<path d="M69.4091 94.206C69.4091 94.206 67.8341 124.765 70.0181 136.303C72.2903 148.306 76.5743 165.459 76.5743 165.459L83.8235 165.106C83.8235 165.106 81.1145 143.346 80.4635 134.068C79.5815 121.283 80.5475 91.119 80.5475 91.119L69.4091 94.206Z" fill="#04459D"/>
<path opacity="0.4" d="M69.4091 94.206C69.4091 94.206 67.8341 124.765 70.0181 136.303C72.2903 148.306 76.5743 165.459 76.5743 165.459L83.8235 165.106C83.8235 165.106 81.1145 143.346 80.4635 134.068C79.5815 121.283 80.5475 91.119 80.5475 91.119L69.4091 94.206Z" fill="#151515"/>
<path opacity="0.2" d="M80.2745 102.619C79.2119 99.7878 78.2585 98.2296 78.0695 101.048C77.6747 107.012 78.5609 113.828 80.1065 117.209C80.1191 112.14 80.1947 106.995 80.2745 102.619Z" fill="#151515"/>
<path d="M84.3318 165.459L76.0704 165.858L75.0918 162.838L84.0462 162.137L84.3318 165.459Z" fill="#04459D"/>
<path d="M73.4287 93.093C73.4287 93.093 82.1353 118.058 88.0741 131.842C92.8705 142.976 110.414 158.533 110.414 158.533L114.559 155.093C114.559 155.093 102.027 137.361 98.7085 129.809C88.0825 105.634 91.2367 95.3946 84.6343 89.9934L73.4287 93.093Z" fill="#04459D"/>
<path opacity="0.4" d="M73.4287 93.093C73.4287 93.093 82.1353 118.058 88.0741 131.842C92.8705 142.976 110.414 158.533 110.414 158.533L114.559 155.093C114.559 155.093 102.027 137.361 98.7085 129.809C88.0825 105.634 91.2367 95.3946 84.6343 89.9934L73.4287 93.093Z" fill="#151515"/>
<path d="M114.895 155.056L110.254 159.071L107.982 157.395L113.446 152.825L114.895 155.056Z" fill="#04459D"/>
<path d="M84.6342 89.04L85.6674 90.2076C85.7472 90.2958 85.6674 90.4386 85.4742 90.4848L69.5142 94.9032C69.3798 94.941 69.2496 94.9032 69.216 94.8234L68.733 93.5088C68.6994 93.4164 68.8002 93.303 68.9514 93.261L84.3696 88.998C84.4137 88.9821 84.4611 88.9776 84.5074 88.9849C84.5536 88.9923 84.5973 89.0112 84.6342 89.04Z" fill="#04459D"/>
<path d="M83.0047 91.329L83.4247 91.2114C83.5087 91.2114 83.5591 91.1316 83.5381 91.0812L82.8955 89.376C82.8955 89.3256 82.7947 89.3046 82.7149 89.3256L82.2949 89.439C82.2151 89.4642 82.1605 89.523 82.1815 89.5734L82.8241 91.2786C82.8367 91.329 82.9207 91.35 83.0047 91.329Z" fill="#04459D"/>
<path opacity="0.4" d="M83.0047 91.329L83.4247 91.2114C83.5087 91.2114 83.5591 91.1316 83.5381 91.0812L82.8955 89.376C82.8955 89.3256 82.7947 89.3046 82.7149 89.3256L82.2949 89.439C82.2151 89.4642 82.1605 89.523 82.1815 89.5734L82.8241 91.2786C82.8367 91.329 82.9207 91.35 83.0047 91.329Z" fill="#151515"/>
<path d="M70.7071 94.731L71.1271 94.6134C71.2111 94.5924 71.2615 94.5336 71.2405 94.4832L70.5979 92.778C70.5979 92.7276 70.4971 92.7066 70.4173 92.7276L69.9973 92.841C69.9175 92.8662 69.8629 92.925 69.8839 92.9754L70.5265 94.6806C70.5601 94.731 70.6231 94.752 70.7071 94.731Z" fill="#04459D"/>
<path opacity="0.4" d="M70.7071 94.731L71.1271 94.6134C71.2111 94.5924 71.2615 94.5336 71.2405 94.4832L70.5979 92.778C70.5979 92.7276 70.4971 92.7066 70.4173 92.7276L69.9973 92.841C69.9175 92.8662 69.8629 92.925 69.8839 92.9754L70.5265 94.6806C70.5601 94.731 70.6231 94.752 70.7071 94.731Z" fill="#151515"/>
<path d="M76.8599 93.03L77.2799 92.9124C77.3639 92.8914 77.4144 92.8326 77.3934 92.7822L76.7508 91.077C76.7508 91.0266 76.6499 91.0056 76.5701 91.0266L76.1501 91.14C76.0703 91.1652 76.0157 91.224 76.0367 91.2744L76.6794 92.9796C76.6878 93.03 76.7717 93.051 76.8599 93.03Z" fill="#04459D"/>
<path opacity="0.4" d="M76.8599 93.03L77.2799 92.9124C77.3639 92.8914 77.4144 92.8326 77.3934 92.7822L76.7508 91.077C76.7508 91.0266 76.6499 91.0056 76.5701 91.0266L76.1501 91.14C76.0703 91.1652 76.0157 91.224 76.0367 91.2744L76.6794 92.9796C76.6878 93.03 76.7717 93.051 76.8599 93.03Z" fill="#151515"/>
<path d="M69.5945 57.6987C69.6444 57.3895 69.5215 57.1126 69.32 57.08C69.1185 57.0475 68.9147 57.2717 68.8648 57.5809C68.8149 57.89 68.9378 58.167 69.1393 58.1995C69.3408 58.2321 69.5446 58.0078 69.5945 57.6987Z" fill="#212529"/>
<path d="M66.0997 57.2586C66.0577 57.5652 65.8561 57.7962 65.6545 57.7752C65.4529 57.7542 65.3269 57.477 65.3689 57.1662C65.4109 56.8554 65.6167 56.6286 65.8183 56.6538C66.0199 56.679 66.1459 56.9478 66.0997 57.2586Z" fill="#212529"/>
<path d="M65.9022 56.7L65.1924 56.3976C65.1924 56.3976 65.4906 57.0024 65.9022 56.7Z" fill="#212529"/>
<path d="M66.948 57.9012C66.5696 58.5744 66.1035 59.1944 65.562 59.745C65.7048 59.8766 65.8747 59.9752 66.0597 60.034C66.2448 60.0928 66.4405 60.1103 66.633 60.0852L66.948 57.9012Z" fill="#A02724"/>
<path d="M67.5067 61.425C67.4909 61.417 67.4782 61.404 67.4706 61.3881C67.463 61.3721 67.461 61.3541 67.4647 61.3368C67.4663 61.3246 67.4702 61.3129 67.4764 61.3022C67.4825 61.2916 67.4907 61.2823 67.5005 61.2749C67.5102 61.2674 67.5214 61.262 67.5333 61.259C67.5452 61.2559 67.5576 61.2552 67.5697 61.257C67.956 61.3102 68.3494 61.273 68.7189 61.1484C69.0884 61.0238 69.4239 60.8151 69.6991 60.5388C69.7164 60.5216 69.7398 60.512 69.7642 60.512C69.7886 60.512 69.812 60.5216 69.8293 60.5388C69.8377 60.547 69.8444 60.5568 69.8489 60.5676C69.8534 60.5784 69.8558 60.5901 69.8558 60.6018C69.8558 60.6135 69.8534 60.6251 69.8489 60.636C69.8444 60.6468 69.8377 60.6566 69.8293 60.6648C69.5354 60.9674 69.174 61.196 68.7746 61.3318C68.3752 61.4676 67.9493 61.5067 67.5319 61.446C67.5212 61.4423 67.5123 61.4348 67.5067 61.425Z" fill="#212529"/>
<path d="M71.0599 56.2422C71.0331 56.228 71.0111 56.206 70.9969 56.1792C70.8917 55.9764 70.7389 55.8021 70.5517 55.6712C70.3645 55.5403 70.1483 55.4566 69.9217 55.4274C69.8978 55.4264 69.8743 55.4205 69.8528 55.4101C69.8312 55.3997 69.8119 55.385 69.7962 55.3669C69.7805 55.3488 69.7686 55.3277 69.7613 55.3049C69.754 55.2821 69.7514 55.258 69.7537 55.2342C69.758 55.1855 69.781 55.1404 69.8178 55.1083C69.8546 55.0762 69.9024 55.0596 69.9511 55.062C70.2373 55.0948 70.5112 55.1968 70.749 55.3593C70.9868 55.5218 71.1815 55.7398 71.3161 55.9944C71.3356 56.0299 71.3428 56.0708 71.3368 56.1109C71.3307 56.1509 71.3116 56.1878 71.2825 56.216C71.2534 56.2441 71.2159 56.2619 71.1757 56.2667C71.1355 56.2714 71.0948 56.2628 71.0599 56.2422Z" fill="#212529"/>
<path d="M64.6799 55.44H64.6547C64.6204 55.4054 64.6011 55.3586 64.6011 55.3098C64.6011 55.261 64.6204 55.2142 64.6547 55.1796C64.8424 54.9545 65.0806 54.777 65.3499 54.6617C65.6193 54.5464 65.9122 54.4964 66.2045 54.516C66.2282 54.519 66.251 54.5268 66.2716 54.539C66.2922 54.5511 66.3101 54.5673 66.3242 54.5865C66.3383 54.6057 66.3484 54.6276 66.3538 54.6509C66.3593 54.6742 66.3599 54.6983 66.3557 54.7218C66.3484 54.7705 66.3224 54.8145 66.2832 54.8443C66.2439 54.8741 66.1946 54.8874 66.1457 54.8814C65.9147 54.8688 65.684 54.911 65.4724 55.0044C65.2607 55.0978 65.0741 55.2398 64.9277 55.419C64.896 55.4519 64.8533 55.4721 64.8078 55.476C64.7622 55.4798 64.7168 55.467 64.6799 55.44Z" fill="#212529"/>
<path d="M82.9123 68.733C83.6557 69.6024 84.4957 70.5348 85.3315 71.4C86.1673 72.2652 87.0115 73.1304 87.9187 73.941C89.6423 75.5612 91.5347 76.9918 93.5635 78.2082C94.0466 78.4867 94.5443 78.739 95.0545 78.9642C95.4737 79.1511 95.918 79.2756 96.3733 79.3338C97.3794 79.4373 98.3958 79.3124 99.3469 78.9684C100.42 78.5957 101.443 78.0906 102.392 77.4648C102.879 77.1414 103.37 76.8054 103.845 76.4442C104.32 76.083 104.79 75.684 105.202 75.3186L106.693 76.5786C106.295 77.1234 105.863 77.6424 105.399 78.1326C104.944 78.6237 104.461 79.0892 103.954 79.527C102.91 80.4387 101.747 81.2058 100.498 81.8076C99.1315 82.4683 97.6255 82.7882 96.1087 82.74C95.3067 82.7098 94.5145 82.5539 93.7609 82.278C93.1042 82.035 92.4619 81.7545 91.8373 81.438C89.476 80.1913 87.2804 78.6533 85.3021 76.86C84.3193 75.9906 83.3617 75.1044 82.4629 74.1636C82.0135 73.6932 81.5683 73.2186 81.1315 72.7314C80.6947 72.2442 80.2915 71.7654 79.8379 71.2194L82.9123 68.733Z" fill="#B65B52"/>
<path d="M105.84 77.3136L108.041 75.558L105.244 73.647C105.244 73.647 103.95 75.327 104.332 76.8936L105.84 77.3136Z" fill="#B55B52"/>
<path d="M109.805 73.563L107.743 71.904L105.256 73.647L108.053 75.558L109.805 73.563Z" fill="#B55B52"/>
<path d="M81.564 66.654C83.2062 66.696 84.2016 68.334 84.2016 68.334L81.417 74.9448C81.417 74.9448 78.8718 73.3866 79.0146 71.2488C79.1574 69.0438 79.6908 66.612 81.564 66.654Z" fill="#212529"/>
<path d="M112.589 162.763C112.549 162.734 112.511 162.702 112.476 162.666C112.435 162.63 112.404 162.583 112.387 162.53C112.37 162.478 112.367 162.422 112.379 162.368C112.493 161.885 113.807 161.381 113.959 161.326C113.975 161.32 113.993 161.319 114.01 161.323C114.027 161.326 114.043 161.335 114.055 161.347C114.064 161.362 114.069 161.38 114.069 161.398C114.069 161.415 114.064 161.433 114.055 161.448C113.845 161.923 113.421 162.733 112.938 162.83C112.818 162.854 112.692 162.83 112.589 162.763ZM113.812 161.582C113.291 161.797 112.619 162.154 112.552 162.422C112.546 162.446 112.547 162.471 112.555 162.494C112.564 162.517 112.578 162.538 112.598 162.553C112.636 162.598 112.685 162.632 112.74 162.653C112.795 162.674 112.855 162.68 112.913 162.67C113.182 162.599 113.509 162.204 113.82 161.582H113.812Z" fill="#04459D"/>
<path d="M112.333 161.49C112.303 161.471 112.274 161.448 112.249 161.423C112.199 161.364 112.172 161.29 112.172 161.213C112.172 161.136 112.199 161.061 112.249 161.003C112.285 160.942 112.334 160.889 112.392 160.847C112.45 160.806 112.515 160.778 112.585 160.763C113.135 160.642 114.021 161.293 114.059 161.322C114.072 161.331 114.083 161.344 114.089 161.359C114.096 161.374 114.099 161.39 114.097 161.406C114.095 161.422 114.089 161.438 114.078 161.451C114.068 161.463 114.054 161.473 114.038 161.477C113.664 161.658 112.711 161.734 112.333 161.49ZM113.761 161.368C113.428 161.11 113.023 160.963 112.602 160.948C112.558 160.955 112.516 160.973 112.479 160.999C112.443 161.025 112.413 161.06 112.392 161.099C112.333 161.2 112.358 161.251 112.392 161.284C112.568 161.482 113.333 161.498 113.79 161.372L113.761 161.368Z" fill="#04459D"/>
<path d="M76.86 170.701C76.5455 170.723 76.2317 170.648 75.9612 170.486C75.8914 170.436 75.8343 170.369 75.7943 170.293C75.7542 170.216 75.7323 170.132 75.7302 170.045C75.7244 169.998 75.7319 169.949 75.7519 169.905C75.7719 169.862 75.8036 169.824 75.8436 169.798C76.2636 169.512 77.8218 170.218 78.1326 170.369C78.1499 170.376 78.1648 170.387 78.1753 170.403C78.1858 170.418 78.1915 170.436 78.1915 170.455C78.1915 170.474 78.1858 170.492 78.1753 170.507C78.1648 170.522 78.1499 170.534 78.1326 170.541C77.7153 170.64 77.2887 170.693 76.86 170.701ZM76.1292 169.907C76.0661 169.902 76.0029 169.916 75.9486 169.949C75.9348 169.958 75.9239 169.97 75.9172 169.985C75.9104 170 75.9082 170.017 75.9108 170.033C75.9129 170.093 75.9287 170.152 75.9571 170.205C75.9855 170.258 76.0257 170.304 76.0746 170.339C76.3434 170.541 76.9776 170.57 77.7966 170.419C77.276 170.165 76.7193 169.992 76.146 169.907H76.1292Z" fill="#04459D"/>
<path d="M78.12 170.541H78.0822C77.5656 170.327 76.5198 169.491 76.5786 169.058C76.5786 168.962 76.6584 168.844 76.8936 168.815C77.8008 168.706 78.1914 170.365 78.2082 170.436C78.212 170.452 78.2112 170.469 78.206 170.484C78.2008 170.5 78.1914 170.514 78.1788 170.524C78.1705 170.531 78.1611 170.536 78.151 170.538C78.1409 170.541 78.1304 170.542 78.12 170.541ZM76.9775 168.991H76.9146C76.818 168.991 76.7676 169.029 76.7634 169.075C76.7298 169.327 77.448 169.987 77.9772 170.276C77.847 169.882 77.5193 168.991 76.9691 168.991H76.9775Z" fill="#04459D"/>
<path d="M69.3924 57.12L68.6826 56.8134C68.6826 56.8134 68.9808 57.4308 69.3924 57.12Z" fill="#212529"/>
<path d="M100.62 174.821H148.953C152.344 174.821 155.094 172.072 155.094 168.68L155.094 52.9494C155.094 49.5581 152.344 46.809 148.953 46.809H100.62C97.2283 46.809 94.4791 49.5581 94.4791 52.9494L94.4791 168.68C94.4791 172.072 97.2283 174.821 100.62 174.821Z" fill="#04459D"/>
<path d="M94.8612 85.5707H95.6844C96.32 85.5707 96.8352 85.0555 96.8352 84.4199V69.5351C96.8352 68.8996 96.32 68.3843 95.6844 68.3843H94.8612C94.2256 68.3843 93.7104 68.8996 93.7104 69.5351V84.4199C93.7104 85.0555 94.2256 85.5707 94.8612 85.5707Z" fill="#04459D"/>
<path d="M155.219 76.7759H156.169C156.769 76.7759 157.256 76.2889 157.256 75.6881V69.4721C157.256 68.8714 156.769 68.3843 156.169 68.3843H155.219C154.619 68.3843 154.132 68.8714 154.132 69.4721V75.6881C154.132 76.2889 154.619 76.7759 155.219 76.7759Z" fill="#04459D"/>
<path d="M155.219 87.8682H156.169C156.769 87.8682 157.256 87.3811 157.256 86.7804V80.5644C157.256 79.9636 156.769 79.4766 156.169 79.4766H155.219C154.619 79.4766 154.132 79.9636 154.132 80.5644V86.7804C154.132 87.3811 154.619 87.8682 155.219 87.8682Z" fill="#04459D"/>
<path d="M101.896 174.821H150.23C153.621 174.821 156.37 172.072 156.37 168.68L156.37 52.9494C156.37 49.5581 153.621 46.809 150.23 46.809H101.896C98.5049 46.809 95.7557 49.5581 95.7557 52.9494L95.7557 168.68C95.7557 172.072 98.5049 174.821 101.896 174.821Z" fill="#04459D"/>
<path opacity="0.6" d="M101.896 174.821H150.23C153.621 174.821 156.37 172.072 156.37 168.68L156.37 52.9494C156.37 49.5581 153.621 46.809 150.23 46.809H101.896C98.5049 46.809 95.7557 49.5581 95.7557 52.9494L95.7557 168.68C95.7557 172.072 98.5049 174.821 101.896 174.821Z" fill="white"/>
<path opacity="0.3" d="M126.059 170.47C127.968 170.47 129.515 168.922 129.515 167.013C129.515 165.104 127.968 163.556 126.059 163.556C124.15 163.556 122.602 165.104 122.602 167.013C122.602 168.922 124.15 170.47 126.059 170.47Z" fill="#04459D"/>
<path d="M97.2175 161.011H154.909V56.5866H97.2175L97.2175 161.011Z" fill="white"/>
<path d="M134.77 75.5118H117.352C116.373 75.5118 115.58 76.3053 115.58 77.2842V94.7016C115.58 95.6805 116.373 96.474 117.352 96.474H134.77C135.749 96.474 136.542 95.6805 136.542 94.7016V77.2842C136.542 76.3053 135.749 75.5118 134.77 75.5118Z" fill="#04459D"/>
<path d="M119.402 75.5118H118.982V83.0718H119.402V75.5118Z" fill="white"/>
<path d="M119.192 84.3486C119.045 84.3486 118.901 84.305 118.779 84.2233C118.657 84.1416 118.561 84.0255 118.505 83.8896C118.449 83.7538 118.434 83.6043 118.463 83.4601C118.491 83.3159 118.562 83.1835 118.666 83.0795C118.77 82.9755 118.903 82.9047 119.047 82.876C119.191 82.8474 119.341 82.8621 119.476 82.9183C119.612 82.9746 119.728 83.0699 119.81 83.1921C119.892 83.3144 119.935 83.4581 119.935 83.6052C119.934 83.802 119.856 83.9904 119.716 84.1296C119.577 84.2688 119.389 84.3475 119.192 84.3486ZM119.192 83.2818C119.128 83.2818 119.065 83.3007 119.012 83.3363C118.959 83.3718 118.918 83.4223 118.893 83.4814C118.869 83.5405 118.862 83.6055 118.875 83.6683C118.887 83.731 118.918 83.7886 118.963 83.8338C119.008 83.8791 119.066 83.9099 119.129 83.9223C119.192 83.9348 119.257 83.9284 119.316 83.9039C119.375 83.8795 119.425 83.838 119.461 83.7848C119.496 83.7316 119.515 83.6691 119.515 83.6052C119.515 83.5194 119.481 83.4371 119.421 83.3765C119.36 83.3158 119.278 83.2818 119.192 83.2818Z" fill="white"/>
<path d="M121.418 90.2118C121.27 90.2126 121.124 90.1694 121.001 90.0876C120.877 90.0057 120.781 89.889 120.724 89.7522C120.667 89.6155 120.651 89.4648 120.68 89.3194C120.709 89.174 120.78 89.0404 120.885 88.9356C120.99 88.8308 121.123 88.7595 121.269 88.7308C121.414 88.7021 121.565 88.7172 121.702 88.7743C121.838 88.8314 121.955 88.9279 122.037 89.0515C122.119 89.1751 122.162 89.3202 122.161 89.4684C122.161 89.6656 122.083 89.8546 121.943 89.9941C121.804 90.1335 121.615 90.2118 121.418 90.2118ZM121.418 89.1408C121.353 89.14 121.289 89.1585 121.235 89.194C121.18 89.2294 121.138 89.2803 121.112 89.3401C121.087 89.3999 121.08 89.4659 121.092 89.5297C121.104 89.5935 121.135 89.6523 121.18 89.6985C121.226 89.7448 121.284 89.7764 121.348 89.7894C121.412 89.8023 121.478 89.7961 121.538 89.7714C121.598 89.7468 121.65 89.7048 121.686 89.6508C121.722 89.5969 121.741 89.5334 121.741 89.4684C121.742 89.4256 121.734 89.3831 121.718 89.3434C121.702 89.3036 121.678 89.2675 121.648 89.237C121.618 89.2065 121.582 89.1823 121.543 89.1658C121.503 89.1493 121.461 89.1408 121.418 89.1408Z" fill="white"/>
<path d="M130.62 95.0208C130.473 95.0208 130.329 94.9772 130.207 94.8955C130.085 94.8138 129.99 94.6977 129.933 94.5619C129.877 94.426 129.862 94.2766 129.891 94.1324C129.92 93.9882 129.99 93.8557 130.094 93.7517C130.198 93.6478 130.331 93.577 130.475 93.5483C130.619 93.5196 130.769 93.5343 130.905 93.5906C131.04 93.6469 131.157 93.7421 131.238 93.8644C131.32 93.9866 131.364 94.1304 131.364 94.2774C131.364 94.4746 131.285 94.6636 131.146 94.8031C131.006 94.9425 130.817 95.0208 130.62 95.0208ZM130.62 93.954C130.578 93.954 130.536 93.9624 130.496 93.9786C130.457 93.9949 130.421 94.0187 130.391 94.0487C130.361 94.0787 130.338 94.1144 130.321 94.1536C130.305 94.1929 130.297 94.2349 130.297 94.2774C130.297 94.3199 130.305 94.3619 130.321 94.4012C130.338 94.4404 130.361 94.476 130.391 94.5061C130.421 94.5361 130.457 94.5599 130.496 94.5762C130.536 94.5924 130.578 94.6008 130.62 94.6008C130.706 94.6008 130.788 94.5667 130.849 94.5061C130.909 94.4454 130.944 94.3632 130.944 94.2774C130.944 94.1916 130.909 94.1094 130.849 94.0487C130.788 93.9881 130.706 93.954 130.62 93.954Z" fill="white"/>
<path d="M123.719 85.8858C123.572 85.8858 123.429 85.8422 123.306 85.7605C123.184 85.6788 123.089 85.5627 123.033 85.4269C122.976 85.291 122.962 85.1416 122.99 84.9974C123.019 84.8532 123.09 84.7207 123.194 84.6167C123.298 84.5128 123.43 84.442 123.574 84.4133C123.719 84.3846 123.868 84.3993 124.004 84.4556C124.14 84.5118 124.256 84.6071 124.338 84.7294C124.419 84.8516 124.463 84.9954 124.463 85.1424C124.463 85.24 124.444 85.3367 124.406 85.4269C124.369 85.5171 124.314 85.599 124.245 85.668C124.176 85.7371 124.094 85.7918 124.004 85.8292C123.914 85.8666 123.817 85.8858 123.719 85.8858ZM123.719 84.819C123.634 84.819 123.551 84.8531 123.491 84.9137C123.43 84.9744 123.396 85.0566 123.396 85.1424C123.396 85.2282 123.43 85.3104 123.491 85.3711C123.551 85.4317 123.634 85.4658 123.719 85.4658C123.805 85.4658 123.888 85.4317 123.948 85.3711C124.009 85.3104 124.043 85.2282 124.043 85.1424C124.043 85.0566 124.009 84.9744 123.948 84.9137C123.888 84.8531 123.805 84.819 123.719 84.819Z" fill="white"/>
<path d="M119.326 96.474H118.906V86.8266L121.208 84.525V75.5118H121.628V84.6972L119.326 86.9988V96.474Z" fill="white"/>
<path d="M123.93 96.474H123.51V89.9136L125.811 87.612V75.5118H126.231V87.7842L123.93 90.0858V96.474Z" fill="white"/>
<path d="M130.834 93.744H130.414V85.4448L128.113 83.1432V75.5118H128.533V82.9668L130.834 85.2684V93.744Z" fill="white"/>
<path d="M132.926 87.8724C132.779 87.8724 132.635 87.8288 132.513 87.7471C132.391 87.6654 132.295 87.5493 132.239 87.4134C132.183 87.2776 132.168 87.1281 132.197 86.9839C132.225 86.8397 132.296 86.7073 132.4 86.6033C132.504 86.4993 132.637 86.4285 132.781 86.3998C132.925 86.3712 133.074 86.3859 133.21 86.4421C133.346 86.4984 133.462 86.5937 133.544 86.716C133.626 86.8382 133.669 86.9819 133.669 87.129C133.669 87.3261 133.591 87.5152 133.451 87.6546C133.312 87.794 133.123 87.8724 132.926 87.8724ZM132.926 86.8056C132.84 86.8056 132.758 86.8396 132.697 86.9003C132.636 86.9609 132.602 87.0432 132.602 87.129C132.602 87.2147 132.636 87.297 132.697 87.3576C132.758 87.4183 132.84 87.4524 132.926 87.4524C133.012 87.4524 133.094 87.4183 133.154 87.3576C133.215 87.297 133.249 87.2147 133.249 87.129C133.249 87.0432 133.215 86.9609 133.154 86.9003C133.094 86.8396 133.012 86.8056 132.926 86.8056Z" fill="white"/>
<path d="M133.136 86.5956H132.716V85.4448L130.414 83.1432V75.5118H130.834V82.9668L133.136 85.2684V86.5956Z" fill="white"/>
<path d="M123.93 75.5118H123.51V84.609H123.93V75.5118Z" fill="white"/>
<path d="M121.628 90.0018H121.208V96.4782H121.628V90.0018Z" fill="white"/>
<path d="M126.021 92.1312C125.874 92.1312 125.73 92.0876 125.608 92.0059C125.486 91.9242 125.39 91.8081 125.334 91.6722C125.278 91.5364 125.263 91.3869 125.292 91.2427C125.321 91.0985 125.391 90.9661 125.495 90.8621C125.599 90.7581 125.732 90.6873 125.876 90.6586C126.02 90.6299 126.17 90.6447 126.305 90.7009C126.441 90.7572 126.557 90.8525 126.639 90.9747C126.721 91.097 126.764 91.2407 126.764 91.3877C126.764 91.5849 126.686 91.774 126.547 91.9134C126.407 92.0528 126.218 92.1312 126.021 92.1312ZM126.021 91.0644C125.935 91.0644 125.853 91.0984 125.792 91.1591C125.732 91.2197 125.698 91.302 125.698 91.3877C125.698 91.4735 125.732 91.5558 125.792 91.6164C125.853 91.6771 125.935 91.7112 126.021 91.7112C126.107 91.7112 126.189 91.6771 126.25 91.6164C126.31 91.5558 126.344 91.4735 126.344 91.3877C126.344 91.302 126.31 91.2197 126.25 91.1591C126.189 91.0984 126.107 91.0644 126.021 91.0644Z" fill="white"/>
<path d="M126.231 91.9211H125.811V96.4739H126.231V91.9211Z" fill="white"/>
<path d="M132.926 90.4512C132.779 90.4512 132.635 90.4076 132.513 90.3259C132.391 90.2442 132.295 90.1281 132.239 89.9922C132.183 89.8564 132.168 89.7069 132.197 89.5627C132.225 89.4185 132.296 89.2861 132.4 89.1821C132.504 89.0781 132.637 89.0073 132.781 88.9786C132.925 88.95 133.074 88.9647 133.21 89.0209C133.346 89.0772 133.462 89.1725 133.544 89.2947C133.626 89.417 133.669 89.5607 133.669 89.7078C133.669 89.9049 133.591 90.094 133.451 90.2334C133.312 90.3728 133.123 90.4512 132.926 90.4512ZM132.926 89.3844C132.84 89.3844 132.758 89.4184 132.697 89.4791C132.636 89.5397 132.602 89.622 132.602 89.7078C132.602 89.7935 132.636 89.8758 132.697 89.9364C132.758 89.9971 132.84 90.0312 132.926 90.0312C133.012 90.0312 133.094 89.9971 133.154 89.9364C133.215 89.8758 133.249 89.7935 133.249 89.7078C133.249 89.622 133.215 89.5397 133.154 89.4791C133.094 89.4184 133.012 89.3844 132.926 89.3844Z" fill="white"/>
<path d="M133.136 90.2411H132.716V96.4739H133.136V90.2411Z" fill="white"/>
<path d="M130.788 81.8958L130.494 81.5976L132.716 79.3716V75.5118H133.136V79.548L130.788 81.8958Z" fill="white"/>
<path d="M128.323 88.095C128.175 88.0949 128.031 88.0511 127.909 87.9691C127.786 87.887 127.691 87.7704 127.635 87.6341C127.579 87.4977 127.565 87.3478 127.594 87.2034C127.624 87.059 127.695 86.9265 127.8 86.8229C127.905 86.7193 128.038 86.6492 128.183 86.6214C128.328 86.5937 128.477 86.6096 128.613 86.6672C128.749 86.7247 128.864 86.8213 128.945 86.9447C129.026 87.068 129.068 87.2126 129.066 87.36C129.064 87.5557 128.985 87.7426 128.845 87.8802C128.706 88.0178 128.518 88.095 128.323 88.095ZM128.323 87.0282C128.237 87.0282 128.155 87.0622 128.094 87.1229C128.033 87.1835 127.999 87.2658 127.999 87.3516C127.999 87.4373 128.033 87.5196 128.094 87.5802C128.155 87.6409 128.237 87.675 128.323 87.675C128.408 87.675 128.491 87.6409 128.551 87.5802C128.612 87.5196 128.646 87.4373 128.646 87.3516C128.646 87.2658 128.612 87.1835 128.551 87.1229C128.491 87.0622 128.408 87.0282 128.323 87.0282Z" fill="white"/>
<path d="M128.533 87.8849H128.113V96.4739H128.533V87.8849Z" fill="white"/>
<path d="M145.282 127.537H106.84V120.208H145.282V127.537ZM107.26 127.117H144.862V120.628H107.26V127.117Z" fill="#04459D"/>
<path d="M110.376 121.649H108.1V126.097H110.376V121.649Z" fill="#04459D"/>
<path d="M113.354 121.649H111.077V126.097H113.354V121.649Z" fill="#04459D"/>
<path d="M116.327 121.649H114.051V126.097H116.327V121.649Z" fill="#04459D"/>
<path opacity="0.9" d="M119.305 121.649H117.029V126.097H119.305V121.649Z" fill="#04459D"/>
<path opacity="0.7" d="M122.283 121.649H120.007V126.097H122.283V121.649Z" fill="#04459D"/>
<path opacity="0.5" d="M125.257 121.649H122.98V126.097H125.257V121.649Z" fill="#04459D"/>
<path opacity="0.3" d="M128.234 121.649H125.958V126.097H128.234V121.649Z" fill="#04459D"/>
<path d="M113.681 111.506H114.794V114.24H116.533V115.126H113.681V111.506Z" fill="#04459D"/>
<path d="M116.815 113.312C116.791 113.061 116.822 112.807 116.908 112.57C116.993 112.333 117.129 112.117 117.307 111.939C117.486 111.76 117.701 111.623 117.938 111.537C118.175 111.452 118.428 111.419 118.679 111.443C118.931 111.427 119.184 111.461 119.422 111.545C119.66 111.629 119.879 111.76 120.065 111.93C120.234 112.11 120.365 112.323 120.448 112.556C120.532 112.788 120.568 113.036 120.553 113.282C120.567 113.64 120.493 113.997 120.338 114.32C120.201 114.586 119.988 114.806 119.725 114.95C119.416 115.11 119.07 115.188 118.721 115.177C118.375 115.188 118.03 115.121 117.713 114.979C117.439 114.846 117.212 114.632 117.062 114.366C116.887 114.043 116.802 113.679 116.815 113.312ZM117.928 113.312C117.904 113.589 117.977 113.867 118.133 114.097C118.205 114.172 118.291 114.232 118.386 114.273C118.481 114.314 118.584 114.335 118.688 114.335C118.792 114.335 118.894 114.314 118.99 114.273C119.085 114.232 119.171 114.172 119.242 114.097C119.399 113.847 119.469 113.551 119.44 113.257C119.46 112.992 119.388 112.727 119.234 112.51C119.164 112.432 119.077 112.37 118.981 112.329C118.884 112.289 118.78 112.27 118.675 112.274C118.573 112.27 118.47 112.29 118.377 112.331C118.283 112.373 118.199 112.435 118.133 112.514C117.974 112.749 117.901 113.033 117.928 113.316V113.312Z" fill="#04459D"/>
<path d="M123.199 114.517H121.939L121.762 115.114H120.624L121.981 111.506H123.194L124.551 115.114H123.383L123.199 114.517ZM122.968 113.74L122.569 112.442L122.174 113.74H122.968Z" fill="#04459D"/>
<path d="M124.917 111.506H126.571C126.842 111.496 127.112 111.542 127.365 111.64C127.56 111.724 127.73 111.855 127.861 112.022C127.996 112.191 128.093 112.388 128.146 112.598C128.206 112.827 128.236 113.063 128.235 113.299C128.248 113.603 128.204 113.906 128.104 114.194C128.024 114.396 127.899 114.579 127.739 114.727C127.597 114.864 127.424 114.964 127.235 115.017C127.019 115.077 126.796 115.109 126.571 115.114H124.917V111.506ZM126.03 112.325V114.295H126.302C126.473 114.307 126.644 114.279 126.802 114.215C126.909 114.155 126.991 114.06 127.033 113.946C127.1 113.744 127.128 113.532 127.117 113.32C127.146 113.044 127.079 112.767 126.928 112.535C126.847 112.457 126.749 112.398 126.643 112.362C126.536 112.326 126.423 112.313 126.311 112.325H126.03Z" fill="#04459D"/>
<path d="M128.865 111.506H129.982V115.114H128.865V111.506Z" fill="#04459D"/>
<path d="M130.792 111.506H131.83L133.19 113.501V111.506H134.24V115.114H133.19L131.838 113.131V115.114H130.792V111.506Z" fill="#04459D"/>
<path d="M136.794 113.82V113.068H138.516V114.605C138.248 114.799 137.954 114.955 137.642 115.067C137.349 115.154 137.045 115.195 136.739 115.189C136.378 115.203 136.019 115.128 135.694 114.971C135.422 114.822 135.204 114.593 135.068 114.316C134.914 114.008 134.837 113.668 134.845 113.324C134.836 112.966 134.92 112.611 135.089 112.295C135.25 112.005 135.498 111.773 135.799 111.632C136.111 111.502 136.448 111.441 136.786 111.455C137.088 111.443 137.39 111.48 137.68 111.565C137.872 111.631 138.043 111.747 138.176 111.901C138.315 112.07 138.415 112.268 138.47 112.48L137.395 112.669C137.355 112.543 137.276 112.434 137.168 112.358C137.043 112.279 136.896 112.24 136.748 112.249C136.637 112.244 136.526 112.265 136.424 112.309C136.322 112.354 136.232 112.421 136.16 112.505C135.997 112.741 135.921 113.026 135.946 113.312C135.917 113.609 135.994 113.906 136.164 114.152C136.241 114.237 136.336 114.303 136.442 114.347C136.548 114.39 136.663 114.41 136.777 114.404C136.898 114.403 137.018 114.384 137.134 114.349C137.27 114.3 137.401 114.238 137.525 114.164V113.82H136.794Z" fill="#04459D"/>
<path d="M126.651 135.849H125.391V143.522H126.651V135.849Z" fill="#04459D"/>
<path d="M129.112 141.015L128.558 140.503L126.021 143.233L123.484 140.503L122.93 141.015L126.021 144.341L129.112 141.015Z" fill="#04459D"/>
<path d="M131.158 145.484H120.88V146.744H131.158V145.484Z" fill="#04459D"/>
<path opacity="0.3" d="M134.182 52.248C134.183 52.0225 134.116 51.8019 133.992 51.6141C133.867 51.4262 133.689 51.2797 133.481 51.193C133.273 51.1064 133.044 51.0835 132.822 51.1273C132.601 51.171 132.398 51.2795 132.239 51.439C132.079 51.5984 131.971 51.8016 131.927 52.0228C131.883 52.2439 131.906 52.4731 131.993 52.6813C132.079 52.8894 132.226 53.0672 132.414 53.1919C132.602 53.3167 132.822 53.3828 133.048 53.382C133.348 53.382 133.637 53.2625 133.85 53.0498C134.062 52.8372 134.182 52.5487 134.182 52.248Z" fill="#04459D"/>
<path opacity="0.3" d="M129.125 51.1097H119.683C119.057 51.1097 118.549 51.6174 118.549 52.2437V52.2479C118.549 52.8742 119.057 53.3819 119.683 53.3819H129.125C129.751 53.3819 130.259 52.8742 130.259 52.2479V52.2437C130.259 51.6174 129.751 51.1097 129.125 51.1097Z" fill="#04459D"/>
</svg>
