<svg width="1440" height="587" viewBox="0 0 1440 587" fill="none" xmlns="http://www.w3.org/2000/svg">
<g clip-path="url(#clip0_467_699)">
<g opacity="0.8">
<path d="M1649.5 293.5C1649.5 455.596 1518.1 587 1356 587C1193.9 587 1062.5 455.596 1062.5 293.5C1062.5 131.404 1193.9 0 1356 0C1518.1 0 1649.5 131.404 1649.5 293.5ZM1124.53 293.5C1124.53 421.336 1228.16 524.967 1356 524.967C1483.84 524.967 1587.47 421.336 1587.47 293.5C1587.47 165.664 1483.84 62.0329 1356 62.0329C1228.16 62.0329 1124.53 165.664 1124.53 293.5Z" fill="#F7F7F7"/>
<path d="M1552.07 293.5C1552.07 401.788 1464.29 489.573 1356 489.573C1247.71 489.573 1159.93 401.788 1159.93 293.5C1159.93 185.212 1247.71 97.4274 1356 97.4274C1464.29 97.4274 1552.07 185.212 1552.07 293.5ZM1218.96 293.5C1218.96 369.183 1280.32 430.537 1356 430.537C1431.68 430.537 1493.04 369.183 1493.04 293.5C1493.04 217.817 1431.68 156.463 1356 156.463C1280.32 156.463 1218.96 217.817 1218.96 293.5Z" fill="#F7F7F7"/>
<path d="M1459.52 293.5C1459.52 350.671 1413.17 397.017 1356 397.017C1298.83 397.017 1252.48 350.671 1252.48 293.5C1252.48 236.329 1298.83 189.983 1356 189.983C1413.17 189.983 1459.52 236.329 1459.52 293.5ZM1297.06 293.5C1297.06 326.05 1323.45 352.437 1356 352.437C1388.55 352.437 1414.94 326.05 1414.94 293.5C1414.94 260.95 1388.55 234.563 1356 234.563C1323.45 234.563 1297.06 260.95 1297.06 293.5Z" fill="#F7F7F7"/>
</g>
</g>
<defs>
<clipPath id="clip0_467_699">
<rect width="1440" height="587" fill="white"/>
</clipPath>
</defs>
</svg>
